<?xml version="1.0" encoding="iso-8859-1"?>
<!-- Generator: Adobe Illustrator 24.3.0, SVG Export Plug-In . SVG Version: 6.00 Build 0)  -->
<!DOCTYPE svg PUBLIC "-//W3C//DTD SVG 1.1//EN" "http://www.w3.org/Graphics/SVG/1.1/DTD/svg11.dtd" [
	<!ENTITY st0 "fill:#BB2230;">
]>
<svg version="1.1" id="FMN" xmlns="http://www.w3.org/2000/svg" xmlns:xlink="http://www.w3.org/1999/xlink" x="0px" y="0px"
	 viewBox="0 8 155 58" style="enable-background:new 0 0 311.3 80;" xml:space="preserve">
<g>
	<g>
		<path style="&st0;" d="M59.8,39.1v2.7h3.8v2.6h-3.8V49h-2.9V36.4h8V39C64.9,39.1,59.8,39.1,59.8,39.1z"/>
		<path style="&st0;" d="M76,42v1.5c0,4.3-0.8,5.8-4.7,5.8l0,0c-3.9,0-4.7-1.5-4.7-5.8V42c0-4.3,0.8-5.8,4.7-5.8l0,0
			C75.2,36.2,76,37.7,76,42z M73,42.4c0-3.1-0.3-3.5-2-3.5s-2,0.4-2,3.5v0.7c0,3.1,0.3,3.5,2,3.5s2-0.4,2-3.5V42.4z"/>
		<path style="&st0;" d="M83.2,45.2l-1.5,0.7v3.3h-2.8V36.4h4.8c2.8,0,4,0.7,4,3.7v0.3c0,2.5-0.4,3.1-1.7,3.8h-0.3l2.5,5h-3.1
			L83.2,45.2z M81.7,43l2.3-0.8c0.7-0.3,0.8-0.4,0.8-1.5v-0.3c0-1.2-0.3-1.5-1.2-1.5h-2C81.7,39.1,81.7,43,81.7,43z"/>
		<path style="&st0;" d="M90.3,49v-2.6c0.9,0.2,2.3,0.4,3.5,0.4c1.5,0,1.7-0.3,1.7-0.9v-0.2c0-0.7-0.2-0.8-0.9-1.2l-2.2-1.2
			c-1.7-0.9-2.5-1.3-2.5-3.5v-0.4c0-2.6,1.3-3.3,4.5-3.3c1.8,0,2.8,0.2,3.5,0.3v2.6c-1-0.3-2.1-0.3-3.3-0.3c-1.3,0-1.5,0.3-1.5,0.8
			v0.2c0,0.5,0.2,0.8,1.2,1.3l1.7,0.8c2.2,1.2,2.6,1.5,2.6,3.7v0.3c0,2.8-1.2,3.5-4.5,3.5C92.6,49.3,91.1,49.2,90.3,49z"/>
		<path style="&st0;" d="M101.9,47.8l-2.1-11.3h3l1.7,9.9c0.2,0.3,0.2,0.4,0.5,0.4s0.4-0.2,0.5-0.4l1.7-9.9h3l-2.3,11.3
			c-0.3,1.3-0.7,1.5-3,1.5C102.6,49.3,102.4,49,101.9,47.8z"/>
		<path style="&st0;" d="M118.2,45.8h-3.8l-0.5,3.3h-2.8l1.7-11c0.3-1.8,0.5-2.1,3.5-2.1s3.3,0.2,3.5,2.1l1.7,11h-3L118.2,45.8z
			 M118,43.2l-0.7-3.9c-0.2-0.5-0.3-0.7-0.8-0.7c-0.7,0-0.8,0.2-0.8,0.7l-0.7,3.9H118z"/>
		<path style="&st0;" d="M128.5,45.2l-1.5,0.7v3.3h-2.8V36.4h4.8c2.8,0,4,0.7,4,3.7v0.3c0,2.5-0.4,3.1-1.7,3.8h-0.2l2.5,5h-3.1
			L128.5,45.2z M127,43l2.3-0.8c0.7-0.3,0.8-0.4,0.8-1.5v-0.3c0-1.2-0.3-1.5-1.2-1.5h-2.1L127,43L127,43z"/>
		<path style="&st0;" d="M143.8,46.6v2.6H136V36.4h7.7V39h-5v2.3h3.8v2.6h-3.8v2.6h5.1V46.6z"/>
		<path style="&st0;" d="M154.1,39.1h-3v10.1h-2.8V39.1h-3.1v-2.6h8.8L154.1,39.1L154.1,39.1z"/>
	</g>
	<g>
		<g>
			<g>
				<path style="&st0;" d="M41.7,42.6c0,4.2-1.5,8.1-3.9,11.1l2.7,2.7c3.1-3.8,5.1-8.6,5.1-13.8s-2-10.1-5.1-13.8l-2.7,2.7
					C40.3,34.5,41.7,38.4,41.7,42.6z"/>
				<path style="&st0;" d="M6.3,42.6c0-4.2,1.5-8.1,3.9-11.1l-2.7-2.7c-3,3.8-5,8.6-5,13.8s2,10.1,5.1,13.7l2.7-2.6
					C7.7,50.7,6.3,46.9,6.3,42.6z"/>
				<path style="&st0;" d="M35.2,56.5c-3,2.5-6.9,3.9-11.1,3.9s-8.1-1.5-11.1-3.9l-2.7,2.7c3.8,3.1,8.6,5.1,13.8,5.1
					s10.1-2,13.8-5.1L35.2,56.5z"/>
			</g>
			<g>
				<rect x="26" y="44.5" style="&st0;" width="8.2" height="8.2"/>
				<rect x="13.9" y="44.5" style="&st0;" width="8.2" height="8.2"/>
				<rect x="26" y="32.6" style="&st0;" width="8.2" height="8.2"/>
				<rect x="13.9" y="32.6" style="&st0;" width="8.2" height="8.2"/>
			</g>
		</g>
		<g>
			<path style="&st0;" d="M33.4,15.9c0.5,0,0.9,0.3,0.9,0.7c0,0.3-0.2,0.5-0.3,0.8l-3.8,4.5h2.8l2.6-3c0.7-0.8,1-1.5,1-2.3
				c0-1.5-1.3-2.6-3.1-2.6h-0.4L33.4,15.9C33.3,15.9,33.4,15.9,33.4,15.9z"/>
			<path style="&st0;" d="M14.7,15.9h0.4v-2.2h-0.4c-1.8,0-3.1,1.2-3.1,2.6c0,0.8,0.3,1.5,1,2.3l2.6,3H18l-3.8-4.5
				c-0.4-0.2-0.4-0.4-0.4-0.7C13.7,16.1,14.2,15.9,14.7,15.9z"/>
			<path style="&st0;" d="M19,15.9h2.5v-2.2h-2.3c-2.1,0-3.3,1.2-3.3,2.6c0,0.8,0.3,1.5,1,2.3l2.5,3h2.8l-3.8-4.5
				c-0.3-0.2-0.4-0.4-0.4-0.7C18.2,16.1,18.5,15.9,19,15.9z"/>
			<path style="&st0;" d="M29,15.9c0.5,0,0.9,0.3,0.9,0.7c0,0.3-0.2,0.5-0.3,0.8L26,21.8h2.8l2.5-3c0.7-0.8,1-1.5,1-2.3
				c0-1.5-1.3-2.6-3.3-2.6h-2.3V16L29,15.9L29,15.9z"/>
			<rect x="23" y="13.6" style="&st0;" width="2.2" height="8"/>
			<rect x="15.8" y="23.2" style="&st0;" width="16.5" height="3.8"/>
			<circle style="&st0;" cx="24.1" cy="10.7" r="2.1"/>
		</g>
		<polygon style="&st0;" points="23.5,5.5 22.2,5.5 22.2,6.5 23.5,6.5 23.5,7.8 24.5,7.8 24.5,6.5 26,6.5 26,5.5 24.5,5.5 24.5,4.3 
			23.5,4.3 		"/>
	</g>
</g>
</svg>
