<?xml version="1.0" encoding="UTF-8" standalone="no"?>
<!-- Created with Inkscape (http://www.inkscape.org/) -->

<svg
   version="1.1"
   id="svg2"
   width="1122.52"
   height="503.70001"
   viewBox="300 275 110 80"
   sodipodi:docname="LINAK logo A_2colour.ai"
   xmlns:inkscape="http://www.inkscape.org/namespaces/inkscape"
   xmlns:sodipodi="http://sodipodi.sourceforge.net/DTD/sodipodi-0.dtd"
   xmlns="http://www.w3.org/2000/svg"
   xmlns:svg="http://www.w3.org/2000/svg">
  <defs
     id="defs6">
    <clipPath
       clipPathUnits="userSpaceOnUse"
       id="clipPath16">
      <path
         d="M 0,595.275 H 841.89 V 0 H 0 Z"
         id="path14" />
    </clipPath>
  </defs>
  <sodipodi:namedview
     id="namedview4"
     pagecolor="#ffffff"
     bordercolor="#000000"
     borderopacity="0.25"
     inkscape:showpageshadow="2"
     inkscape:pageopacity="0.0"
     inkscape:pagecheckerboard="0"
     inkscape:deskcolor="#d1d1d1" />
  <g
     id="g8"
     inkscape:groupmode="layer"
     inkscape:label="LINAK logo A_2colour"
     transform="matrix(1.3333333,0,0,-1.3333333,0,793.7)">
    <g
       id="g10">
      <g
         id="g12"
         clip-path="url(#clipPath16)">
        <g
           id="g18"
           transform="translate(326.9277,357.8506)">
          <path
             d="m 0,0 c -0.527,-1.276 -1.67,-2.336 -2.869,-3.118 -2.669,-1.79 -6.052,-2.536 -9.33,-2.118 -0.289,0.022 -0.607,0.081 -0.885,0.122 h 0.009 v 0.017 c -0.904,0.133 -1.778,0.409 -2.631,0.674 -2.026,0.765 -4.048,2.049 -5.304,3.993 -0.448,0.773 -0.749,1.641 -0.839,2.536 -0.094,1.656 0.58,3.182 1.685,4.376 0.311,0.354 0.641,0.612 0.96,0.918 v 0.039 c -0.555,0.408 -1.15,0.788 -1.695,1.195 l 0.068,0.029 5.86,-0.022 0.02,0.009 0.038,-0.029 -0.01,-4.099 -0.009,-0.009 -1.351,0.904 c -0.58,-0.487 -0.932,-1.187 -1.244,-1.839 -0.373,-1.009 -0.286,-2.183 0.325,-3.043 0.665,-1.103 1.691,-1.715 2.784,-2.243 1.181,-0.471 2.449,-0.767 3.768,-0.748 2.088,0.052 4.219,0.73 5.664,2.116 0.678,0.688 1.359,1.655 1.28,2.704 0.05,1.809 -1.345,3.166 -2.783,4.043 v 0.019 l 2.939,1.923 c 0.019,0.009 0.049,0.019 0.068,0.047 0.709,-0.523 1.524,-0.934 2.115,-1.66 C -0.631,5.933 0.036,5.08 0.26,4.041 0.597,2.681 0.539,1.257 0,0 m -10.526,18.06 5.303,-5.551 C -5.397,12.49 -8.474,12.493 -8.474,12.493 l 0.016,-0.058 -0.016,-11.721 -3.03,0.002 c -0.336,0.002 -0.731,0.005 -1.058,0.007 l -0.034,11.75 -3.184,0.032 -0.029,10e-4 z m 11.858,1.648 h -24.044 c 0,0 -1.47,0 -1.47,-1.47 V -5.807 c 0,0 0,-1.47 1.47,-1.47 H 1.332 c 0,0 1.47,0 1.47,1.47 v 24.045 c 0,0 0,1.47 -1.47,1.47"
             style="fill:#3163b7;fill-opacity:1;fill-rule:nonzero;stroke:none"
             id="path20" />
        </g>
        <g
           id="g22"
           transform="translate(209.436,356.6309)">
          <path
             d="M 0,0 H 8.627 V -6.047 H -7.236 V 20.924 H 0 Z"
             style="fill:#231f20;fill-opacity:1;fill-rule:nonzero;stroke:none"
             id="path24" />
        </g>
        <path
           d="m 226.827,350.592 h -7.464 v 26.971 h 7.464 z"
           style="fill:#231f20;fill-opacity:1;fill-rule:nonzero;stroke:none"
           id="path26" />
        <g
           id="g28"
           transform="translate(262.2065,361.0063)">
          <path
             d="M 0,0 -1.315,6.11 -2.733,0 H 0 m 9.151,16.561 7.721,-0.017 c 0.006,-3.599 -0.058,-7.141 0,-10.627 l 5.293,10.627 h 8.577 L 23.986,4.324 30.26,-10.427 H 22.165 L 16.872,2.375 V 2.451 -10.427 H 2.429 l -0.961,4.199 h -5.643 l -0.987,-4.199 h -13.839 l -6.604,12.751 h -0.076 v -12.751 h -7.211 v 26.971 h 7.034 l 6.679,-12.574 0.127,-0.127 c 0.101,4.504 0.051,12.701 0.051,12.701 l 7.371,0.001 -0.008,-22.166 0.05,-0.075 6.24,22.257 8.51,-0.017 L 9.109,-6 c 0,-0.051 0.016,-0.075 0.042,-0.126 z"
             style="fill:#231f20;fill-opacity:1;fill-rule:nonzero;stroke:none"
             id="path30" />
        </g>
        <g
           id="g32"
           transform="translate(210.2393,342.9028)">
          <path
             d="M 0,0 C -0.208,-0.03 -0.362,-0.085 -0.462,-0.165 -0.563,-0.251 -0.643,-0.381 -0.7,-0.557 -1.355,-2.329 -1.97,-4.136 -2.543,-5.977 h -0.134 c -0.436,1.267 -0.908,2.556 -1.419,3.867 l -1.362,-3.867 h -0.134 c -0.625,1.876 -1.196,3.512 -1.708,4.907 -0.13,0.378 -0.251,0.649 -0.363,0.812 -0.119,0.16 -0.302,0.246 -0.549,0.258 v 0.173 h 2.17 V 0 c -0.389,0.007 -0.581,-0.098 -0.575,-0.312 0.006,-0.14 0.038,-0.274 0.096,-0.401 l 1.275,-3.436 0.947,2.579 -0.29,0.745 c -0.128,0.372 -0.253,0.604 -0.371,0.697 -0.119,0.097 -0.293,0.14 -0.524,0.128 v 0.173 h 2.366 V 0 c -0.142,0 -0.287,-0.015 -0.436,-0.044 -0.159,-0.045 -0.241,-0.145 -0.247,-0.303 0,-0.074 0.023,-0.165 0.069,-0.273 0.049,-0.116 0.106,-0.264 0.169,-0.442 l 1.171,-3.115 1.107,3.098 c 0.087,0.22 0.133,0.44 0.139,0.661 -0.006,0.175 -0.07,0.287 -0.192,0.334 -0.128,0.05 -0.275,0.078 -0.438,0.084 V 0.173 L 0,0.173 V 0"
             style="fill:#231f20;fill-opacity:1;fill-rule:nonzero;stroke:none"
             id="path34" />
        </g>
        <g
           id="g36"
           transform="translate(216.7134,337.0225)">
          <path
             d="m 0,0 h -4.803 v 0.173 c 0.282,0.007 0.482,0.064 0.6,0.175 0.112,0.098 0.168,0.314 0.168,0.647 v 4.06 c 0,0.354 -0.056,0.578 -0.168,0.671 -0.118,0.096 -0.318,0.149 -0.6,0.154 v 0.174 h 4.723 l 0.028,-1.308 h -0.233 c -0.046,0.402 -0.162,0.665 -0.348,0.786 -0.188,0.121 -0.523,0.18 -1.004,0.175 H -2.841 C -2.931,5.707 -3.002,5.695 -3.054,5.67 -3.106,5.638 -3.132,5.545 -3.132,5.395 V 3.367 h 1.364 c 0.384,-0.007 0.635,0.058 0.753,0.192 0.073,0.071 0.123,0.163 0.152,0.273 0.035,0.109 0.058,0.243 0.07,0.402 h 0.204 V 2.111 H -0.793 C -0.834,2.47 -0.914,2.708 -1.032,2.824 -1.162,2.936 -1.407,2.986 -1.768,2.98 L -3.132,2.998 V 0.73 c -0.006,-0.091 0.003,-0.158 0.026,-0.2 0.017,-0.055 0.065,-0.095 0.144,-0.119 0.142,-0.049 0.528,-0.069 1.16,-0.063 0.546,-0.006 0.964,0.08 1.255,0.255 0.281,0.177 0.515,0.491 0.697,0.941 H 0.403 L 0,0"
             style="fill:#231f20;fill-opacity:1;fill-rule:nonzero;stroke:none"
             id="path38" />
        </g>
        <g
           id="g40"
           transform="translate(222.2002,337.1953)">
          <path
             d="m 0,0 c 0.365,0 0.603,0.062 0.716,0.184 0.1,0.116 0.148,0.327 0.142,0.638 v 4.06 C 0.864,5.212 0.813,5.432 0.707,5.543 0.594,5.646 0.359,5.702 0,5.708 V 5.881 H 2.628 V 5.708 C 2.317,5.714 2.096,5.668 1.964,5.569 1.828,5.465 1.761,5.236 1.761,4.882 V 0.822 C 1.755,0.473 1.819,0.252 1.955,0.157 2.027,0.1 2.119,0.063 2.231,0.046 2.338,0.021 2.47,0.006 2.628,0 V -0.173 H 0 V 0"
             style="fill:#231f20;fill-opacity:1;fill-rule:nonzero;stroke:none"
             id="path42" />
        </g>
        <g
           id="g44"
           transform="translate(233.9165,342.9028)">
          <path
             d="M 0,0 C -0.271,-0.006 -0.468,-0.058 -0.593,-0.156 -0.65,-0.209 -0.695,-0.286 -0.727,-0.383 -0.755,-0.493 -0.77,-0.642 -0.77,-0.826 v -4.06 c 0,-0.334 0.059,-0.548 0.177,-0.649 C -0.474,-5.643 -0.277,-5.702 0,-5.708 V -5.88 h -2.479 v 0.172 c 0.338,0.006 0.559,0.074 0.664,0.202 0.101,0.117 0.148,0.356 0.143,0.723 v 4.105 H -1.69 L -3.946,-5.88 h -0.125 l -2.211,4.992 H -6.3 v -3.649 c -0.006,-0.453 0.056,-0.761 0.186,-0.923 0.119,-0.16 0.335,-0.242 0.651,-0.248 V -5.88 h -2.072 v 0.172 c 0.329,0.012 0.557,0.091 0.687,0.239 0.113,0.143 0.17,0.456 0.17,0.932 v 3.711 c 0,0.349 -0.057,0.572 -0.17,0.67 -0.124,0.098 -0.347,0.15 -0.67,0.156 v 0.173 h 1.752 l 2.046,-4.616 1.959,4.616 1.761,0 V 0"
             style="fill:#231f20;fill-opacity:1;fill-rule:nonzero;stroke:none"
             id="path46" />
        </g>
        <g
           id="g48"
           transform="translate(237.377,340.0508)">
          <path
             d="M 0,0 C 0.169,-0.018 0.347,-0.026 0.53,-0.026 0.622,-0.034 0.75,-0.023 0.917,0 1.076,0.018 1.239,0.066 1.409,0.147 1.586,0.231 1.734,0.371 1.853,0.568 1.97,0.756 2.031,1.022 2.037,1.365 2.031,1.69 1.964,1.946 1.835,2.135 1.706,2.316 1.543,2.447 1.348,2.529 1.158,2.609 0.973,2.657 0.792,2.676 0.609,2.688 0.465,2.694 0.362,2.694 0.232,2.694 0.14,2.682 0.086,2.657 0.029,2.625 0,2.533 0,2.381 V 0 M -1.645,3.025 H 0.687 C 1.319,3.025 1.858,2.898 2.305,2.643 2.759,2.381 2.992,1.96 3.003,1.381 3.003,1.212 2.986,1.057 2.952,0.917 2.909,0.783 2.855,0.665 2.792,0.561 2.668,0.358 2.559,0.222 2.464,0.15 2.116,-0.216 1.491,-0.395 0.592,-0.389 0.396,-0.389 0.198,-0.38 0,-0.363 v -1.669 c -0.006,-0.322 0.05,-0.537 0.168,-0.649 0.118,-0.11 0.337,-0.169 0.659,-0.174 v -0.173 h -2.472 v 0.173 c 0.354,0.023 0.571,0.105 0.652,0.247 0.049,0.074 0.076,0.165 0.082,0.275 0.005,0.107 0.008,0.241 0.008,0.402 v 3.957 c 0.007,0.319 -0.035,0.533 -0.125,0.643 -0.095,0.104 -0.3,0.165 -0.617,0.183 z"
             style="fill:#231f20;fill-opacity:1;fill-rule:nonzero;stroke:none"
             id="path50" />
        </g>
        <g
           id="g52"
           transform="translate(243.6738,340.167)">
          <path
             d="m 0,0 c 0.192,0.006 0.407,0.022 0.644,0.049 0.235,0.018 0.46,0.065 0.673,0.142 0.22,0.081 0.399,0.212 0.54,0.393 C 1.992,0.769 2.063,1.018 2.068,1.333 2.063,1.64 2.003,1.878 1.892,2.048 1.774,2.216 1.626,2.341 1.452,2.422 1.278,2.501 1.11,2.548 0.946,2.56 0.782,2.571 0.649,2.578 0.548,2.578 0.323,2.578 0.176,2.56 0.104,2.524 0.029,2.474 -0.005,2.381 0,2.248 V 0 M 4.033,-3.145 H 2.605 L 0.493,-0.322 0,-0.339 V -2.147 C -0.005,-2.441 0.042,-2.646 0.143,-2.77 0.235,-2.893 0.452,-2.96 0.795,-2.972 v -0.173 h -2.449 v 0.173 c 0.348,0.024 0.563,0.1 0.643,0.229 0.054,0.074 0.088,0.17 0.099,0.285 0.006,0.107 0.01,0.244 0.01,0.411 V 1.91 c 0.005,0.33 -0.04,0.548 -0.135,0.652 -0.107,0.099 -0.312,0.156 -0.617,0.174 v 0.173 h 2.443 c 0.206,0 0.437,-0.016 0.69,-0.048 C 1.732,2.824 1.978,2.752 2.214,2.642 2.45,2.538 2.648,2.377 2.806,2.159 2.954,1.945 3.029,1.661 3.036,1.307 3.029,1.008 2.97,0.765 2.857,0.574 2.74,0.381 2.589,0.229 2.408,0.119 2.324,0.064 2.238,0.019 2.148,-0.02 2.061,-0.056 1.973,-0.085 1.884,-0.108 1.699,-0.166 1.549,-0.205 1.434,-0.229 L 3.257,-2.543 C 3.353,-2.664 3.462,-2.761 3.586,-2.834 3.71,-2.913 3.86,-2.96 4.033,-2.972 Z"
             style="fill:#231f20;fill-opacity:1;fill-rule:nonzero;stroke:none"
             id="path54" />
        </g>
        <g
           id="g56"
           transform="translate(251.9805,337.2275)">
          <path
             d="M 0,0 C 0.514,-0.006 0.953,0.217 1.319,0.668 1.685,1.106 1.873,1.823 1.885,2.823 1.873,3.851 1.676,4.583 1.293,5.02 0.91,5.442 0.478,5.65 0,5.644 -0.472,5.65 -0.897,5.442 -1.274,5.02 -1.669,4.583 -1.873,3.851 -1.884,2.823 -1.878,1.823 -1.684,1.106 -1.3,0.668 -0.935,0.217 -0.501,-0.006 0,0 m 0,-0.333 c -0.82,0.006 -1.503,0.29 -2.049,0.853 -0.555,0.548 -0.838,1.313 -0.849,2.296 0.011,1.053 0.316,1.844 0.913,2.375 0.566,0.523 1.227,0.786 1.983,0.786 0.756,0 1.425,-0.263 2.005,-0.786 C 2.583,4.66 2.882,3.869 2.899,2.816 2.887,1.833 2.606,1.068 2.055,0.52 1.513,-0.043 0.828,-0.327 0,-0.333"
             style="fill:#231f20;fill-opacity:1;fill-rule:nonzero;stroke:none"
             id="path58" />
        </g>
        <g
           id="g60"
           transform="translate(262.2944,342.9028)">
          <path
             d="M 0,0 C -0.199,0 -0.352,-0.055 -0.458,-0.165 -0.572,-0.281 -0.69,-0.509 -0.814,-0.852 l -1.971,-5.125 h -0.129 l -2.183,5.019 C -5.27,-0.551 -5.418,-0.286 -5.543,-0.165 -5.672,-0.049 -5.837,0.007 -6.036,0 v 0.173 h 2.355 V 0 c -0.239,0 -0.41,-0.022 -0.51,-0.066 -0.101,-0.041 -0.152,-0.133 -0.152,-0.272 0,-0.069 0.039,-0.187 0.116,-0.357 0.065,-0.177 0.146,-0.383 0.248,-0.621 l 1.338,-3.086 1.303,3.349 c 0.017,0.039 0.05,0.128 0.099,0.268 0.041,0.14 0.063,0.263 0.07,0.367 -0.007,0.181 -0.07,0.295 -0.192,0.343 C -1.495,-0.025 -1.653,0 -1.835,0 V 0.173 H 0 V 0"
             style="fill:#231f20;fill-opacity:1;fill-rule:nonzero;stroke:none"
             id="path62" />
        </g>
        <g
           id="g64"
           transform="translate(268.8213,337.0225)">
          <path
             d="m 0,0 h -4.803 v 0.173 c 0.281,0.007 0.481,0.064 0.6,0.175 0.111,0.098 0.167,0.314 0.167,0.647 v 4.06 c 0,0.354 -0.056,0.578 -0.167,0.671 -0.119,0.096 -0.319,0.149 -0.6,0.154 v 0.174 h 4.722 l 0.029,-1.308 h -0.233 c -0.047,0.402 -0.162,0.665 -0.348,0.786 -0.189,0.121 -0.523,0.18 -1.004,0.175 H -2.841 C -2.932,5.707 -3.002,5.695 -3.054,5.67 -3.106,5.638 -3.132,5.545 -3.132,5.395 V 3.367 h 1.364 c 0.384,-0.007 0.635,0.058 0.753,0.192 0.073,0.071 0.123,0.163 0.152,0.273 0.034,0.109 0.057,0.243 0.069,0.402 H -0.59 V 2.111 H -0.794 C -0.834,2.47 -0.913,2.708 -1.032,2.824 -1.162,2.936 -1.407,2.986 -1.768,2.98 L -3.132,2.998 V 0.73 c -0.007,-0.091 0.002,-0.158 0.026,-0.2 0.017,-0.055 0.065,-0.095 0.144,-0.119 0.142,-0.049 0.529,-0.069 1.159,-0.063 0.547,-0.006 0.965,0.08 1.255,0.255 0.282,0.177 0.514,0.491 0.698,0.941 H 0.403 L 0,0"
             style="fill:#231f20;fill-opacity:1;fill-rule:nonzero;stroke:none"
             id="path66" />
        </g>
        <g
           id="g68"
           transform="translate(279.5737,342.9028)">
          <path
             d="m 0,0 c -0.078,-0.006 -0.156,-0.018 -0.234,-0.035 -0.075,-0.028 -0.163,-0.069 -0.264,-0.13 -0.089,-0.062 -0.194,-0.163 -0.312,-0.303 -0.119,-0.14 -0.257,-0.333 -0.416,-0.576 l -1.315,-2.068 v -1.774 c -0.005,-0.322 0.051,-0.536 0.17,-0.649 0.113,-0.108 0.362,-0.167 0.747,-0.173 V -5.88 H -4.34 v 0.172 c 0.422,0.006 0.682,0.08 0.78,0.22 0.061,0.074 0.097,0.169 0.109,0.284 0.006,0.109 0.009,0.248 0.009,0.421 v 1.59 l -1.161,1.755 c -0.434,0.658 -0.736,1.068 -0.906,1.229 -0.095,0.089 -0.18,0.146 -0.256,0.174 C -5.843,-0.012 -5.935,0 -6.041,0 V 0.173 H -3.56 V 0 c -0.199,0 -0.352,-0.015 -0.46,-0.044 -0.112,-0.033 -0.168,-0.113 -0.168,-0.242 0,-0.046 0.017,-0.108 0.052,-0.182 0.032,-0.073 0.065,-0.141 0.099,-0.21 l 1.312,-2.028 1.27,2.063 c 0.075,0.098 0.115,0.212 0.121,0.34 -0.006,0.14 -0.071,0.229 -0.195,0.268 C -1.659,-0.012 -1.797,0 -1.944,0 V 0.173 H 0 V 0"
             style="fill:#231f20;fill-opacity:1;fill-rule:nonzero;stroke:none"
             id="path70" />
        </g>
        <g
           id="g72"
           transform="translate(284.0449,337.2275)">
          <path
             d="M 0,0 C 0.513,-0.006 0.952,0.217 1.318,0.668 1.684,1.106 1.874,1.823 1.885,2.823 1.874,3.851 1.676,4.583 1.292,5.02 0.909,5.442 0.478,5.65 0,5.644 -0.473,5.65 -0.898,5.442 -1.275,5.02 -1.67,4.583 -1.874,3.851 -1.885,2.823 c 0.006,-1 0.2,-1.717 0.584,-2.155 C -0.936,0.217 -0.501,-0.006 0,0 m 0,-0.333 c -0.82,0.006 -1.503,0.29 -2.049,0.853 -0.555,0.548 -0.839,1.313 -0.85,2.296 0.011,1.053 0.316,1.844 0.914,2.375 0.565,0.523 1.227,0.786 1.983,0.786 0.756,0 1.424,-0.263 2.004,-0.786 C 2.582,4.66 2.881,3.869 2.898,2.816 2.887,1.833 2.606,1.068 2.055,0.52 1.513,-0.043 0.828,-0.327 0,-0.333"
             style="fill:#231f20;fill-opacity:1;fill-rule:nonzero;stroke:none"
             id="path74" />
        </g>
        <g
           id="g76"
           transform="translate(294.8892,342.9028)">
          <path
             d="m 0,0 c -0.327,-0.018 -0.549,-0.101 -0.668,-0.249 -0.119,-0.146 -0.175,-0.452 -0.169,-0.919 v -2.389 c 0,-0.187 -0.012,-0.416 -0.035,-0.683 -0.029,-0.271 -0.111,-0.543 -0.247,-0.817 -0.135,-0.262 -0.36,-0.484 -0.675,-0.665 -0.321,-0.185 -0.766,-0.28 -1.338,-0.286 -0.546,0.006 -0.969,0.107 -1.269,0.303 -0.3,0.182 -0.519,0.404 -0.658,0.665 -0.129,0.263 -0.209,0.522 -0.238,0.778 -0.029,0.243 -0.04,0.44 -0.035,0.589 v 2.848 c 0.006,0.33 -0.042,0.551 -0.142,0.66 -0.107,0.104 -0.324,0.159 -0.653,0.165 v 0.173 h 2.506 V 0 c -0.338,-0.012 -0.56,-0.072 -0.664,-0.183 -0.102,-0.11 -0.149,-0.325 -0.143,-0.643 v -2.926 c -0.006,-0.146 0.003,-0.325 0.025,-0.533 0.023,-0.199 0.08,-0.403 0.171,-0.612 0.094,-0.194 0.251,-0.358 0.469,-0.491 0.208,-0.15 0.502,-0.224 0.883,-0.224 0.707,0.015 1.194,0.256 1.46,0.725 0.066,0.091 0.117,0.234 0.151,0.428 0.036,0.185 0.053,0.458 0.053,0.818 v 2.471 c 0,0.48 -0.059,0.794 -0.178,0.943 -0.064,0.077 -0.148,0.134 -0.256,0.169 -0.108,0.033 -0.241,0.052 -0.4,0.058 V 0.173 H 0 L 0,0"
             style="fill:#231f20;fill-opacity:1;fill-rule:nonzero;stroke:none"
             id="path78" />
        </g>
        <g
           id="g80"
           transform="translate(298.2397,340.167)">
          <path
             d="M 0,0 C 0.192,0.006 0.407,0.022 0.644,0.049 0.879,0.067 1.104,0.114 1.317,0.191 1.536,0.272 1.716,0.403 1.857,0.584 1.992,0.769 2.063,1.018 2.069,1.333 2.063,1.64 2.004,1.878 1.892,2.048 1.773,2.216 1.627,2.341 1.451,2.422 1.278,2.501 1.11,2.548 0.945,2.56 0.782,2.571 0.649,2.578 0.548,2.578 0.324,2.578 0.175,2.56 0.103,2.524 0.028,2.474 -0.006,2.381 0,2.248 V 0 M 4.032,-3.145 H 2.604 L 0.493,-0.322 0,-0.339 v -1.808 c -0.006,-0.294 0.042,-0.499 0.142,-0.623 0.092,-0.123 0.31,-0.19 0.653,-0.202 v -0.173 h -2.45 v 0.173 c 0.348,0.024 0.563,0.1 0.644,0.229 0.055,0.074 0.088,0.17 0.1,0.285 0.005,0.107 0.008,0.244 0.008,0.411 V 1.91 c 0.006,0.33 -0.039,0.548 -0.134,0.652 -0.107,0.099 -0.312,0.156 -0.618,0.174 V 2.909 H 0.788 C 0.995,2.909 1.225,2.893 1.479,2.861 1.732,2.824 1.978,2.752 2.214,2.642 2.45,2.538 2.647,2.377 2.806,2.159 2.953,1.945 3.029,1.661 3.035,1.307 3.029,1.008 2.97,0.765 2.857,0.574 2.739,0.381 2.589,0.229 2.408,0.119 2.324,0.064 2.238,0.019 2.148,-0.02 2.062,-0.056 1.973,-0.085 1.884,-0.108 1.699,-0.166 1.549,-0.205 1.434,-0.229 L 3.257,-2.543 C 3.353,-2.664 3.462,-2.761 3.586,-2.834 3.711,-2.913 3.858,-2.96 4.032,-2.972 Z"
             style="fill:#231f20;fill-opacity:1;fill-rule:nonzero;stroke:none"
             id="path82" />
        </g>
        <g
           id="g84"
           transform="translate(309.7871,342.9028)">
          <path
             d="m 0,0 c -0.294,0 -0.504,-0.049 -0.628,-0.146 -0.13,-0.099 -0.195,-0.325 -0.195,-0.678 v -4.318 c -0.006,-0.179 0.052,-0.284 0.177,-0.32 0.124,-0.043 0.363,-0.061 0.715,-0.055 0.337,0 0.628,0.012 0.87,0.037 0.249,0.012 0.465,0.058 0.651,0.138 0.361,0.133 0.655,0.486 0.883,1.056 H 2.699 L 2.27,-5.88 h -4.764 v 0.176 c 0.282,0.006 0.481,0.064 0.599,0.175 0.113,0.099 0.168,0.314 0.168,0.648 v 4.056 c 0,0.354 -0.055,0.577 -0.168,0.67 C -2.013,-0.058 -2.212,-0.006 -2.494,0 V 0.173 L 0,0.173 V 0"
             style="fill:#231f20;fill-opacity:1;fill-rule:nonzero;stroke:none"
             id="path86" />
        </g>
        <g
           id="g88"
           transform="translate(314.1128,337.1953)">
          <path
             d="M 0,0 C 0.366,0 0.605,0.062 0.716,0.184 0.818,0.3 0.865,0.511 0.859,0.822 v 4.06 C 0.865,5.212 0.814,5.432 0.707,5.543 0.596,5.646 0.359,5.702 0,5.708 V 5.881 H 2.629 V 5.708 C 2.318,5.714 2.097,5.668 1.965,5.569 1.829,5.465 1.762,5.236 1.762,4.882 V 0.822 C 1.756,0.473 1.82,0.252 1.956,0.157 2.028,0.1 2.12,0.063 2.231,0.046 2.338,0.021 2.471,0.006 2.629,0 V -0.173 H 0 V 0"
             style="fill:#231f20;fill-opacity:1;fill-rule:nonzero;stroke:none"
             id="path90" />
        </g>
        <g
           id="g92"
           transform="translate(322.2246,339.1333)">
          <path
             d="m 0,0 c -0.044,0.371 -0.133,0.612 -0.27,0.722 -0.14,0.111 -0.376,0.159 -0.704,0.147 l -1.285,0.018 v -2.003 c -0.007,-0.329 0.049,-0.543 0.168,-0.649 0.115,-0.109 0.327,-0.167 0.636,-0.173 v -0.173 h -2.476 v 0.173 c 0.328,0.006 0.54,0.073 0.635,0.201 0.094,0.117 0.139,0.357 0.132,0.723 v 3.958 c 0,0.354 -0.055,0.577 -0.167,0.67 -0.117,0.097 -0.318,0.15 -0.6,0.156 V 3.943 H 0.792 L 0.82,2.635 H 0.587 C 0.54,3.038 0.425,3.3 0.24,3.421 0.051,3.542 -0.284,3.602 -0.764,3.596 h -1.213 c -0.107,0 -0.182,-0.015 -0.222,-0.045 -0.04,-0.045 -0.06,-0.134 -0.06,-0.267 V 1.256 h 1.285 C -0.622,1.25 -0.381,1.311 -0.252,1.439 -0.118,1.562 -0.035,1.789 0,2.123 H 0.203 L 0.203,0 H 0"
             style="fill:#231f20;fill-opacity:1;fill-rule:nonzero;stroke:none"
             id="path94" />
        </g>
        <g
           id="g96"
           transform="translate(329.3682,337.0225)">
          <path
             d="m 0,0 h -4.802 v 0.173 c 0.281,0.007 0.48,0.064 0.599,0.175 0.111,0.098 0.167,0.314 0.167,0.647 v 4.06 c 0,0.354 -0.056,0.578 -0.167,0.671 -0.119,0.096 -0.318,0.149 -0.599,0.154 v 0.174 h 4.722 l 0.028,-1.308 h -0.233 c -0.047,0.402 -0.161,0.665 -0.348,0.786 -0.187,0.121 -0.522,0.18 -1.003,0.175 h -1.205 c -0.09,0 -0.16,-0.012 -0.212,-0.037 C -3.106,5.638 -3.132,5.545 -3.132,5.395 V 3.367 h 1.364 c 0.383,-0.007 0.635,0.058 0.754,0.192 0.072,0.071 0.123,0.163 0.152,0.273 0.035,0.109 0.059,0.243 0.07,0.402 H -0.59 V 2.111 H -0.792 C -0.833,2.47 -0.912,2.708 -1.031,2.824 -1.161,2.936 -1.407,2.986 -1.768,2.98 L -3.132,2.998 V 0.73 c -0.006,-0.091 0.003,-0.158 0.026,-0.2 0.018,-0.055 0.066,-0.095 0.144,-0.119 0.142,-0.049 0.528,-0.069 1.159,-0.063 0.547,-0.006 0.966,0.08 1.256,0.255 0.282,0.177 0.514,0.491 0.697,0.941 H 0.403 L 0,0"
             style="fill:#231f20;fill-opacity:1;fill-rule:nonzero;stroke:none"
             id="path98" />
        </g>
        <path
           d="m 202.211,347.973 h 127.523 v 0.3 H 202.211 Z"
           style="fill:#231f20;fill-opacity:1;fill-rule:nonzero;stroke:none"
           id="path100" />
        <g
           id="g102"
           transform="translate(297.8535,375.3218)">
          <path
             d="m 0,0 c 0.363,0 0.688,0.026 0.688,0.46 0,0.351 -0.318,0.416 -0.616,0.416 H -0.513 V 0 H 0 M -0.513,-1.59 H -0.94 v 2.829 h 1.076 c 0.67,0 1,-0.246 1,-0.805 0,-0.505 -0.317,-0.726 -0.733,-0.778 L 1.208,-1.59 h -0.48 l -0.747,1.227 h -0.494 z m 0.52,-0.754 c 1.178,0 2.107,0.923 2.107,2.176 0,1.232 -0.929,2.162 -2.107,2.162 -1.191,0 -2.12,-0.93 -2.12,-2.162 0,-1.253 0.929,-2.176 2.12,-2.176 m -2.444,2.175 c 0,1.38 1.121,2.397 2.444,2.397 1.31,0 2.429,-1.017 2.429,-2.397 0,-1.393 -1.119,-2.411 -2.429,-2.411 -1.323,0 -2.444,1.018 -2.444,2.411"
             style="fill:#231f20;fill-opacity:1;fill-rule:nonzero;stroke:none"
             id="path104" />
        </g>
      </g>
    </g>
  </g>
</svg>
