<svg xmlns="http://www.w3.org/2000/svg" xmlns:xlink="http://www.w3.org/1999/xlink" version="1.1" id="Lag_1" x="0px" y="0px" style="enable-background:new 0 0 140 120;" xml:space="preserve" viewBox="66.83 0.63 72.57 70.84">
<style type="text/css">
	.st0{fill:none;stroke:#222221;stroke-width:0.8556;}
	.st1{fill:#D4D7DA;}
	.st2{fill:none;stroke:#222221;stroke-width:0.2934;}
	.st3{fill:#EBD13D;}
	.st4{fill:#EAD140;}
	.st5{fill:none;stroke:#222221;stroke-width:0.1972;}
	.st6{fill:none;}
	.st7{fill:none;stroke:#222221;stroke-width:0.3178;}
	.st8{fill:#222221;}
</style>
<g>
	<path class="st0" d="M80.9,17.9c0,0-3.3-3-3.3-3.1c-2.4-2.9,1.7-6.2,4.4-3.3c0,0,2.2,2.7,2.2,2.7"/>
	<path class="st0" d="M84.8,15c-0.3-0.3-0.6-0.7-0.5-1.3c0.2-1.1,1.2-1.7,2.3-1.5c0.6,0.1,1.2,0.4,1.5,0.9"/>
	<path class="st0" d="M88.4,13.8c-0.2-0.3-0.5-0.7-0.4-1.1c0.2-1.1,1-1.3,1.9-1.2c0.6,0.1,1,0.6,1.2,1"/>
	<path class="st0" d="M91.6,13.3c-0.2-0.3-0.3-0.9-0.3-1c0-0.9,1-1.4,2-1.3c0.5,0,0.9,0.4,1.1,1.1"/>
	<path class="st0" d="M94.2,11.8c-0.1-0.5-0.4-1.4-0.1-1.8c0.7-1.1,2.3-1.1,3-0.1"/>
	<path class="st0" d="M97,9.7c-0.1-0.5-0.1-0.8,0.1-1.3c0.4-1,2-1.4,2.9-0.8c0.6,0.3,0.7,1,0.7,1.7"/>
	<path class="st0" d="M100.5,8.2c0,0-0.3-4.2-0.3-4.2c-0.2-3.9,5.4-3.9,5.2-0.1c0,0.1-0.3,4.7-0.3,4.8"/>
	<path class="st0" d="M105,9.5c0.3-3.4,5-2.3,4,1"/>
	<path class="st0" d="M108.9,10.7c0.5-2.5,4-1.9,2.9,1.1"/>
	<path class="st0" d="M111.8,11.9c0.3-1.6,3.5-0.9,2.6,1"/>
	<path class="st0" d="M114.6,12.6c0.9-2.1,4.4-0.9,3.1,1.4"/>
	<path class="st0" d="M117.8,13.7c1-2.3,4.9-0.6,3.4,1.8"/>
	<path class="st0" d="M121.6,15c0,0,2.7-3.4,2.7-3.4c2.6-3.1,6.9,1,4.4,3.4c0,0-3.7,3.3-3.7,3.3"/>
	<path class="st0" d="M124.5,18.6c1.7-1.5,4.3,1.4,2.1,3.1"/>
	<path class="st0" d="M126.3,21.9c1.6-0.6,3.3,1.9,1.4,3"/>
	<path class="st0" d="M127.5,24.9c1.7-0.5,2.7,2,1.2,2.8"/>
	<path class="st0" d="M128.4,27.8c0,0,0.2-0.1,0.3-0.1c2.2-0.8,3.5,2.1,1.6,2.9"/>
	<path class="st0" d="M130.5,30.7c2.7-0.5,3.5,3,0.6,3.3"/>
	<path class="st0" d="M131.6,33.9c0,0,4.4-0.1,4.4-0.1c3.8-0.1,3.4,5.2-0.1,5.1c0,0-4.1-0.5-4.2-0.5"/>
	<path class="st0" d="M131.5,38.3c2.3,0.5,1.4,4.2-1.5,3.6"/>
	<path class="st0" d="M129.8,41.8c1.8,0.8,0.4,3.7-1.8,2.8"/>
	<path class="st0" d="M127.2,44.3c2.4,0.8,1.4,3.8-1,3"/>
	<path class="st0" d="M126.5,47.6c2.1,0.9,0.8,4-1.2,2.8"/>
	<path class="st0" d="M125.8,50.7c2.2,1.6,0.8,4.5-1.7,2.9"/>
	<path class="st0" d="M124.7,54.1c0,0,3.8,3.6,3.9,3.6c2.2,2.4-1.8,6.5-4.5,3.2c0,0-2-2.6-2-2.6"/>
	<path class="st0" d="M121.7,57.7c1.4,2.1-2.1,3.6-3.4,1.3"/>
	<path class="st0" d="M118.2,58.9c0.7,2.1-2.2,2.5-3.3,0.6"/>
	<path class="st0" d="M114.9,59.3c0.5,2.4-2.5,3-3.1,1.2"/>
	<path class="st0" d="M111.9,60.7c0.9,2.1-2,3-2.7,1.7"/>
	<path class="st0" d="M109.2,62.4c0.4,2.2-2.7,3.8-3.7,1.4"/>
	<path class="st0" d="M105.6,64.2c0,0,0.3,3.4,0.3,3.4c0.4,4.6-6.4,4.6-6.2,0c0,0,0.2-3.8,0.2-3.9"/>
	<path class="st0" d="M100,63.1c-0.5,2.6-4.2,2.1-3.7-0.8"/>
	<path class="st0" d="M96.4,61.4c-0.5,2.6-3.9,1.2-3.2-1.3"/>
	<path class="st0" d="M93.3,60.1c-0.7,2-3.2,0.7-2.5-1.3"/>
	<path class="st0" d="M90.7,59c-1.5,2.8-4,1-3.2-0.8"/>
	<path class="st0" d="M87.5,58.2c-1.9,3-4.3,1-3.2-0.9"/>
	<path class="st0" d="M84.1,57.6c0,0-2.1,2.5-2.2,2.6c-2.3,2.8-6.7-1.2-3.9-3.9c0,0,3.3-2.7,3.3-2.7"/>
	<path class="st0" d="M81.7,53.4c-1.7,0.9-3.6-1.9-1.6-3.3"/>
	<path class="st0" d="M80.2,50c-1.8,0.7-3-1.9-1-3"/>
	<path class="st0" d="M79,47c-1.5,0.8-2.2-2.1-0.9-2.9"/>
	<path class="st0" d="M77.9,44.2c-2.6,0.7-4-2.3-1.1-2.9"/>
	<path class="st0" d="M75.8,41.5c-2.6,0.8-3.8-2.6-1.1-3.1"/>
	<path class="st0" d="M74.3,38.6c0,0-4,0.2-4.1,0.2c-4.1,0.1-3.7-5.3-0.1-5.1c0,0,4.2,0.3,4.2,0.3"/>
	<path class="st0" d="M74.8,34.1c-2.1-0.4-1.5-3.9,1.2-3.4"/>
	<path class="st0" d="M76.2,30.6c-1.8-1-0.3-3.5,1.8-2.8"/>
	<path class="st0" d="M78.5,28c-2.3-0.9-1.2-3.7,0.8-3.3"/>
	<path class="st0" d="M79.1,24.6c-2.5-1.2-0.7-3.9,0.8-3.1"/>
	<g>
		<path class="st0" d="M79.8,21.4c-2.3-1.5-0.6-4.9,1.7-3.1"/>
	</g>
	<g>
		<g>
			<path class="st1" d="M78.6,15.8c0.2,0.1,0.3,0.3,0.5,0.5C79,16.1,78.8,16,78.6,15.8z"/>
			<path class="st1" d="M78.6,15.8c-0.1-0.1-0.2-0.2-0.3-0.3C78.4,15.6,78.5,15.7,78.6,15.8z"/>
			<path class="st1" d="M138.7,36.2c0.1-0.2-0.2-0.8-0.2-0.8c-0.1-0.6-0.6-1-1.1-1.3c-0.8-0.5-1.6-0.3-2.5-0.3     c-0.9,0-2.4,0.1-3.3,0.1c-0.1,0,0.6-0.5,0.7-0.6c0.3-0.1,0.4-0.4,0.5-0.8c0-0.3,0-0.8-0.2-1.1c-0.3-0.3-0.6-0.5-1-0.7     c-0.3-0.2-0.9,0-1.3,0c-0.1,0,0-0.2,0.3-0.3c0.6-0.3,0.7-1.7,0.2-2.1c-0.8-0.8-1.1-1-1.9-0.7c-0.1,0,0.2-0.2,0.3-0.3     c0.2-0.5,0.3-1.4-0.1-1.7c-0.4-0.4-1.3-0.7-1.5-0.7c0.3-0.2,0.9-0.8,0.9-1.1c0-0.4-0.2-0.8-0.3-1.2c-0.1-0.3-0.4-0.5-0.7-0.6     c-0.3-0.1-0.5-0.1-0.8-0.3c-0.3-0.2,0-0.1,0.2-0.2c0.6-0.7,0.8-0.5,0.5-2c0,0.1-0.7-0.9-0.6-0.8c-0.5-0.2-1.3-0.4-1.7-0.5     c0.6-0.5,1.5-1.1,1.9-1.6c0.6-0.6,1.2-1.1,1.8-1.6c0.2-0.2,0.3-0.4,0.4-0.6c0.2-0.3,0.3-0.7,0.3-1.1c0-0.2-0.1-0.3,0-0.5     c-0.1-0.3-0.3-0.6-0.4-0.9c-0.4-0.6-1-1-1.6-1.3c-2.8-1.4-4.3,3-6,4.4c-0.1,0,0.1-0.6,0.1-0.6c0.1-0.4-0.6-1.2-0.7-1.3     c-0.8-0.8-1.2-0.6-1.6-0.6l-1.2,0.5c0,0-0.1,0-0.1-0.2c0-0.7-0.5-1-1.2-1.2c-1.1-0.3-1.5,0.3-2.1,0.6c-0.1,0-0.1-0.4-0.1-0.4     c-0.3-0.4-0.7-0.5-1.1-0.7c-0.5-0.2-0.9,0.1-1.3,0.2c-0.1,0,0-0.4,0-0.5c0.1-0.7-0.4-1.3-0.9-1.6c-0.3-0.1-0.8,0-1.1,0.1     c-0.3,0.1-0.6,0.4-0.8,0.7c-0.1,0.1-0.2-0.4-0.2-0.5c0.1-0.9-0.7-1.5-1.4-1.9c-0.4-0.2-0.9-0.2-1.3-0.1c-0.5,0.1-1,0.5-1.2,0.9     c0,0.1,0-0.3,0-0.4c-0.1-0.5,0.1-0.9,0.1-1.4c0.1-1.4,0.5-2.9-0.2-4.2c-0.2-0.4-0.7-0.8-1.1-1c-0.5-0.3-1-0.1-1.5-0.2     c0,0-0.5,0.1-0.5,0.1c-0.7,0.5-0.5,0.3-0.9,0.6c-0.5,0.4-0.7,0.9-0.7,1.5c0,0.8-0.1,1.5,0,2.3c0.1,0.6,0.2,1.7,0.2,2.4     c0,0.1-0.3-0.1-0.3-0.2c-0.3-0.3-0.8-0.5-1.2-0.5c-0.3-0.1-0.6-0.1-0.9,0.1c-0.7,0.4-1.1,0.9-1.2,1.6c0,0.1,0.1,0.5,0.1,0.5     c-0.3-0.2-1.1-0.3-1.5-0.3c-0.3,0-0.9,0.2-1.1,0.4c-0.5,0.5-0.2,0.7-0.3,1.3c0,0.1,0.1,0.6,0,0.5c-0.4-0.4-1.1-0.6-1.6-0.5     c-0.5,0.1-1.4,0.8-1.3,1.3c0.1,0.7,0,0,0,0c-0.3-0.3-0.6-0.6-1-0.8c-0.2-0.1-0.4,0-0.6-0.1c-1.1,0.3-1.6,1-1.4,1.7     c0.1,0.4-0.5-0.9-1.8-0.9c-1,0-1.8,0.4-2,1.9c0,0.1-1.5-1.7-1.4-1.7l-0.5-0.7c-0.7-0.6-0.5-0.8-1.5-1.2c-0.5-0.2-0.8-0.2-1.4-0.2     c-0.5,0.1-1.7,0.6-2,1c-0.3,0.4-0.1,0.4-0.3,0.7c0,0-0.1,0.4-0.1,0.4c0,0.7,0,1,0.1,1.5c0.1,0.4,3.7,3.6,4,4     c-0.1-0.1-0.3-0.3-0.7-0.6c0.1,0.2,0.6,0.5,0.5,0.5c-0.2-0.1-0.9,0-1.1,0c-0.7,0.1-1,0.6-1,1.2c0,0.4,0,0.7,0,1.1     c0.1,0.3,0.2,0.5,0.4,0.7c0.1,0.1,1.1,0.9,0.6,0.6c-0.6-0.4-1.7,0.7-1.8,1.2c0,0.4,0,0.4,0.1,0.8c0.1,0.3,0.2,0.6,0.5,0.8     c0.1,0.1,0.5,0.3,0.4,0.3c-0.1-0.1-1,0.5-1.2,0.5c-0.6,0.8-0.6,1.4-0.3,2.1c0,0.1,0.3,0.5,0.2,0.5c-0.4-0.1-0.8,0.1-1.2,0.3     c-0.1,0.1-0.4,0.3-0.5,0.3c0,0-0.2,0.4-0.3,0.4c-0.2,0-0.3,0.5-0.1,0.5c0,0-0.1,0-0.1,0l0.1,0.8c0.2,0.3,0.5,0.5,0.5,0.5     c-0.7,0.1-2,0.4-2.2,1.1c-0.1,0.3-0.2,1.2-0.2,1.5c0,0.2,0.1,0.3,0.2,0.4c0.1,0.1,0.3,0.2,0.4,0.3c0,0,0,0,0.1,0l0,0.1     c-0.5,0-2.3-0.2-2.3-0.1c0,0-2.4-0.2-2.4-0.1c-0.1,0-1.4,0.6-1.5,0.7c-2.3,3.5,1,4.3,1,4.4c0,0.3,5-0.3,5-0.1l-0.8,0.8     c0,0,0,0.3,0,0.3c0,0.1-0.1,0.2-0.1,0.2c0,0.1,0,0.2,0,0.2c0,0.2,0.1,0.6,0.1,0.6l0.3,0.3c0,0,0,0,0,0c0.3,0.1,0.4,0.5,0.7,0.6     c0.3,0.1,0.7,0.2,1,0.1c0.1,0,0.5,0.1,0.4,0.2c-1.4,1.5,0.8,2.7,1.9,2.6c0.1,0,0.2,0,0.1,0c-0.3,0.5-0.3,0.9-0.2,1.5     c0.1,0.6,0.3,1.1,0.9,1.2c0.1,0,0.4,0.1,0.4,0.1c-0.3,0.5-0.9,1.2-0.4,2c0.3,0.5,0.5,0.8,1.1,1c0,0,0.2-0.1,0.3-0.1     c0.1,0,0.3,0,0.2,0c-1.3,0.6-0.8,3.3,0.8,3.3c0.1,0,0.7,0.1,0.6,0.2c-0.3,0.3-0.8,0.8-1.2,1c-0.9,0.7-2,1.2-2.5,2.2     c-0.2,0.3-0.3,0.7-0.4,1.2c0,1.3,1,2.4,2.1,2.8c1,0.4,2,0.1,2.7-0.7c0.7-0.7,1-1.7,1.9-2.2c0.1-0.1,0.1,0,0.1,0.1     c0,0.7,0.6,1.6,1.3,1.7c0.6,0.1,1.4-0.3,1.8-0.9c0.1-0.1,0.2-0.2,0.2-0.1c0.2,0.7,0.7,1.9,1.5,1.7c0.3-0.1,0.7-0.2,1-0.3     c0.2-0.2,0.4-0.3,0.7-0.7c0-0.1,0.2-0.3,0.2-0.2c0,1.4,0.8,2.1,2.1,1.7c0.1,0,0.5-0.5,0.5-0.5c-0.2,0.8,0.5,1.8,1.2,2.2     c0.7,0.3,1.1,0,1.7-0.4c0.1,0,0.2,0,0.2,0.1c0.1,0.4,0,0.7,0.1,1.1c0.1,0.4,0.4,0.8,0.8,0.9c0.5,0.2,1.1,0.4,1.6,0.2     c0.5-0.2,0.5-0.3,0.9-0.8c0.1-0.1,0.3-0.2,0.3-0.1c-0.1,0.9-0.1,1.6-0.1,2.5c-0.1,1-0.2,2,0.2,2.9c0.3,0.6,0.8,1.1,1.4,1.5     c0,0,0,0,0.1,0c0.2,0,0.3,0.1,0.5,0.2l1.5,0.2c0,0,0-0.1,0.1-0.1c0.3,0,0.6-0.2,1-0.3c0,0,0-0.1,0.1-0.1c0.1,0,0.1-0.1,0.2-0.1     c0.4-0.2,0.7-0.5,0.9-1c0.3-0.7,0.2-1.6,0.2-2.3c0-0.3,0-0.7-0.1-1c0-0.4-0.1-0.7-0.1-1.1c0-0.2-0.1-0.6,0.1-0.7     c0.2-0.1,0.4,0.6,0.7,0.7c0.4,0.1,1.2,0.1,1.6-0.1c0.4-0.1,0.8-0.6,1-1c0.3-0.5,0-1.4,0.6-1.1c0.8,0.3,1.1,0.1,1.5,0.1     c0.2,0,0.4-0.3,0.6-0.5c0.2-0.1,0.2-0.4,0.3-0.6c0-0.3,0.2-0.8,0.4-0.5c0.3,0.3,0.7,0.2,1,0.3c0.4,0,0.8-0.3,1.1-0.5     c0.4-0.3,0.6-0.8,0.6-1.3c0-0.1-0.1-0.2,0-0.1c1,1,1.5,1.2,2.1,1.1c1.4-0.4,1-1.1,1.2-1.2c0.1,0-0.1-0.2,0-0.1     c0.5,0.5,1.8,0.9,2.5,0.7c0.8-0.2,1.2-0.8,1.3-1.5c0-0.1,0.2-0.1,0.2,0c0.5,0.6,0.9,1.2,1.4,1.9c0.2,0.3,0.5,0.7,0.8,0.9     c0,0,0.1,0.2,0.1,0.2c0.2,0.2,0.4,0.3,0.7,0.4c0.1,0,0.2,0,0.3,0.1c0,0,0,0,0.1,0c0.3,0.1,0.6,0.1,1,0c0.7-0.1,1.3-0.5,1.7-1     c0.3-0.3,0.4-0.6,0.6-0.9c0.1-0.3,0.1-0.5,0.2-0.7c0.1-0.5,0.1-0.7-0.2-1.1c-0.5-0.8-1.2-1.4-2-2c-0.7-0.5-1.5-1.3-2.1-2     c-0.1-0.1-0.5-0.3-0.4-0.3c0.8,0,1.7,0.2,2-0.5c0.3-0.7,0.5-0.6,0.2-1.4c-0.1-0.4-0.8-1.3-1.2-1.5c-0.1-0.1,0.4,0,0.5,0     c0.3,0,0.8-0.3,1.1-0.5c0.5-0.3,0.3-1,0.3-1.3c0.1-0.6-0.7-1-1.2-1.4c-0.1-0.1,0.6,0.1,0.7,0.1c0.5,0,1.2-0.4,1.5-0.9     c0.5-0.9-0.2-1.4-0.3-1.9c0-0.1,0.1,0,0.1,0c0.2,0,0.5,0,0.8,0c0,0,0.2-0.1,0.2-0.1c0.5-0.2,0.1-0.1,0.6-0.3     c0.5-0.1,0.6-1.2,0.6-1.5c0-0.3-0.4-0.6-0.5-0.9c0-0.1,0.6,0,0.7,0c0.5-0.1,0.9-0.2,1.3-0.5c0.4-0.3,0.5-0.7,0.7-1.1     c0,0,0.1-0.3,0.1-0.3c0.1-0.6-0.3-1.2-0.6-1.7c-0.1-0.1,0.1,0.1,0.2,0.1c0.4,0,0.6,0.1,1,0.1c0.8,0.1,1.1,0.2,1.9,0.2     c0.3,0,0.7,0.1,1,0.1c0.3-0.1,0.4,0,0.6-0.1c0.5-0.3,1.2-0.6,1.5-1.1C138.7,37,138.6,36.9,138.7,36.2z"/>
			<path class="st1" d="M69.1,38.7L69.1,38.7C69.1,38.7,69.1,38.7,69.1,38.7z"/>
			<path class="st1" d="M80.4,17.4C80.4,17.4,80.4,17.4,80.4,17.4C80.4,17.4,80.4,17.4,80.4,17.4z"/>
		</g>
	</g>
	<path class="st2" d="M90.2,26.3c0,0-9.5-8.7-9.8-9c-0.9-0.9-2.8-2.6-2.8-2.6c-2.4-2.9,1.7-6.2,4.4-3.3c0,0,1.3,1.6,1.9,2.3   c0.2,0.2,10.3,12.9,10.3,12.9"/>
	<path class="st2" d="M94.1,26.7c0,0-9.4-11.7-9.4-11.7c-0.2-0.3-0.4-0.7-0.4-1.1c0.2-1.1,1.2-1.7,2.3-1.5c0.3,0.1,0.9,0.3,1.2,0.7   c0.2,0.2,7.9,12.7,8,13"/>
	<path class="st2" d="M95.8,26c-0.1-0.1-7.6-12.4-7.6-12.5C88.1,13.3,88,13,88,12.7c0.2-1.1,1-1.3,1.9-1.2c0.5,0.1,0.9,0.4,1.1,0.8   c0.1,0.1,6.4,13.5,6.4,13.6"/>
	<path class="st2" d="M97.5,25.9c-0.1-0.1-6.1-12.8-6.1-13c-0.1-0.3-0.2-0.6-0.2-0.6c0-0.9,1-1.4,2-1.3c0.2,0,0.5,0.1,0.7,0.3   c0.1,0.1,0.2,0.3,0.3,0.5c0,0.1,4.9,14.2,5,14.4"/>
	<path class="st2" d="M99.1,26.2c0-0.1-5-14.5-5-14.7c-0.1-0.5-0.3-1.2,0-1.5c0.6-0.9,2.1-0.9,2.9-0.4c0.2,0.1,3.2,14.5,3.4,14.7"/>
	<path class="st2" d="M100.2,24.1C100.2,24,97,9.6,97,9.5c-0.1-0.4,0-0.7,0.1-1.1c0.4-1,2-1.4,2.9-0.8c0.5,0.3,0.6,0.7,0.7,1.3   c0,0.1,0.8,13.8,0.9,13.9"/>
	<path class="st2" d="M101.5,22.8c0,0-0.9-14.7-1-14.9c-0.1-1-0.3-3.8-0.3-3.9c-0.2-3.9,5.4-3.9,5.2-0.1c0,0-0.2,2.7-0.3,4   c0,0,0,0.1,0,0.1c0,0.4-1.1,14.7-1.1,14.7"/>
	<path class="st2" d="M104.1,22.8c0-0.1,1-13.6,1-13.7c0.5-2.5,3.8-1.9,4.1,0.3c0,0.3,0,0.6-0.1,0.9c0,0.1-3.7,15.8-3.7,15.8"/>
	<path class="st2" d="M105.3,26.1c0-0.1,3.7-15.6,3.7-15.7c0.6-1.9,3.3-1.6,3,0.6c0,0.2-4.8,14.5-4.9,14.8"/>
	<path class="st2" d="M107,26.1c0-0.1,4.8-14.3,4.9-14.4c0.4-1,2.3-0.8,2.7,0.3c0.1,0.2,0.1,0.4,0,0.6c0,0.1-5.3,12.9-5.4,13"/>
	<path class="st2" d="M109.2,25.5c0-0.1,5.4-13,5.5-13.1c0.7-1.2,2.3-1.1,3-0.3c0.3,0.4,0.5,0.9,0.2,1.6c0,0.1-6.8,12.2-6.8,12.2"/>
	<path class="st2" d="M111,25.9c0-0.1,6.9-12.4,7-12.5c1.1-1.8,4.3-0.4,3.5,1.7c0,0.1-9,11.3-9,11.5"/>
	<path class="st2" d="M112.4,26.6c0,0,9.3-11.7,9.5-11.9c0.7-0.9,2.5-3.1,2.5-3.1c2.6-3.1,6.9,1,4.4,3.4c0,0-2.5,2.2-3.4,3   c-0.2,0.2-9.8,8.7-9.8,8.7"/>
	<path class="st2" d="M115.3,26.8c0.1-0.1,9.4-8.3,9.5-8.4c1.6-1,3.8,1.5,2,3.1c-0.1,0-9.2,5.8-9.3,5.8"/>
	<path class="st2" d="M117.5,27.3c0.1-0.1,8.6-5.4,8.7-5.4c0.1,0,0.1,0,0.2-0.1c0.1,0,0.1,0,0.2,0c1.5-0.3,2.8,1.8,1.4,2.9   c-0.4,0.3-9.6,4.3-9.3,4.2"/>
	<path class="st2" d="M118.8,28.7c0.1,0,9-3.9,9.1-3.9c1.4-0.1,2.2,1.9,1,2.8c0,0-9.7,3.1-9.8,3.1"/>
	<path class="st2" d="M119.1,30.7c0,0,9.6-3,9.7-3c0,0,0.1,0,0.1,0c0,0,0,0,0.1,0c0,0,0.1,0,0.1,0c0.1,0,0.2,0,0.3,0   c1.7-0.1,2.5,2.1,1.2,3c-0.1,0.1-11.6,2-11.7,2"/>
	<path class="st2" d="M118.8,32.6c0.1,0,11.8-2,11.9-2c2.5-0.3,3.2,2.8,0.7,3.3c-0.1,0-12.1,0.4-12.2,0.4"/>
	<path class="st2" d="M119,34.3c0,0,12.8-0.4,13.1-0.4c1.1,0,3.9-0.1,4-0.1c3.8-0.1,3.4,5.2-0.1,5.1c0,0-2.9-0.3-3.8-0.4   c-0.2,0-13.9-1.7-13.9-1.7"/>
	<path class="st2" d="M118.2,36.7c0.1,0,13.5,1.6,13.6,1.6c2,0.7,1,4-1.6,3.5c0,0-13.3-3.2-13.3-3.2"/>
	<path class="st2" d="M117.1,38.6c0.1,0,12.8,3.2,12.8,3.2c1.5,0.8,0.3,3.4-1.7,2.8c-0.1,0-11.9-4.4-12-4.4"/>
	<path class="st2" d="M116.3,40.3c0.1,0,11.1,4.1,11.2,4.1c2.1,0.9,1.1,3.6-1.2,3c0,0-11.5-6-11.6-6"/>
	<path class="st2" d="M114.5,41.3c0.1,0,12.2,6.3,12.2,6.4c1.8,1,0.6,3.6-1.2,2.9c-0.1,0-10.6-7.1-10.6-7.1"/>
	<path class="st2" d="M114.9,43.4c0.1,0.1,11.1,7.5,11.2,7.6c1.7,1.6,0.5,4-1.7,2.8c-0.1,0-9.8-8.9-9.9-8.9"/>
	<path class="st2" d="M114.5,44.8c0,0,10.3,9.4,10.4,9.5c0.7,0.7,3.7,3.4,3.7,3.4c2.2,2.4-1.8,6.5-4.5,3.2c0,0-1.6-2-1.9-2.5   c0-0.1-8.9-11.4-8.9-11.4"/>
	<path class="st2" d="M113.2,46.9c0,0.1,8.6,10.9,8.6,11c0.9,1.7-1.4,3-2.9,1.8c-0.2-0.2-0.4-0.3-0.5-0.6c0,0-6.7-11.4-6.8-11.5"/>
	<path class="st2" d="M111.6,47.6c0,0,6.6,11.3,6.6,11.4c0.6,2-2.2,2.3-3.2,0.6c0,0-5.5-11.4-5.5-11.5"/>
	<path class="st2" d="M109.6,48.1c0,0.1,5.4,11.4,5.4,11.5c0.1,1.8-2,2.4-2.9,1.4c-0.1-0.1-0.2-0.2-0.2-0.4c0-0.1-4.1-11-4.1-11.1"/>
	<path class="st2" d="M107.8,49.8c0,0,4.2,11,4.2,11c0.7,1.9-1.7,2.7-2.6,1.8c-0.1-0.1-1-2.7-1.1-2.8"/>
	<path class="st2" d="M108.2,59.9c0,0.1,0.9,2.7,1,2.7c0.2,2.1-2.6,3.5-3.6,1.4c0-0.1-1.5-15.2-1.5-15.3"/>
	<path class="st2" d="M104,48.7c0,0,1.5,15.6,1.6,15.7c0.1,0.8,0.3,3.1,0.3,3.1c0.4,4.6-6.4,4.6-6.2,0c0,0,0.1-2.5,0.2-3.5   c0-0.2,1-15.3,0-0.4"/>
	<path class="st2" d="M100.9,48.7c0,0.1-1,14.5-1,14.5c-0.7,2.2-3.8,1.8-3.7-0.7c0-0.1,2.8-13.8,2.8-13.9"/>
	<path class="st2" d="M99.1,48.7c0,0.1-2.7,12.8-2.7,12.9c-0.6,2.2-3.6,1.1-3.2-1.2c0-0.1,4.1-11.2,4.1-11.3"/>
	<path class="st2" d="M97.3,49.1c0,0.1-4.1,11.2-4.1,11.2c-0.7,1.7-2.9,0.6-2.6-1.1c0-0.1,5.1-10.2,5.1-10.3"/>
	<path class="st2" d="M95.7,48.9c0,0.1-5.1,10.3-5.1,10.3c-1.4,2.4-3.6,1-3.2-0.6c0-0.1,7.2-10.8,7.2-10.9"/>
	<path class="st2" d="M94.6,47.6c0,0.1-7.2,10.7-7.2,10.7c-1.6,2.4-3.8,0.9-3.4-0.6c0.1-0.2,8.7-10.5,8.9-10.7"/>
	<path class="st2" d="M92.9,47.1c0,0-5.4,6.4-8.6,10.3C82.9,59,82,60.2,82,60.2c-2.3,2.8-6.7-1.2-3.9-3.9c0,0,13.1-10.6,13.1-10.6"/>
	<path class="st2" d="M91.2,45.7c-0.1,0-9.7,7.8-9.8,7.8c-0.2,0.1-0.3,0.1-0.5,0.1c-1.4-0.1-2.5-2.1-1-3.4c0,0,11-6.4,11.1-6.5"/>
	<path class="st2" d="M91,43.8c-0.3,0.1-11.2,6.5-11.4,6.5c-1.2-0.1-2-1.9-0.8-3c0.1-0.1,11.7-5.3,11.9-5.4"/>
	<path class="st2" d="M90.6,41.8c-0.1,0-11.7,5.2-11.7,5.2c-1.3,0.5-1.8-1.7-1-2.7c0.1-0.1,11.5-4.1,11.6-4.1"/>
	<path class="st2" d="M89.4,40.3c-0.3,0.1-11.8,4.1-12.1,4.2c-2.1,0-3.1-2.4-0.8-3.1c0.1,0,12.4-2.5,12.5-2.6"/>
	<path class="st2" d="M89.2,38.7c-0.1,0-13.6,2.9-13.7,2.9c-2.1,0.4-3.2-1.9-1.7-2.8c0.2-0.1,0.4-0.2,0.7-0.3   c0.1,0,13.2-0.9,13.3-0.9"/>
	<path class="st2" d="M88,37.6c0,0-13.8,1-13.9,1c0,0-0.1,0-0.1,0c-1,0.1-3.7,0.2-3.7,0.2c-4.1,0.1-3.7-5.3-0.1-5.1   c0,0,2.8,0.2,3.8,0.2c0.2,0,12.5,0.9,12.5,0.9"/>
	<path class="st2" d="M86.1,34.9C86,34.8,74.7,34,74.6,34c-1.6-0.6-1.3-3.2,0.7-3.4c0.1,0,0.4,0,0.6,0c0.1,0,10.8,2.7,10.9,2.7"/>
	<path class="st2" d="M86.9,33.4c-0.1,0-10.9-2.8-11-2.9c-1.3-1-0.1-3.1,1.6-2.9c0.1,0,8.5,3.4,8.6,3.5"/>
	<path class="st2" d="M86.3,31.1c-0.1,0-8-3.3-8.1-3.3c-1.7-1-0.8-3.2,0.8-3.3c0.1,0,7.7,4.4,7.8,4.4"/>
	<path class="st2" d="M87,29.2c-0.1-0.1-8.2-4.7-8.3-4.8c-1.7-1.1-0.4-3.1,0.9-3c0.2,0,9,6.3,9.1,6.4"/>
	<path class="st2" d="M88.8,27.8c-0.1,0-9.1-6.4-9.1-6.5c-0.1-0.1-0.2-0.1-0.3-0.2c-1.6-1.5-0.3-4.1,1.7-3.1c0.1,0.1,9,8.2,9.1,8.3"/>
	<g id="XMLID_1_">
		<path class="st3" d="M122.4,23.4c0.6,0,2.7,2.7,3.1,3.7c-0.6-0.1-2.6-0.3-2.7-0.1c-0.2,0.7-1,2.8-1,2.7c-0.6-1.1-3.7-3.6-4.1-4.1    c-0.5-0.5-0.7-0.9-0.5-1c0.2-0.2,0.8,0,1.8,0.7c0.8,0.6,1.2,0.7,1.1,0.3C120,25.7,121.5,24.3,122.4,23.4z"/>
		<path class="st3" d="M122.9,22.8c-0.1,0.2-0.3,0.4-0.5,0.6l-2.3,2.7l-2.8-1.6l0.3-0.7l0.3-0.5l-2.2-1.2l-2.4-1.1l-4.8-1.9    l-0.2-0.2l3.8-3.1C112.8,16.3,122.6,19.9,122.9,22.8z"/>
		<path class="st3" d="M112.2,15.9L112.2,15.9C112.2,15.9,112.2,15.9,112.2,15.9C112.2,15.9,112.2,15.9,112.2,15.9z"/>
		<path class="st4" d="M112.2,15.6c0,0.1,0,0.2-0.1,0.3c-0.4,1.1-1.5,2.9-1.6,2.9c0,0,0,0,0,0c-0.1-0.2-0.6-0.4-1.5-0.7    c-0.1,0-0.3-0.1-0.5-0.1c-2.3-0.5-7.3-1.2-12.2,0.1c-0.3,0.1-0.7,0.2-1,0.3c-0.4,0.1-0.5,0.3-0.5,0.5c-0.2,0.2-1.1-1.6-1.4-2.8    c-0.1-0.4-0.1-0.7,0-0.9C95.3,12.3,110.4,11.5,112.2,15.6z"/>
		<path class="st3" d="M110.5,18.7C110.5,18.7,110.5,18.7,110.5,18.7C110.5,18.7,110.5,18.7,110.5,18.7z"/>
		<path class="st3" d="M110.4,19.1l-1.9-0.1l0.1-1.1c0.2,0,0.3,0.1,0.5,0.1C110.3,18,110.3,18.9,110.4,19.1z"/>
		<path class="st3" d="M108.5,17.9l-0.1,0.8h-0.1C108.4,18.5,108.4,18.5,108.5,17.9z"/>
		<path class="st3" d="M108.4,18.7l0,0.3c0,0,0,0,0,0C108.4,18.9,108.4,18.8,108.4,18.7C108.4,18.7,108.4,18.7,108.4,18.7z"/>
		<path class="st3" d="M108.4,19L108.4,19C108.4,19.1,108.4,19,108.4,19C108.4,19,108.4,19,108.4,19z"/>
		<polygon class="st3" points="96.7,18.5 96.7,18.7 96.7,18.7 96.6,18   "/>
		<path class="st3" d="M96.6,18l0.2,1.1h-1.9l0-0.4c0-0.2,0.1-0.3,0.5-0.5c0.3-0.1,0.7-0.2,1-0.3L96.6,18z"/>
		<path class="st3" d="M93.4,16l3.3,3.1l0.1,0.4l-0.6,0.4L95.5,20l-0.7,0.2l-3.1,0.9l-4.1,2.2l-3.8,0c-0.3-0.3-0.5-0.5-0.5-0.6    C83.5,20.7,85.1,18.7,93.4,16z"/>
		<path class="st3" d="M88.9,24.3L88.9,24.3l-0.6-1h0C88.6,23.6,88.9,24.1,88.9,24.3z"/>
		<path class="st3" d="M88.9,24.3c0.2,0.2,0,0.6-0.7,1.1c-1,0.6-4.8,3-4.8,3.7c-0.1-0.6-0.1-2.6-0.3-2.6c-0.7,0-2.9,0.2-2.8,0.1    c1-1.9,2.5-2.9,3.5-3.3h0c0.7,0.7,1.9,1.7,2.1,2l0,0c0,0.2,0.5,0.1,1.6-0.7C88.1,24.1,88.7,24.1,88.9,24.3z"/>
		<path class="st3" d="M88.3,23.3L88.3,23.3L88.2,23C88.2,23.1,88.3,23.2,88.3,23.3z"/>
		<path class="st3" d="M88.3,23.3h-0.6c0.1-0.1,0.3-0.2,0.4-0.3L88.3,23.3z"/>
		<path class="st3" d="M87.5,23.3h0.2c-0.2,0.1-0.3,0.2-0.4,0.3L87.5,23.3z"/>
		<path class="st3" d="M85.7,21.2l1.6,2.4l0,0c0,0,0,0,0,0c-0.9,0.8-1.4,1.4-1.4,1.7c-0.2-0.3-1.5-1-2.2-1.8L85.7,21.2z"/>
		<path class="st3" d="M88.4,23.4l0.5,0.9c-1.3,0.2-3.2,1.9-3.2,1.9l-1-0.2c0-0.3,1.3-1.5,2.4-2.3C87.1,23.6,86.8,22.2,88.4,23.4z"/>
	</g>
	<path class="st2" d="M122.4,23.4c0.6,0,2.7,2.7,3.1,3.7c-0.6-0.1-2.6-0.3-2.7-0.1c-0.2,0.7-1,2.8-1,2.7c-0.6-1.1-3.7-3.6-4.1-4.1   c-1.2-1.1-0.5-1.6,1.3-0.3c1.2,0.8,1.5,0.7,0.6-0.6c-1.3-1.8-6.4-3.9-10.7-5.5c-0.9-0.2-0.5-0.6,0.9-0.4c1.2,0.1,1-0.4-0.8-0.8   c-2.2-0.6-8.1-1.6-13.6,0.2c-0.8,0.3-0.6,0.8,0.7,0.8c1.3-0.1,1.1,0.7-0.6,1c-3.3,0.6-7.3,3-8.2,3.6c-1.8,1.5-2.1,2.6,0.2,1   c1.1-0.8,2.3-0.3,0.7,0.8c-1,0.6-4.8,3.1-4.7,3.9c-0.2-0.4-0.2-2.8-0.3-2.8c-0.7,0-2.9,0.2-2.8,0.1c1-1.9,2.5-2.9,3.5-3.3"/>
	<path class="st2" d="M120,25.6c0,0.1,2.4-2.1,2.8-2.8c-0.3-3-11-6.9-10.7-6.9"/>
	<path class="st2" d="M110.5,18.7c0,0.2,1.4-2,1.7-3.2c-1.8-4-16.9-3.2-18.8-0.5c-0.4,0.4,1.3,3.9,1.5,3.6"/>
	<path class="st2" d="M93.4,16c-8.3,2.8-9.9,4.8-10.2,6.8c0,0.1,2.7,2.5,2.7,2.6"/>
	<path class="st2" d="M88.2,23c0.2,0.3,0.7,1,0.8,1.3"/>
	<path class="st2" d="M108.4,19.1c-0.1-0.7,0-0.3,0.1-1.2"/>
	<line class="st2" x1="117.1" y1="24.7" x2="118" y2="23.4"/>
	<polyline class="st2" points="96.8,19.1 96.7,18.5 96.6,18  "/>
	<g>
		<g>
			<path class="st5" d="M87.3,22.3c0.1,0.1,0.1,0.1,0.1,0.2c0,0,0.1,0.1,0.1,0.1c0,0,0.1,0,0.1,0c0,0,0.1,0,0.2,0c0,0,0,0.1,0.1,0.1     c-0.4,0.2-0.6,0.3-0.9,0.5c0,0,0-0.1-0.1-0.1c0.1-0.1,0.1-0.1,0.1-0.2c0,0,0-0.1,0-0.1c0,0-0.1-0.1-0.1-0.2     c-0.5-0.6-0.8-0.9-1.4-1.5c-0.1-0.1-0.2-0.1-0.2-0.2c0,0-0.1,0-0.1-0.1s-0.1,0-0.1,0c0,0-0.1,0-0.2,0.1c0,0-0.1,0-0.1-0.1     c0.4-0.3,0.7-0.5,1.2-0.8c0.4-0.2,0.7-0.3,1-0.3c0.3,0,0.6,0.1,0.8,0.3c0.1,0.1,0.2,0.3,0.2,0.4s0,0.3,0,0.4     c-0.1,0.1-0.1,0.2-0.3,0.3c-0.1,0.1-0.3,0.2-0.4,0.3c-0.2,0.1-0.3,0.2-0.4,0.2C87.1,21.9,87.2,22,87.3,22.3z M86.7,21.5     c0.1-0.1,0.2-0.1,0.3-0.2c0.2-0.1,0.3-0.2,0.4-0.3c0.1-0.1,0.1-0.2,0.1-0.3c0-0.1-0.1-0.2-0.2-0.4c-0.1-0.1-0.2-0.2-0.3-0.2     c-0.1,0-0.2-0.1-0.3-0.1c-0.1,0-0.2,0-0.3,0.1c-0.1,0-0.2,0.1-0.3,0.2c-0.2,0.1-0.3,0.2-0.3,0.2C86.1,20.9,86.3,21.1,86.7,21.5z"/>
		</g>
	</g>
	<g>
		<g>
			<path class="st5" d="M89,20.4c0.2,0.3,0.2,0.4,0.4,0.7c0.1,0.1,0.1,0.2,0.1,0.2c0,0,0.1,0.1,0.1,0.1c0,0,0.1,0,0.1,0     c0,0,0.1,0,0.2,0c0,0,0,0.1,0.1,0.1c-0.4,0.2-0.5,0.3-0.9,0.5c0,0,0-0.1-0.1-0.1c0.1-0.1,0.1-0.1,0.1-0.2c0,0,0-0.1,0-0.1     s-0.1-0.1-0.1-0.2c-0.4-0.7-0.6-1.1-1-1.8c-0.1-0.1-0.1-0.2-0.1-0.2c0,0-0.1-0.1-0.1-0.1c0,0-0.1,0-0.1,0c0,0-0.1,0-0.2,0     c0,0,0-0.1-0.1-0.1c0.5-0.2,0.7-0.4,1.1-0.6c0.4-0.2,0.7-0.2,0.9-0.2s0.5,0.2,0.6,0.4c0.1,0.2,0.1,0.4,0.1,0.6     c0,0.2-0.2,0.4-0.3,0.6c0,0,0,0,0,0c0.1,0,0.2,0,0.3,0c0.1,0,0.2,0.1,0.4,0.2c0.2,0.1,0.2,0.2,0.4,0.3c0.1,0.1,0.2,0.1,0.3,0.2     s0.1,0.1,0.2,0.1c0.1,0,0.1,0,0.2,0c0,0,0,0.1,0,0.1c-0.3,0.1-0.4,0.2-0.6,0.3c-0.1,0-0.2-0.1-0.3-0.2c-0.1-0.1-0.2-0.1-0.3-0.2     c-0.1-0.1-0.2-0.2-0.4-0.3c-0.1-0.1-0.2-0.1-0.3-0.2c-0.1,0-0.1,0-0.2-0.1c0,0-0.1,0-0.1,0c0,0-0.1,0-0.2,0.1     C89.2,20.3,89.1,20.3,89,20.4z M88.2,19c0.3,0.5,0.5,0.7,0.7,1.2c0.1,0,0.1-0.1,0.2-0.1c0.1-0.1,0.2-0.1,0.3-0.2s0.1-0.1,0.2-0.2     c0-0.1,0.1-0.2,0.1-0.3c0-0.1,0-0.2-0.1-0.3c-0.1-0.1-0.2-0.2-0.3-0.3c-0.1-0.1-0.2-0.1-0.3-0.1c-0.1,0-0.3,0-0.5,0.1     C88.4,18.9,88.3,18.9,88.2,19z"/>
		</g>
	</g>
	<g>
		<g>
			<path class="st5" d="M92.8,20.3c-0.2,0.1-0.3,0.1-0.5,0.1c-0.2,0-0.3,0-0.5-0.1c-0.2-0.1-0.3-0.2-0.4-0.4     c-0.1-0.2-0.3-0.4-0.4-0.6c-0.2-0.3-0.2-0.6-0.3-0.9c0-0.3,0.1-0.5,0.2-0.7c0.1-0.2,0.4-0.4,0.6-0.5c0.3-0.1,0.6-0.1,0.8-0.1     c0.3,0,0.5,0.2,0.7,0.4c0.2,0.2,0.4,0.5,0.5,0.8c0.1,0.3,0.2,0.7,0.1,0.9c0,0.3-0.1,0.5-0.3,0.7C93.3,20.1,93.1,20.2,92.8,20.3z      M91.4,19c0.2,0.4,0.4,0.7,0.7,0.9c0.2,0.2,0.5,0.2,0.7,0.1c0.2-0.1,0.3-0.2,0.4-0.3c0.1-0.1,0.1-0.3,0.1-0.5     c0-0.2-0.1-0.5-0.2-0.7c-0.1-0.3-0.3-0.6-0.4-0.8c-0.2-0.2-0.3-0.3-0.5-0.3c-0.2,0-0.3,0-0.5,0c-0.1,0.1-0.3,0.1-0.3,0.2     c-0.1,0.1-0.1,0.2-0.1,0.4c0,0.1,0,0.3,0,0.5C91.3,18.7,91.3,18.8,91.4,19z"/>
		</g>
	</g>
	<g>
		<g>
			<path class="st5" d="M95.6,16.3c0.1,0.3,0.2,0.4,0.3,0.7c0,0.1,0.1,0.2,0.1,0.2c0,0,0,0.1,0.1,0.1s0.1,0,0.1,0s0.1,0,0.2,0     c0,0,0,0.1,0,0.1c-0.4,0.1-0.5,0.2-0.9,0.3c0,0,0-0.1,0-0.1c0.1,0,0.1-0.1,0.1-0.1c0,0,0-0.1,0-0.1c0-0.1,0-0.1-0.1-0.2     c-0.3-0.7-0.4-1.1-0.8-1.8c0-0.1-0.1-0.2-0.1-0.2c0,0-0.1-0.1-0.1-0.1c0,0-0.1,0-0.1,0c0,0-0.1,0-0.2,0c0,0,0-0.1-0.1-0.1     c0.5-0.2,0.7-0.3,1.3-0.5c0.4-0.1,0.7-0.2,1-0.1c0.3,0.1,0.4,0.2,0.5,0.5c0.1,0.2,0.1,0.4,0,0.6c-0.1,0.2-0.2,0.3-0.5,0.5     c0,0,0,0,0,0c0.1,0,0.2,0,0.3,0.1c0.1,0,0.2,0.1,0.3,0.3c0.1,0.1,0.2,0.2,0.3,0.3c0.1,0.1,0.2,0.2,0.2,0.2c0.1,0,0.1,0.1,0.2,0.1     c0,0,0.1,0,0.2,0c0,0,0,0.1,0,0.1c-0.3,0.1-0.4,0.1-0.6,0.1c-0.1-0.1-0.1-0.1-0.2-0.2c-0.1-0.1-0.1-0.2-0.2-0.2     c-0.1-0.1-0.2-0.2-0.3-0.3c-0.1-0.1-0.2-0.2-0.2-0.2c-0.1,0-0.1-0.1-0.1-0.1s-0.1,0-0.1,0c0,0-0.1,0-0.2,0     C95.7,16.2,95.7,16.3,95.6,16.3z M94.9,14.9c0.2,0.5,0.4,0.7,0.6,1.2c0.1,0,0.2-0.1,0.3-0.1c0.1,0,0.2-0.1,0.3-0.1     c0.1,0,0.1-0.1,0.2-0.2c0.1-0.1,0.1-0.2,0.1-0.3c0-0.1,0-0.2-0.1-0.3c-0.1-0.1-0.1-0.2-0.2-0.3c-0.1-0.1-0.2-0.1-0.3-0.1     c-0.1,0-0.3,0-0.5,0.1C95.1,14.8,95,14.9,94.9,14.9z"/>
		</g>
	</g>
	<g>
		<g>
			<path class="st5" d="M99.6,13.8c0,0.3,0.1,0.4,0.1,0.7c-0.1,0-0.2,0-0.3,0c0-0.1-0.1-0.1-0.1-0.2c0-0.1-0.1-0.1-0.1-0.1     c0,0-0.1-0.1-0.1-0.1s-0.1,0-0.1,0c-0.1,0-0.1,0-0.2,0c-0.3,0-0.5,0.1-0.8,0.1c0.1,0.5,0.2,0.7,0.3,1.1c0.2,0,0.3-0.1,0.5-0.1     c0.1,0,0.1,0,0.2-0.1s0.1-0.1,0.1-0.1c0,0,0-0.1,0-0.2c0.1,0,0.1,0,0.2,0c0.1,0.3,0.1,0.5,0.1,0.8c-0.1,0-0.1,0-0.2,0     c0-0.1-0.1-0.1-0.1-0.2c0,0-0.1-0.1-0.1-0.1c0,0-0.1,0-0.2,0c-0.2,0-0.3,0-0.5,0.1c0.1,0.5,0.2,0.8,0.3,1.3     c0.3-0.1,0.4-0.1,0.7-0.1c0.1,0,0.1,0,0.2,0c0,0,0.1,0,0.1-0.1s0.1-0.1,0.1-0.1s0-0.1,0-0.2c0-0.1,0-0.1,0-0.2c0.1,0,0.1,0,0.2,0     c0,0.3,0,0.5,0.1,0.8c-0.9,0.1-1.3,0.2-2.2,0.3c0,0,0-0.1,0-0.1c0.1,0,0.2-0.1,0.2-0.1c0,0,0-0.1,0-0.1c0-0.1,0-0.1,0-0.2     c-0.2-0.8-0.3-1.1-0.4-1.9c0-0.1,0-0.2-0.1-0.2c0,0,0-0.1-0.1-0.1c0,0-0.1,0-0.1,0c0,0-0.1,0-0.2,0c0,0,0-0.1,0-0.1     C98,14,98.5,13.9,99.6,13.8z"/>
		</g>
	</g>
	<g>
		<g>
			<path class="st5" d="M102.4,16.6c-0.1,0-0.1,0-0.2,0.1c-0.1-0.1-0.1-0.1-0.2-0.2c-0.1,0.1-0.2,0.1-0.3,0.1s-0.2,0.1-0.4,0.1     c-0.4,0-0.7-0.1-0.9-0.3c-0.2-0.2-0.4-0.6-0.5-1.2c0-0.3,0-0.6,0.1-0.9c0.1-0.3,0.3-0.5,0.5-0.6c0.2-0.1,0.5-0.2,0.8-0.2     c0.2,0,0.3,0,0.5,0c0.2,0,0.3,0,0.5,0.1c0,0.3,0,0.4,0,0.6c-0.1,0-0.2,0-0.3,0c-0.1-0.1-0.1-0.2-0.2-0.3     c-0.1-0.1-0.2-0.1-0.2-0.2c-0.1,0-0.2,0-0.4,0c-0.2,0-0.4,0.1-0.5,0.2c-0.1,0.1-0.2,0.3-0.3,0.5c-0.1,0.2-0.1,0.5,0,0.8     c0,0.3,0.1,0.6,0.2,0.8c0.1,0.2,0.2,0.4,0.3,0.5c0.1,0.1,0.3,0.1,0.5,0.1c0.2,0,0.3-0.1,0.4-0.1c0.1-0.1,0.1-0.2,0.1-0.4     c0-0.1,0-0.1,0-0.1c0-0.1,0-0.2,0-0.3c0-0.1,0-0.1-0.1-0.1c0,0-0.1-0.1-0.2-0.1c0,0,0-0.1,0-0.1c0.4,0,0.6,0,1,0c0,0,0,0.1,0,0.1     c-0.1,0-0.1,0-0.1,0.1s-0.1,0.1-0.1,0.1c0,0,0,0.1,0,0.1c0,0.1,0,0.1,0,0.2C102.4,16.2,102.4,16.3,102.4,16.6z"/>
		</g>
	</g>
	<g>
		<g>
			<path class="st5" d="M105.2,13.7c0,0.3,0,0.4-0.1,0.7c-0.1,0-0.2,0-0.3,0c0-0.1,0-0.1-0.1-0.2c0-0.1,0-0.1-0.1-0.1     c0,0-0.1-0.1-0.1-0.1c0,0-0.1,0-0.1-0.1c-0.1,0-0.1,0-0.2,0c-0.3,0-0.5,0-0.9,0c0,0.5,0,0.7,0,1.2c0.2,0,0.3,0,0.6,0     c0.1,0,0.1,0,0.2,0c0,0,0.1,0,0.1-0.1c0,0,0.1-0.1,0.1-0.2c0.1,0,0.1,0,0.2,0c0,0.3,0,0.5-0.1,0.8c-0.1,0-0.1,0-0.2,0     c0-0.1,0-0.2-0.1-0.2c0,0-0.1-0.1-0.1-0.1c0,0-0.1,0-0.2,0c-0.2,0-0.3,0-0.6,0c0,0.5,0,0.8,0,1.3c0.3,0,0.5,0,0.8,0     c0.1,0,0.1,0,0.2,0c0,0,0.1,0,0.1-0.1c0,0,0.1-0.1,0.1-0.1c0,0,0.1-0.1,0.1-0.1c0,0,0.1-0.1,0.1-0.2c0.1,0,0.1,0,0.2,0     c-0.1,0.3-0.1,0.5-0.1,0.8c-0.9-0.1-1.3-0.1-2.2-0.1c0,0,0-0.1,0-0.1c0.1,0,0.2-0.1,0.2-0.1c0,0,0.1-0.1,0.1-0.1     c0-0.1,0-0.1,0-0.2c0-0.8,0-1.2,0-1.9c0-0.1,0-0.2,0-0.2c0,0,0-0.1,0-0.1c0,0,0,0-0.1-0.1c0,0-0.1,0-0.2,0c0,0,0-0.1,0-0.1     C103.7,13.6,104.2,13.6,105.2,13.7z"/>
		</g>
	</g>
	<g>
		<g>
			<path class="st5" d="M109.3,14.4c1,0.4,1.5,0.7,2.5,1.1c-0.1,0.2-0.2,0.4-0.3,0.6c-0.1,0-0.1-0.1-0.2-0.1c0-0.1,0-0.2,0-0.3     s0-0.1,0-0.2c0,0-0.1-0.1-0.1-0.1c0,0-0.1-0.1-0.2-0.1c-0.1-0.1-0.2-0.1-0.3-0.1c-0.3,0.8-0.5,1.2-0.9,2c0,0.1-0.1,0.1-0.1,0.2     c0,0,0,0.1,0,0.1c0,0,0,0.1,0.1,0.1c0,0,0.1,0.1,0.1,0.1c0,0,0,0.1,0,0.1c-0.4-0.1-0.6-0.2-1.1-0.4c0,0,0-0.1,0-0.1     c0.1,0,0.1,0,0.1,0s0.1,0,0.1,0c0,0,0.1,0,0.1,0c0,0,0.1,0,0.1-0.1c0,0,0.1-0.1,0.1-0.2c0.4-0.8,0.5-1.2,0.9-2     c-0.1-0.1-0.2-0.1-0.3-0.1c-0.1,0-0.1-0.1-0.2-0.1c-0.1,0-0.1,0-0.2,0c-0.1,0-0.1,0.1-0.2,0.1c-0.1,0.1-0.1,0.1-0.2,0.2     c-0.1,0-0.1-0.1-0.2-0.1C109.1,14.8,109.2,14.6,109.3,14.4z"/>
		</g>
	</g>
	<g>
		<g>
			<path class="st5" d="M109.2,14.3c-0.1,0.3-0.1,0.4-0.2,0.6c-0.1,0-0.2,0-0.3-0.1c0-0.1,0-0.1,0-0.2c0-0.1,0-0.1,0-0.1     c0,0,0-0.1-0.1-0.1s-0.1-0.1-0.1-0.1c0,0-0.1,0-0.2,0c-0.3-0.1-0.5-0.1-0.9-0.2c-0.1,0.5-0.1,0.7-0.2,1.1c0.2,0,0.3,0.1,0.5,0.1     c0.1,0,0.1,0,0.2,0c0,0,0.1,0,0.1-0.1c0,0,0.1-0.1,0.1-0.2c0.1,0,0.1,0,0.2,0.1c-0.1,0.3-0.1,0.5-0.2,0.8c-0.1,0-0.1,0-0.2,0     c0-0.1,0-0.2,0-0.2c0,0,0-0.1-0.1-0.1c0,0-0.1,0-0.2-0.1c-0.2,0-0.3-0.1-0.5-0.1c-0.1,0.5-0.1,0.8-0.2,1.3c0.3,0,0.4,0.1,0.7,0.1     c0.1,0,0.1,0,0.2,0c0,0,0.1,0,0.1,0c0,0,0.1-0.1,0.1-0.1c0,0,0.1-0.1,0.1-0.1s0.1-0.1,0.1-0.2c0.1,0,0.1,0,0.2,0.1     c-0.1,0.3-0.2,0.4-0.2,0.7c-0.8-0.2-1.2-0.3-2-0.4c0,0,0-0.1,0-0.1c0.1,0,0.2,0,0.2,0c0,0,0.1-0.1,0.1-0.1c0,0,0-0.1,0-0.2     c0.1-0.8,0.1-1.1,0.3-1.9c0-0.1,0-0.2,0-0.2s0-0.1,0-0.1c0,0,0-0.1-0.1-0.1c0,0-0.1,0-0.2-0.1c0,0,0-0.1,0-0.1     C107.7,14,108.2,14.1,109.2,14.3z"/>
		</g>
	</g>
	<g>
		<g>
			<path class="st5" d="M112.9,20c-0.1,0-0.1,0-0.2,0c0-0.1-0.1-0.1-0.1-0.2c-0.1,0-0.2,0-0.3,0s-0.2,0-0.3-0.1     c-0.3-0.1-0.6-0.3-0.7-0.6c-0.1-0.3-0.1-0.7,0-1.1c0.1-0.3,0.2-0.5,0.4-0.7c0.2-0.2,0.4-0.3,0.7-0.4s0.5,0,0.8,0.1     c0.1,0,0.3,0.1,0.4,0.2c0.1,0.1,0.2,0.1,0.4,0.2c-0.1,0.2-0.2,0.3-0.3,0.5c-0.1,0-0.1,0-0.2-0.1c0-0.1,0-0.2,0-0.3     c0-0.1-0.1-0.2-0.1-0.2s-0.2-0.1-0.3-0.1c-0.2-0.1-0.3-0.1-0.5,0c-0.2,0.1-0.3,0.2-0.5,0.3c-0.1,0.2-0.3,0.4-0.3,0.6     c-0.1,0.3-0.1,0.5-0.1,0.7c0,0.2,0,0.4,0.1,0.5c0.1,0.1,0.2,0.2,0.3,0.3c0.2,0.1,0.3,0.1,0.4,0c0.1,0,0.2-0.1,0.2-0.3     c0,0,0-0.1,0-0.1c0-0.1,0.1-0.2,0.1-0.3c0-0.1,0-0.1,0-0.1c0,0-0.1-0.1-0.1-0.1c0,0,0-0.1,0-0.1c0.3,0.1,0.5,0.2,0.8,0.3     c0,0,0,0.1,0,0.1c-0.1,0-0.1,0-0.1,0c0,0-0.1,0-0.1,0.1c0,0,0,0.1-0.1,0.1c0,0-0.1,0.1-0.1,0.2C113,19.6,113,19.8,112.9,20z"/>
		</g>
	</g>
	<g>
		<g>
			<path class="st5" d="M114.2,19.3c-0.1,0.3-0.2,0.4-0.3,0.6c0,0.1-0.1,0.2-0.1,0.2c0,0,0,0.1,0,0.1s0,0.1,0,0.1s0.1,0.1,0.1,0.1     c0,0,0,0.1,0,0.1c-0.3-0.1-0.5-0.2-0.8-0.3c0,0,0-0.1,0-0.1c0.1,0,0.2,0,0.2,0c0,0,0.1,0,0.1-0.1s0.1-0.1,0.1-0.2     c0.3-0.7,0.4-1,0.8-1.6c0-0.1,0.1-0.1,0.1-0.2c0,0,0-0.1,0-0.1c0,0,0-0.1,0-0.1c0,0-0.1-0.1-0.1-0.1c0,0,0-0.1,0-0.1     c0.5,0.2,0.7,0.3,1.1,0.4c0.3,0.1,0.6,0.3,0.7,0.5c0.1,0.2,0.1,0.4-0.1,0.6c-0.1,0.2-0.2,0.3-0.4,0.3c-0.2,0.1-0.4,0.1-0.6,0.1     c0,0,0,0,0,0c0.1,0.1,0.1,0.1,0.1,0.2c0,0.1,0,0.2,0,0.4c0,0.2,0,0.2,0,0.4c0,0.1,0,0.2,0,0.3c0,0.1,0,0.1,0,0.2     c0,0,0.1,0.1,0.1,0.1c0,0,0,0.1,0,0.1c-0.2-0.1-0.3-0.1-0.5-0.2c0-0.1,0-0.2,0-0.3c0-0.1,0-0.2,0-0.3c0-0.2,0-0.2,0-0.4     c0-0.1,0-0.2,0-0.3s0-0.1,0-0.1s0-0.1-0.1-0.1c0,0-0.1,0-0.1-0.1C114.3,19.3,114.3,19.3,114.2,19.3z M114.8,18     c-0.2,0.4-0.4,0.7-0.6,1.1c0.1,0,0.1,0.1,0.2,0.1c0.1,0.1,0.2,0.1,0.3,0.1c0.1,0,0.2,0,0.3,0c0.1,0,0.2-0.1,0.2-0.1     c0.1-0.1,0.2-0.1,0.2-0.3c0.1-0.1,0.1-0.2,0.1-0.3s0-0.2-0.1-0.3c-0.1-0.1-0.2-0.2-0.3-0.2C115,18.1,114.9,18,114.8,18z"/>
		</g>
	</g>
	<g>
		<g>
			<path class="st5" d="M118.8,19.7c-0.2,0.2-0.2,0.3-0.4,0.5c-0.1,0-0.1-0.1-0.2-0.1c0-0.1,0-0.1,0.1-0.2c0-0.1,0-0.1,0-0.1     c0,0,0-0.1,0-0.1c0,0,0-0.1-0.1-0.1c0,0-0.1-0.1-0.1-0.1c-0.3-0.1-0.4-0.2-0.7-0.3c-0.3,0.4-0.4,0.6-0.6,0.9     c0.2,0.1,0.3,0.1,0.4,0.2c0.1,0,0.1,0,0.1,0s0.1,0,0.1,0c0,0,0.1-0.1,0.2-0.1c0.1,0,0.1,0.1,0.2,0.1c-0.2,0.3-0.3,0.4-0.5,0.7     c-0.1,0-0.1-0.1-0.2-0.1c0-0.1,0-0.1,0-0.2c0,0,0-0.1,0-0.1c0,0-0.1-0.1-0.1-0.1c-0.2-0.1-0.2-0.1-0.4-0.2     c-0.2,0.4-0.4,0.6-0.6,1c0.2,0.1,0.3,0.2,0.6,0.3c0.1,0,0.1,0.1,0.1,0.1c0,0,0.1,0,0.1,0s0.1,0,0.1-0.1c0,0,0.1-0.1,0.1-0.1     c0,0,0.1-0.1,0.2-0.1c0.1,0,0.1,0.1,0.2,0.1c-0.2,0.2-0.2,0.4-0.4,0.6c-0.6-0.4-1-0.6-1.7-0.9c0,0,0-0.1,0-0.1c0.1,0,0.2,0,0.2,0     c0,0,0.1,0,0.1-0.1c0,0,0.1-0.1,0.1-0.2c0.3-0.6,0.5-0.9,0.9-1.5c0.1-0.1,0.1-0.1,0.1-0.2c0,0,0-0.1,0-0.1c0,0,0-0.1,0-0.1     c0,0-0.1-0.1-0.1-0.1c0,0,0-0.1,0.1-0.1C117.6,19.1,118,19.3,118.8,19.7z"/>
		</g>
	</g>
	<g>
		<g>
			<path class="st5" d="M118.9,23.2c-0.1,0-0.1,0-0.2-0.1c0-0.1,0-0.1,0-0.2c-0.1,0-0.2,0-0.3,0c-0.1,0-0.2-0.1-0.3-0.1     c-0.3-0.2-0.5-0.4-0.5-0.7c0-0.3,0.1-0.7,0.4-1.1c0.2-0.3,0.4-0.5,0.6-0.6c0.2-0.1,0.5-0.2,0.7-0.2c0.2,0,0.5,0.1,0.7,0.2     c0.1,0.1,0.2,0.2,0.3,0.2c0.1,0.1,0.2,0.2,0.3,0.3c-0.2,0.2-0.2,0.3-0.4,0.5c-0.1,0-0.1-0.1-0.2-0.1c0-0.1,0.1-0.2,0.1-0.3     s0-0.2-0.1-0.2c0-0.1-0.1-0.1-0.2-0.2c-0.1-0.1-0.3-0.1-0.5-0.1c-0.2,0-0.3,0.1-0.5,0.2c-0.2,0.1-0.3,0.3-0.5,0.5     c-0.2,0.2-0.3,0.5-0.3,0.6c-0.1,0.2-0.1,0.4,0,0.5c0,0.1,0.1,0.2,0.3,0.3c0.1,0.1,0.3,0.1,0.4,0.1c0.1,0,0.2-0.1,0.3-0.2     c0,0,0-0.1,0.1-0.1c0.1-0.1,0.1-0.2,0.1-0.2c0-0.1,0-0.1,0-0.1c0,0,0-0.1-0.1-0.2c0,0,0-0.1,0.1-0.1c0.3,0.2,0.4,0.3,0.7,0.5     c0,0,0,0-0.1,0.1c-0.1,0-0.1,0-0.1,0c0,0-0.1,0-0.1,0c0,0-0.1,0-0.1,0.1c0,0-0.1,0.1-0.1,0.2C119.1,22.9,119.1,23,118.9,23.2z"/>
		</g>
	</g>
	<g>
		<g>
			<path class="st5" d="M122.3,22.8c-0.2,0.1-0.3,0.2-0.5,0.4c0-0.1-0.1-0.1-0.1-0.2c0-0.1,0.1-0.1,0.1-0.2c0,0,0.1-0.1,0.1-0.1     c0,0,0-0.1,0-0.1s0-0.1,0-0.1c0,0,0-0.1-0.1-0.1c-0.2-0.2-0.2-0.3-0.4-0.5c-0.4,0.3-0.6,0.4-0.9,0.7c0.1,0.1,0.2,0.2,0.3,0.3     c0,0,0.1,0.1,0.1,0.1c0,0,0.1,0,0.1,0c0,0,0.1,0,0.2-0.1c0,0.1,0.1,0.1,0.1,0.1c-0.3,0.2-0.4,0.3-0.6,0.5c0-0.1-0.1-0.1-0.1-0.1     c0-0.1,0.1-0.1,0.1-0.2c0,0,0-0.1,0-0.1c0,0,0-0.1-0.1-0.1c-0.1-0.1-0.2-0.2-0.3-0.3c-0.4,0.3-0.5,0.5-0.8,0.8     c0.2,0.2,0.3,0.3,0.4,0.5c0,0,0.1,0.1,0.1,0.1c0,0,0.1,0,0.1,0c0,0,0.1,0,0.1,0c0,0,0.1,0,0.1,0c0,0,0.1-0.1,0.2-0.1     c0,0.1,0.1,0.1,0.1,0.2c-0.2,0.2-0.3,0.3-0.5,0.4c-0.5-0.6-0.7-0.8-1.3-1.4c0,0,0,0,0.1-0.1c0.1,0,0.1,0.1,0.2,0.1     c0,0,0.1,0,0.1,0s0.1-0.1,0.2-0.1c0.5-0.5,0.8-0.7,1.4-1.2c0.1-0.1,0.1-0.1,0.2-0.1c0,0,0.1-0.1,0.1-0.1c0,0,0-0.1,0-0.1     c0,0,0-0.1-0.1-0.1c0,0,0.1,0,0.1-0.1C121.6,21.9,121.9,22.2,122.3,22.8z"/>
		</g>
	</g>
	<path class="st3" d="M86.8,30.1c-0.4,0-0.8,0.3-0.8,0.7c0,0.3,0.2,0.5,0.4,0.7c0,0,0,0,0,0h0c0,0,0.1,0,0.1,0.1c0.1,0,0.1,0,0.2,0   c0.4,0,0.8-0.3,0.8-0.7C87.6,30.4,87.2,30.1,86.8,30.1z"/>
	<path class="st3" d="M86.9,31.6c-0.4,0-0.8,0.3-0.8,0.7c0,0.2,0.1,0.4,0.2,0.5c0.1,0,0.1,0,0.1,0.1c0.1,0.1,0.2,0.1,0.4,0.1   c0.4,0,0.8-0.3,0.8-0.7C87.7,32,87.3,31.6,86.9,31.6z"/>
	<path class="st3" d="M87.2,33.1c-0.3,0-0.5,0.1-0.6,0.3c0,0,0,0,0,0c0,0,0,0.1,0,0.1c0,0.1-0.1,0.2-0.1,0.3c0,0.4,0.3,0.7,0.7,0.7   s0.8-0.3,0.8-0.7C87.9,33.4,87.6,33.1,87.2,33.1z"/>
	<path class="st3" d="M95.1,34.6c0,0.4-0.3,0.7-0.8,0.7c-0.4,0-0.8-0.3-0.8-0.7c0-0.4,0.3-0.7,0.8-0.7   C94.7,33.8,95.1,34.2,95.1,34.6z"/>
	<path class="st3" d="M94.3,33c0,0.4-0.3,0.7-0.8,0.7c-0.4,0-0.8-0.3-0.8-0.7c0-0.4,0.3-0.7,0.8-0.7C94,32.3,94.3,32.6,94.3,33z"/>
	<path class="st3" d="M93.9,31.4c0,0.4-0.3,0.7-0.8,0.7c-0.4,0-0.8-0.3-0.8-0.7c0-0.4,0.3-0.7,0.8-0.7C93.5,30.7,93.9,31,93.9,31.4z   "/>
	<path class="st3" d="M118.8,33.6c0,0.4-0.3,0.7-0.8,0.7s-0.8-0.3-0.8-0.7c0-0.4,0.3-0.7,0.8-0.7S118.8,33.2,118.8,33.6z"/>
	<path class="st3" d="M119.1,32c0,0.4-0.3,0.7-0.8,0.7c-0.4,0-0.8-0.3-0.8-0.7c0-0.4,0.3-0.7,0.8-0.7   C118.7,31.3,119.1,31.6,119.1,32z"/>
	<path class="st3" d="M119.1,30.5c0,0.4-0.3,0.7-0.8,0.7c-0.4,0-0.8-0.3-0.8-0.7c0-0.4,0.3-0.7,0.8-0.7   C118.7,29.7,119.1,30,119.1,30.5z"/>
	<path class="st3" d="M112.1,34.2c0,0.4-0.3,0.7-0.7,0.7c-0.4,0-0.7-0.3-0.7-0.7c0-0.4,0.3-0.7,0.7-0.7   C111.8,33.6,112.1,33.9,112.1,34.2z"/>
	<path class="st3" d="M112.7,32.7c0,0.4-0.3,0.7-0.7,0.7c-0.4,0-0.7-0.3-0.7-0.7c0-0.4,0.3-0.7,0.7-0.7   C112.4,32,112.7,32.3,112.7,32.7z"/>
	<path class="st3" d="M113.2,31.1c0,0.4-0.3,0.7-0.7,0.7c-0.4,0-0.7-0.3-0.7-0.7s0.3-0.7,0.7-0.7C112.8,30.4,113.2,30.7,113.2,31.1z   "/>
	<path class="st3" d="M118.7,29.1c0,0.4-0.3,0.7-0.7,0.7c-0.4,0-0.7-0.3-0.7-0.7c0-0.4,0.3-0.7,0.7-0.7   C118.4,28.4,118.7,28.7,118.7,29.1z"/>
	<path class="st3" d="M113.3,29.7c0,0.4-0.3,0.7-0.7,0.7c-0.4,0-0.7-0.3-0.7-0.7c0-0.4,0.3-0.7,0.7-0.7   C113,29,113.3,29.3,113.3,29.7z"/>
	<path class="st3" d="M113.1,28.3c0,0.4-0.3,0.7-0.7,0.7c-0.4,0-0.7-0.3-0.7-0.7c0-0.4,0.3-0.7,0.7-0.7   C112.8,27.6,113.1,27.9,113.1,28.3z"/>
	<path class="st3" d="M93.8,29.9c0,0.4-0.3,0.7-0.7,0.7s-0.7-0.3-0.7-0.7c0-0.4,0.3-0.7,0.7-0.7C93.5,29.3,93.8,29.6,93.8,29.9z"/>
	<path class="st3" d="M88,29.4c0,0.4-0.3,0.7-0.7,0.7c-0.4,0-0.7-0.3-0.7-0.7c0-0.4,0.3-0.7,0.7-0.7C87.7,28.7,88,29,88,29.4z"/>
	<path class="st3" d="M89,28.5c0,0.4-0.3,0.7-0.7,0.7c-0.4,0-0.7-0.3-0.7-0.7s0.3-0.7,0.7-0.7S89,28.1,89,28.5z"/>
	<path class="st3" d="M90.1,27.5c0,0.4-0.3,0.7-0.7,0.7s-0.7-0.3-0.7-0.7c0-0.4,0.3-0.7,0.7-0.7S90.1,27.1,90.1,27.5z"/>
	<path class="st3" d="M94.2,28.6c0,0.4-0.3,0.7-0.7,0.7s-0.7-0.3-0.7-0.7c0-0.4,0.3-0.7,0.7-0.7C93.9,27.9,94.2,28.2,94.2,28.6z"/>
	<path class="st3" d="M95,27.5c0,0.4-0.3,0.7-0.7,0.7c-0.4,0-0.7-0.3-0.7-0.7c0-0.4,0.3-0.7,0.7-0.7C94.7,26.8,95,27.1,95,27.5z"/>
	<path class="st3" d="M96.1,26.5c0,0.4-0.3,0.7-0.7,0.7c-0.4,0-0.7-0.3-0.7-0.7c0-0.4,0.3-0.7,0.7-0.7   C95.8,25.9,96.1,26.2,96.1,26.5z"/>
	<path class="st3" d="M97.5,26.2c0,0.3-0.3,0.6-0.6,0.6s-0.6-0.3-0.6-0.6c0-0.3,0.3-0.6,0.6-0.6C97.2,25.5,97.5,25.8,97.5,26.2z"/>
	<path class="st3" d="M98.9,26.2c0,0.3-0.3,0.6-0.6,0.6c-0.4,0-0.6-0.3-0.6-0.6c0-0.3,0.3-0.6,0.6-0.6   C98.6,25.5,98.9,25.8,98.9,26.2z"/>
	<path class="st3" d="M109.8,26.2c0,0.3-0.3,0.6-0.6,0.6c-0.4,0-0.7-0.3-0.7-0.6c0-0.3,0.3-0.6,0.7-0.6   C109.5,25.6,109.8,25.8,109.8,26.2z"/>
	<path class="st3" d="M108.5,26.2c0,0.3-0.3,0.6-0.6,0.6c-0.4,0-0.6-0.3-0.6-0.6c0-0.3,0.3-0.6,0.6-0.6   C108.2,25.6,108.5,25.9,108.5,26.2z"/>
	<path class="st3" d="M107,26.4c0,0.3-0.3,0.6-0.7,0.6c-0.4,0-0.6-0.3-0.6-0.6c0-0.3,0.3-0.6,0.6-0.6C106.7,25.7,107,26,107,26.4z"/>
	<path class="st3" d="M115.3,26.8c0,0.3-0.3,0.6-0.6,0.6c-0.4,0-0.6-0.3-0.6-0.6c0-0.3,0.3-0.6,0.6-0.6   C115,26.2,115.3,26.5,115.3,26.8z"/>
	<path class="st3" d="M114,26.8c0,0.3-0.3,0.6-0.6,0.6s-0.6-0.3-0.6-0.6c0-0.3,0.3-0.6,0.6-0.6C113.7,26.2,114,26.5,114,26.8z"/>
	<path class="st3" d="M116.6,27.3c0,0.3-0.3,0.6-0.6,0.6s-0.6-0.3-0.6-0.6c0-0.3,0.3-0.6,0.6-0.6C116.3,26.7,116.6,26.9,116.6,27.3z   "/>
	<path class="st3" d="M103.2,29.2c0,0.3-0.3,0.6-0.6,0.6s-0.6-0.3-0.6-0.6c0-0.3,0.3-0.6,0.6-0.6S103.2,28.9,103.2,29.2z"/>
	<path class="st3" d="M100.2,26.4c0,0.3-0.2,0.5-0.6,0.5s-0.6-0.2-0.6-0.5c0-0.3,0.2-0.5,0.6-0.5C99.9,25.9,100.2,26.1,100.2,26.4z"/>
	<path class="st3" d="M103.1,30.4c0,0.3-0.2,0.5-0.6,0.5c-0.3,0-0.6-0.2-0.6-0.5c0-0.3,0.2-0.5,0.6-0.5   C102.9,29.9,103.1,30.1,103.1,30.4z"/>
	<path class="st3" d="M103.1,28.1c0,0.3-0.2,0.5-0.6,0.5c-0.3,0-0.6-0.2-0.6-0.5c0-0.3,0.2-0.5,0.6-0.5   C102.9,27.5,103.1,27.8,103.1,28.1z"/>
	<path class="st3" d="M100.7,27c-0.2-0.1-0.3-0.3-0.3-0.5c0-0.3,0.2-0.5,0.6-0.5c0.1,0,0.2,0,0.3,0.1c0.1,0,0,0,0.1,0.1"/>
	<path class="st3" d="M103.1,26.9c0,0.3-0.2,0.5-0.5,0.5c-0.3,0-0.5-0.2-0.5-0.5s0.2-0.5,0.5-0.5C102.9,26.5,103.1,26.7,103.1,26.9z   "/>
	<path class="st3" d="M107.5,36.9c0,0.3-0.2,0.5-0.6,0.5c-0.3,0-0.6-0.2-0.6-0.5c0-0.3,0.2-0.5,0.6-0.5   C107.2,36.4,107.5,36.6,107.5,36.9z"/>
	<path class="st3" d="M99.4,37.1c0,0.3-0.2,0.5-0.6,0.5s-0.6-0.2-0.6-0.5s0.2-0.5,0.6-0.5C99.1,36.5,99.4,36.8,99.4,37.1z"/>
	<ellipse class="st3" cx="106" cy="41.2" rx="0.5" ry="0.5"/>
	<path class="st3" d="M100.4,41.2c0,0.3-0.2,0.5-0.5,0.5c-0.3,0-0.5-0.2-0.5-0.5s0.2-0.5,0.5-0.5C100.2,40.7,100.4,40.9,100.4,41.2z   "/>
	<path class="st3" d="M94.3,42.4c0,0.3-0.2,0.5-0.5,0.5s-0.5-0.2-0.5-0.5c0-0.3,0.2-0.5,0.5-0.5S94.3,42.1,94.3,42.4z"/>
	<path class="st3" d="M112.6,42.5c0,0.3-0.2,0.5-0.5,0.5c-0.3,0-0.5-0.2-0.5-0.5s0.2-0.5,0.5-0.5C112.3,42,112.6,42.2,112.6,42.5z"/>
	<path class="st3" d="M103.3,24.8c0,0.3-0.2,0.5-0.5,0.5c-0.3,0-0.5-0.2-0.5-0.5c0-0.3,0.2-0.5,0.5-0.5   C103,24.4,103.3,24.6,103.3,24.8z"/>
	<path class="st3" d="M104.2,24.8c0,0.3-0.2,0.5-0.5,0.5s-0.5-0.2-0.5-0.5c0-0.3,0.2-0.5,0.5-0.5C104,24.4,104.2,24.6,104.2,24.8z"/>
	<path class="st3" d="M102.3,24.8c0,0.3-0.2,0.5-0.5,0.5c-0.3,0-0.5-0.2-0.5-0.5c0-0.3,0.2-0.5,0.5-0.5   C102.1,24.4,102.3,24.6,102.3,24.8z"/>
	<ellipse class="st3" cx="100.7" cy="24.8" rx="0.5" ry="0.5"/>
	<path class="st3" d="M103.3,23.8c0,0.3-0.2,0.5-0.5,0.5c-0.3,0-0.5-0.2-0.5-0.5s0.2-0.5,0.5-0.5C103,23.4,103.3,23.6,103.3,23.8z"/>
	<path class="st3" d="M105.2,26.1C105.1,26.1,105.1,26.1,105.2,26.1c-0.1-0.1,0-0.2,0-0.4c0-0.1,0-0.1,0-0.2c0,0,0,0,0,0   c0,0,0.1,0,0.1-0.1c0-0.1,0-0.2,0-0.3c0,0,0,0,0,0c0-0.1,0.1-0.2,0.1-0.3c0,0,0,0,0-0.1c0,0,0,0,0,0c0,0,0,0,0-0.1   c-0.1-1.2-1-2.1-2.1-2.3c0,0,0,0,0.1-0.1c0,0,0-0.1,0.1-0.1c0,0-0.1-0.1-0.1-0.1c0-0.2,0-0.4,0-0.6c0-0.1,0.1-0.1,0.2-0.1   c0.2,0,0.5,0,0.7-0.1c0,0,0,0,0,0c0-0.2,0-0.5-0.1-0.7c-0.2,0-0.4,0-0.6,0c0,0,0,0-0.1,0c0,0,0,0,0-0.1c-0.1,0-0.2,0-0.2-0.1   c0-0.1,0-0.2,0-0.3c0-0.1,0-0.1,0.1-0.1c0-0.1,0-0.3,0-0.4h-1c0,0,0,0,0,0v0.9c-0.3,0-0.5,0-0.8,0c0,0,0,0-0.1,0c0,0.2,0,0.3,0,0.5   c0,0.1,0,0.1,0.1,0.2c0,0,0,0,0,0c0.1,0,0.1,0,0.1-0.1l0,0c0.1,0.1,0.3,0.1,0.4,0.1c0,0,0,0,0,0l0,0l0,0c0,0,0,0,0,0   c0,0.1,0.1,0.1,0.1,0.1c0,0,0,0,0,0c0,0.2,0,0.5,0,0.7c0,0,0,0,0,0c0,0,0,0.1,0,0.1c0,0,0,0.1,0,0.1c-1.2,0.2-2.1,1.2-2.1,2.4   c0,0.4,0.7,1.8,0.9,2.1l3.3,0.1c0.1-0.1,0.2-0.3,0.3-0.5c0,0.3,0.2,0.5,0.6,0.5s0.6-0.2,0.6-0.5C105.7,26.3,105.5,26.1,105.2,26.1z   "/>
	<line class="st6" x1="102.3" y1="21.5" x2="102.3" y2="24.1"/>
	<path class="st3" d="M102.3,19.9c0,0.3,0,0.6,0,0.8"/>
	<path class="st3" d="M103.3,22.4c0,0.6,0,1.2,0,1.8"/>
	<line class="st6" x1="105.3" y1="24.2" x2="100.3" y2="24.2"/>
	<line class="st6" x1="100.3" y1="25.5" x2="105.3" y2="25.5"/>
	<path class="st3" d="M102.3,19.8c0.3,0,0.6,0,0.9,0"/>
	<path class="st3" d="M103.1,20.7c0.3,0,0.6,0,0.9,0"/>
	<path class="st3" d="M101.5,20.7c0.3,0,0.6,0,0.9,0"/>
	<path class="st3" d="M103.1,21.4c0.3,0,0.6,0,0.9,0"/>
	<path class="st3" d="M101.6,21.4c0.3,0,0.5,0,0.8,0"/>
	<path class="st3" d="M92.7,26.9c0,0,0-0.1,0-0.1l0,0c0,0,0-0.1-0.1-0.1c0,0,0-0.1,0-0.2c0-0.3-0.3-0.6-0.6-0.6s-0.6,0.3-0.6,0.6   c0,0.2,0.1,0.4,0.3,0.5c-0.1,0-0.1,0-0.2,0c0-0.1,0-0.2-0.1-0.2c0,0,0,0-0.1,0c0,0,0-0.1,0-0.1c0-0.4-0.3-0.7-0.7-0.7   c-0.4,0-0.7,0.3-0.7,0.7c0,0.3,0.1,0.5,0.4,0.6c-2.3,0.8-3.4,2.4-3.7,4.1h0c0.1,0,0.1,0.1,0.1,0.1c0,0.1-0.1,0.1-0.1,0.1h0   c0,0,0,0,0,0c-0.1,0.4-0.1,0.8-0.1,1.2c0.1,0,0.2,0,0.2,0.1c0.1,0,0.2,0.1,0.1,0.2c0,0.1-0.1,0.1-0.1,0.2c0,0.1-0.1,0.1-0.1,0.1   c0,0.3,0,0.5,0.1,0.8c0,0,0,0,0.1,0l0,0l0,0c0,0,0,0,0,0c0,0,0,0,0,0c0,0,0,0,0,0c0.1,0,0.1,0.1,0.1,0.1c0,0.1-0.1,0.1-0.1,0.1   c0,0,0,0,0,0c0.2,1.1,0.6,1.9,0.9,2.3l10.3-9.6C95.7,26.9,94.1,26.8,92.7,26.9z M91.1,27.1C91.2,27.1,91.2,27.1,91.1,27.1   C91.2,27.1,91.2,27.1,91.1,27.1C91.2,27.1,91.2,27.1,91.1,27.1z"/>
	<path class="st3" d="M114.9,42C114.9,42,114.9,42,114.9,42c-0.1-0.4-0.2-0.6-0.3-1c2.4-6.3,2.7-10.9-2.6-13.4   c0.2-0.1,0.3-0.3,0.3-0.5c0-0.4-0.3-0.7-0.7-0.7c-0.2,0-0.4,0.1-0.5,0.2c0.1-0.1,0.1-0.2,0.1-0.3c0-0.4-0.3-0.7-0.7-0.7   s-0.7,0.3-0.7,0.7c0,0.1,0,0.1,0,0.2c-0.7-0.2-2.4-0.1-8.7,0.1c-3.1-0.3-5.4-0.8-7.1,0.3c-1,0.7-1.9,2.1-2.5,3.9   c-5.9,2.8-2.9,7.4-1.1,9.1c0,0.2,0.1,0.4,0.2,0.5c0,0-0.1,0-0.1,0.1c-0.1,0-0.1,0.1,0,0.2c0.1,0.1,0.1,0.1,0.2,0.1   c0.1,0,0.1,0,0.1-0.1c0,0,0,0,0,0c0.3,0.2,0.6,0,0.6,0l2.8,4.2c6.4,1.1,17.9,4,20.1,0.5c0.3-0.4,0.6-1.5,0.6-2.2   c0.1-0.3,0.1-0.6,0.1-0.8c0,0,0.1,0,0.1-0.1c0-0.1,0-0.1,0-0.2C115,42.1,115,42,114.9,42z M110.7,27.1c-0.1,0-0.2-0.1-0.3-0.1v0   c0,0,0,0,0.1,0c0.1,0,0.2,0,0.2,0C110.7,27,110.7,27,110.7,27.1z M110.9,27.2C110.9,27.1,110.9,27.1,110.9,27.2   C110.9,27.1,110.9,27.1,110.9,27.2C110.9,27.1,110.9,27.1,110.9,27.2C110.9,27.2,110.9,27.2,110.9,27.2z M110.9,27   c0-0.1,0-0.1-0.1-0.1c0,0,0,0,0,0c0.1,0,0.2-0.1,0.2-0.2C111,26.8,110.9,26.9,110.9,27z"/>
	<path class="st3" d="M104.3,31.5c0.6-2.5,1.1-6.5-1.5-5.2c0,0-0.1,0-0.1,0.1"/>
	<path class="st3" d="M111.6,36.8c0.9-1.6,3.5-7.5,1.4-8.7"/>
	<path class="st3" d="M117.3,28.8c0.1,0,0.1-0.2,0-0.2c0.3-0.1,0.5-0.3,0.5-0.6c0-0.4-0.3-0.7-0.7-0.7c-0.4,0-0.7,0.3-0.7,0.6   c-1.5-1.1-3.7-1.3-6.4,0.1l7.3,7.7C118.9,33.3,118.7,30.5,117.3,28.8z"/>
	<path class="st3" d="M112,26.6c0.1,0,0.2-0.1,0.2-0.1c0.3,0,0.6,0.2,0.6,0.5s-0.2,0.5-0.6,0.5c0,0-0.1,0-0.1,0"/>
	<path class="st3" d="M96.5,37.6c0,0.2-0.2,0.4-0.4,0.4c-0.2,0-0.4-0.2-0.4-0.4c0-0.2,0.2-0.4,0.4-0.4   C96.3,37.2,96.5,37.4,96.5,37.6z"/>
	<path class="st3" d="M110.5,37.6c0,0.2-0.2,0.4-0.4,0.4c-0.2,0-0.4-0.2-0.4-0.4c0-0.2,0.2-0.4,0.4-0.4   C110.3,37.1,110.5,37.3,110.5,37.6z"/>
	<path class="st3" d="M93.7,38.4c0,0.2-0.2,0.4-0.4,0.4c-0.2,0-0.4-0.2-0.4-0.4S93,38,93.3,38C93.5,38,93.7,38.1,93.7,38.4z"/>
	<path class="st3" d="M113.3,38.4c0,0.2-0.2,0.4-0.4,0.4s-0.4-0.2-0.4-0.4s0.2-0.4,0.4-0.4C113.2,38,113.3,38.2,113.3,38.4z"/>
	<path class="st3" d="M103.2,35.1c0,0.5-0.2,1-0.6,1c-0.3,0-0.5-0.4-0.5-1c0-0.5,0.2-1,0.5-1C103,34.1,103.2,34.5,103.2,35.1z"/>
	<path class="st3" d="M93.8,26.7c0,0.3-0.2,0.5-0.6,0.5c-0.3,0-0.6-0.2-0.6-0.5c0-0.3,0.2-0.5,0.6-0.5   C93.6,26.1,93.8,26.4,93.8,26.7z"/>
	<g>
		<path class="st3" d="M101.5,57.3L101.5,57.3C101.5,57.2,101.5,57.2,101.5,57.3z"/>
		<path class="st3" d="M102.5,54.4c-0.1,0-0.2,0-0.4,0l0,0C102.2,54.4,102.4,54.4,102.5,54.4z"/>
		<path class="st3" d="M102.5,54.3"/>
		<path class="st3" d="M101.6,57.2c0-0.1,0-0.2,0-0.2l-0.1,0.3C101.5,57.2,101.5,57.2,101.6,57.2z"/>
		<path class="st3" d="M105.9,54.5c0.2,0,0.3,0,0.5,0c0.2,0,0.4,0,0.6,0c0.3,0,0.5,0.2,0.8,0.3c0.2,0.1,0.5,0.2,0.7,0.1    c0.1-0.1,0.1,0,0.1,0c0,0,0,0,0,0c0.3,1.3,0.4,2.6-0.2,3.8c-0.3,0.6-0.8,1.2-1.3,1.6c-0.6,0.5-1.2,0.9-1.9,1.1    c-0.6,0.2-1.1,0.2-1.7,0.4c-0.2,0-0.1,0.3,0.1,0.2c0.7-0.2,1.4-0.2,2.1-0.5c0.7-0.3,1.3-0.7,1.8-1.2c0.5-0.5,1-1,1.2-1.6    c0.3-0.6,0.6-1.6,0.5-2.2c-0.1-0.7-0.2-1-0.4-1.7c0,0,0-0.1-0.1-0.1c0.1-0.2,0.2-0.5,0.3-0.6c0.1-0.1,0.3,0,0.4,0    c0.1-0.1,0.3-0.3,0.4-0.4c0.1-0.1,0.1-0.3,0-0.5c-0.1-0.2-0.3-0.4-0.5-0.5c-0.1,0-0.2,0-0.3,0c-0.1,0-0.2,0-0.3-0.1c0,0,0,0,0-0.1    c0-0.1,0-0.2-0.1-0.2c-0.1-0.2-0.3-0.3-0.5-0.3c-0.4-0.1-0.8,0.2-0.9,0.6c-0.2-0.1-0.6-0.1-0.8-0.1c-0.4,0-0.8,0-1.2,0.1    c0,0,0,0-0.1,0c-0.1,0-0.2,0-0.3,0c0.6-0.6,2-2.1,2.2-2.4c0.2-0.3,0.4-0.6,0.5-0.8c0.2-0.1,0.2-0.1,0.2-0.4    c0.2-0.4,0.2-0.5,0.2-0.6c0,0,0-0.1,0.1-0.3c0.1-0.1-12.6-0.4-12.6-0.6c0.1-0.1-0.1-0.3-0.2-0.1c0,0,0,0,0,0c0-0.1-0.2-0.1-0.2,0    c0,0.1-0.5,0.7-0.4,0.9c-0.1,0,0.6,0.4,0.8,0.4c0.1,0,0.2,0,0.3-0.1c0,0,0,0,0,0.1c-0.1,0.4,0.6,0.7,0.7,0.7    c0.1,0,0.6-0.4,0.6-0.5c0.1,0,0.2-0.4,0.2-0.4c0,0,2,0,3.9,0c0,0,0,0,0,0c0.2,1.4-0.2,2.8,0,4.1c0,0,0,0,0,0    c-0.3,0.3-0.8,0.3-1.2,0.5c-0.3,0.1-0.6,0.5-0.5,0.9c0.1,0.3,0.5,0.3,0.8,0.3l0,0.1c0.3-0.1,0.6,0,0.8,0c0,0,0,0,0.1,0    c0,0.1,0,0.2,0,0.4c0,0.3,0,0.5,0,0.8c0,0,0,0,0,0l0.1,0.1l0.1,0.4c-0.1,2.5-0.2,6,0,8.1c0,0-0.1,0-0.1,0.1    c-0.1,0.2-0.3,0.3-0.4,0.5c-0.2,0.2-0.4,0.4-0.4,0.6c0,0.2,0,0.3,0.1,0.5c0.1,0.2,0.3,0.2,0.4,0.3c0.2,0.1,0.3,0.1,0.5,0.3    c0.1,0.1,0.1,0.1,0.1,0.2c0,0,0,0.1,0,0.1c0.1,0.3,0.3,0.6,0.6,0.8c0.3,0.2,0.7,0.2,0.9-0.1c0.2-0.2,0.4-0.5,0.4-0.8    c0-0.2-0.1-0.4,0.1-0.5c0,0,0.1,0,0.1-0.1l0.1,0.1l0-0.1c0.4,0,0.7-0.4,0.7-0.9c0-0.5-0.5-0.9-0.8-1.2c-0.1,0-0.1,0-0.2,0    c0,0,0,0-0.1,0c0,0,0,0,0,0c0-1.3,0.1-8.5,0.1-8.8c0-0.1,0-0.2,0-0.8c0,0,0-0.1,0-0.1c0,0,0,0,0,0c0,0,0-0.1,0-0.1c0,0,0,0,0,0    c0-0.1,0.1-0.1,0.1,0 M102.8,65.7c0,0.2,0.4,1.5,0.3,1.7c-0.1,0.3,0.9-2.9-0.2-1.8c-0.1,0.1,0.4,0.6,0.3,0.4c0,0-0.2,0-0.2,0    c-0.1-0.3,0.1-0.2-0.3-0.4c-0.1-0.1,0,0.1-0.1,0c-0.2-0.1-0.4,0.1-0.4,0c0-0.2-0.2-0.2,0-0.4c0.1-0.1-0.8-0.3-0.7-0.4    c0,0.3,0.1,0.6,0.2,0.8l1.7,0.7C103.3,66.4,102.9,65.6,102.8,65.7z M103.7,51.7c-0.3,0.2,0.1,0.3-0.3,0.3l0-3.3    c0.8,0,1.3-0.1,1.3-0.1c0.8,0,1.4,0.1,1.8,0.1c-0.1,0.2-0.3,0.4-0.4,0.5c0,0,0,0.1,0,0.1c-0.4,0.6-0.9,1.2-1.4,1.6    C104.5,51.3,104.1,51.5,103.7,51.7z M104.8,52.6C104.8,52.6,104.9,52.6,104.8,52.6L104.8,52.6C104.9,52.6,104.8,52.6,104.8,52.6z"/>
	</g>
	<path class="st3" d="M101.6,60.6c-0.1-0.2-0.4-0.4-0.6-0.4c-0.3-0.1-0.7-0.2-1-0.3c-0.7-0.2-1.3-0.6-1.8-1.1   c-0.2-0.2-0.3-0.4-0.5-0.6c0,0,0,0,0,0c-0.1-0.2-0.1-0.3-0.2-0.5c0-0.1-0.1-0.2-0.2-0.1c0-0.1,0,0-0.1-0.1c0,0,0,0,0,0   c0.1-0.1,0-0.2-0.1-0.2c-0.1,0-0.1,0-0.1,0.1c-0.2,0-0.3,0-0.4,0.1c-0.1,0.1-0.2,0.3-0.2,0.5c-0.1,0.5,0.2,0.9,0.4,1.3   c0.2,0.2,0.4,0.5,0.6,0.7c0.2,0.2,0.4,0.5,0.7,0.7c0.2,0.2,0.3,0.4,0.5,0.6c0.2,0.2,2.8,1.2,3,1"/>
	<path class="st3" d="M108.7,54.4c-0.1-0.1-2.3-0.1-2.2,0.1c0.2,0.5,0.4,1,0.6,1.6c0.2,0.6,0.2,1.2,0,1.7c0,0.1,0,0.1,0.1,0.1   c-0.5,1-1.3,2-2.4,2.1c-0.1,0-0.1,0-0.2,0c0,0-0.1,0-0.1,0.1c-0.1,0-0.1,0.1-0.1,0.1c-0.2,0-0.5,0-0.7,0.1c-0.2,0-0.6,1.2-0.5,1.3   c0.9,1,4.7-1.4,4.9-2.1c0,0,1-1.1,1-2.7"/>
	<path class="st3" d="M93.1,38.8c-0.2,0.9-1.3,2-2.1,1.5c-0.7-0.7-0.1-1,0.3-0.6c0.7,0.6,1.2-0.4,0.9-1.1"/>
	<path class="st3" d="M93.2,40.2c0.1-0.1,0.3-0.2,0.5-0.2c0,0,0.1,0,0.1,0c0,0,0.1,0,0.1-0.1c0,0,0.1,0,0.1,0c0.1,0,0.1,0,0.2-0.1   c-0.2-0.1-0.4-0.3-0.6-0.5c-0.1,0.3-0.2,0.6-0.5,0.9C93.1,40.2,93.1,40.2,93.2,40.2z"/>
	<path class="st3" d="M112.9,40.2c0,0-0.1-0.1-0.1-0.2c0,0.1-0.1,0.1-0.1,0.2L112.9,40.2z"/>
	<path class="st3" d="M111.9,40.1C111.9,40.1,111.9,40.2,111.9,40.1c0,0,0.1,0,0.1,0C111.9,40.1,111.9,40.1,111.9,40.1z"/>
	<path class="st3" d="M120,34.7c-0.3-0.7-2.4-0.8-2.9,1c0,0,0,0,0,0c0,0.1,0,0,0,0c0.1-2.3-1.5-1.9-1.2-0.2   c-0.4-1.3-1.6-1.3-1.4,0.1c-0.7-0.3-1.1,0.9-0.6,1.5c-0.4,1.3-0.6,3.1-0.6,3l-0.5,0c0.1,0.2,0.2,0.3,0.4,0.5   c0.4,0.1,0.8,0.3,1.3,0.5c1.1,0,2.2-1,2.1-2.7c0.7,0.4,1-1.1,0.5-1.1c-0.1-0.3,0.8-0.3,1.1-0.6c0.3-0.4,0.3-0.9,0.4-1.1   c0-0.1,0.1-0.3,0.2,0C119.3,37.4,120.5,35.7,120,34.7z"/>
	<path class="st3" d="M91.8,40.9c0.1-0.1,0.3-0.1,0.4-0.2l-2,0c5.2-0.2,0.1-5.8-2.3-5.5c0,0.1-0.8,1.3-0.8,1.4   c0.1,0.2,0.1,0.3,0.2,0.5c0.2,0.5,0.5,0.8,1,0.7c-1.1,0.4,0.3,1.6,0.7,0.7c0,0.1,0,0.1,0,0.1c0,1.1,0.3,1.8,0.8,2.1   c0.5,0.3,1.1,0.4,1.6,0.3C91.6,40.9,91.7,40.9,91.8,40.9z"/>
	<path class="st3" d="M88.4,37.7C88.4,37.7,88.5,37.7,88.4,37.7C88.5,37.7,88.5,37.7,88.4,37.7z"/>
	<path class="st3" d="M90.6,38.6C90.6,38.6,90.6,38.7,90.6,38.6c0-0.2,0.6,0.2,1.5,0c0.6-0.3,0.3-1.2-0.2-1.3c0.7-0.9,0-1.7-1-1.6   c-0.3-1.1-1.3-0.4-1.7,0.8c0,0,0,0.1,0,0.1c0,0,0-0.1,0,0c1.2-2.3-0.7-2.6-1.2-1.4c0,0,0.1,0.4,0.2,0.7c0,0.1,0.1,0.5,0,0.1   c-0.6-1.8-1.8-1.6-2.4-1c-1.3,1.6,1.1,2.7,0.9,1.4c-0.3-0.8,0.3-0.9,0.6-0.8c0.1,0.1,0.1,0.1,0.1,0.1"/>
	<path id="skygge_v_4_" class="st3" d="M90.6,38.6C90.6,38.6,90.6,38.7,90.6,38.6c0-0.2,0.6,0.2,1.5,0c0.6-0.3,0.3-1.2-0.2-1.3   c0.7-0.9,0-1.7-1-1.6c-0.3-1.1-1.3-0.4-1.7,0.8c0,0,0,0.1,0,0.1c0,0,0-0.1,0,0c1.2-2.3-0.7-2.6-1.2-1.4c0,0,0.1,0.4,0.2,0.7   c0,0.1,0.1,0.5,0,0.1c-0.6-1.8-1.8-1.6-2.4-1c-1.3,1.6,1.1,2.7,0.9,1.4c-0.3-0.8,0.3-0.9,0.6-0.8c0.1,0.1,0.1,0.1,0.1,0.1"/>
	<path class="st3" d="M120,34.9c-0.3-0.7-2.3-1.3-2.8,0.6c0,0-0.1,0.3-0.1,0.3c0,0.1,0-0.2,0-0.2c-0.1-2-1.5-1.5-1.2,0.2   c-0.4-1.2-1.6-1.2-1.3,0.1c-0.8-0.4-1.3,1.1-0.5,1.5c-0.6,0.6-0.1,1.1,1.1,0.7c-0.8,1-1.5,0.5-1.4,1.3c0.1,0.5,0.3,1.1,1.1,0.3   c0.2-0.3,0-0.8,0.3-0.8c1.4,0.5-1.6,3.6-2.1-0.1l-0.6,0.6c0.1,0.6,0.4,1,0.7,1.3c0.1,0,0.9,0.3,1.4,0.5c0,0,0,0,0.1,0   c1.1-0.1,2.1-1,2-2.6c0.6,0.4,1.3-1.2,0.4-1.2c-0.1-0.3,0.9-0.2,1.2-0.5c0.3-0.4,0.3-0.9,0.4-1.1c0-0.1,0.1-0.3,0.2,0   C119.3,37.5,120.5,35.8,120,34.9z"/>
	<path class="st2" d="M87.6,30.8c0,0.4-0.3,0.7-0.8,0.7c-0.4,0-0.8-0.3-0.8-0.7c0-0.4,0.3-0.7,0.8-0.7   C87.2,30.1,87.6,30.4,87.6,30.8z"/>
	<path class="st2" d="M87.7,32.4c0,0.4-0.3,0.7-0.8,0.7c-0.4,0-0.8-0.3-0.8-0.7c0-0.4,0.3-0.7,0.8-0.7C87.3,31.6,87.7,32,87.7,32.4z   "/>
	<path class="st2" d="M87.9,33.8c0,0.4-0.3,0.7-0.8,0.7c-0.4,0-0.7-0.3-0.7-0.7c0-0.4,0.3-0.7,0.7-0.7   C87.6,33.1,87.9,33.4,87.9,33.8z"/>
	<path class="st2" d="M95.1,34.6c0,0.4-0.3,0.7-0.8,0.7c-0.4,0-0.8-0.3-0.8-0.7c0-0.4,0.3-0.7,0.8-0.7   C94.7,33.8,95.1,34.2,95.1,34.6z"/>
	<path class="st2" d="M94.3,33c0,0.4-0.3,0.7-0.8,0.7c-0.4,0-0.8-0.3-0.8-0.7c0-0.4,0.3-0.7,0.8-0.7C94,32.3,94.3,32.6,94.3,33z"/>
	<path class="st2" d="M93.9,31.4c0,0.4-0.3,0.7-0.8,0.7c-0.4,0-0.8-0.3-0.8-0.7c0-0.4,0.3-0.7,0.8-0.7C93.5,30.7,93.9,31,93.9,31.4z   "/>
	<path class="st2" d="M118.8,33.6c0,0.4-0.3,0.7-0.8,0.7s-0.8-0.3-0.8-0.7c0-0.4,0.3-0.7,0.8-0.7S118.8,33.2,118.8,33.6z"/>
	<path class="st2" d="M119.1,32c0,0.4-0.3,0.7-0.8,0.7c-0.4,0-0.8-0.3-0.8-0.7c0-0.4,0.3-0.7,0.8-0.7   C118.7,31.3,119.1,31.6,119.1,32z"/>
	<path class="st2" d="M119.1,30.5c0,0.4-0.3,0.7-0.8,0.7c-0.4,0-0.8-0.3-0.8-0.7c0-0.4,0.3-0.7,0.8-0.7   C118.7,29.7,119.1,30,119.1,30.5z"/>
	<path class="st2" d="M112.1,34.2c0,0.4-0.3,0.7-0.7,0.7c-0.4,0-0.7-0.3-0.7-0.7c0-0.4,0.3-0.7,0.7-0.7   C111.8,33.6,112.1,33.9,112.1,34.2z"/>
	<path class="st2" d="M112.7,32.7c0,0.4-0.3,0.7-0.7,0.7c-0.4,0-0.7-0.3-0.7-0.7c0-0.4,0.3-0.7,0.7-0.7   C112.4,32,112.7,32.3,112.7,32.7z"/>
	<path class="st2" d="M113.2,31.1c0,0.4-0.3,0.7-0.7,0.7c-0.4,0-0.7-0.3-0.7-0.7s0.3-0.7,0.7-0.7C112.8,30.4,113.2,30.7,113.2,31.1z   "/>
	<path class="st2" d="M118.7,29.1c0,0.4-0.3,0.7-0.7,0.7c-0.4,0-0.7-0.3-0.7-0.7c0-0.4,0.3-0.7,0.7-0.7   C118.4,28.4,118.7,28.7,118.7,29.1z"/>
	<path class="st2" d="M117.8,27.9c0,0.4-0.3,0.7-0.7,0.7c-0.4,0-0.7-0.3-0.7-0.7c0-0.4,0.3-0.7,0.7-0.7   C117.5,27.3,117.8,27.6,117.8,27.9z"/>
	<path class="st2" d="M113.3,29.7c0,0.4-0.3,0.7-0.7,0.7c-0.4,0-0.7-0.3-0.7-0.7c0-0.4,0.3-0.7,0.7-0.7   C113,29,113.3,29.3,113.3,29.7z"/>
	<path class="st2" d="M113.1,28.3c0,0.4-0.3,0.7-0.7,0.7c-0.4,0-0.7-0.3-0.7-0.7c0-0.4,0.3-0.7,0.7-0.7   C112.8,27.6,113.1,27.9,113.1,28.3z"/>
	<ellipse class="st2" cx="111.6" cy="27.1" rx="0.7" ry="0.7"/>
	<path class="st2" d="M111.2,26.3c0,0.4-0.3,0.7-0.7,0.7s-0.7-0.3-0.7-0.7c0-0.4,0.3-0.7,0.7-0.7C110.9,25.7,111.2,26,111.2,26.3z"/>
	<path class="st2" d="M93.8,29.9c0,0.4-0.3,0.7-0.7,0.7s-0.7-0.3-0.7-0.7c0-0.4,0.3-0.7,0.7-0.7C93.5,29.3,93.8,29.6,93.8,29.9z"/>
	<path class="st2" d="M88,29.4c0,0.4-0.3,0.7-0.7,0.7c-0.4,0-0.7-0.3-0.7-0.7c0-0.4,0.3-0.7,0.7-0.7C87.7,28.7,88,29,88,29.4z"/>
	<path class="st2" d="M89,28.5c0,0.4-0.3,0.7-0.7,0.7c-0.4,0-0.7-0.3-0.7-0.7s0.3-0.7,0.7-0.7S89,28.1,89,28.5z"/>
	<path class="st2" d="M90.1,27.5c0,0.4-0.3,0.7-0.7,0.7s-0.7-0.3-0.7-0.7c0-0.4,0.3-0.7,0.7-0.7S90.1,27.1,90.1,27.5z"/>
	<path class="st2" d="M91.2,26.8c0,0.4-0.3,0.7-0.7,0.7c-0.4,0-0.7-0.3-0.7-0.7c0-0.4,0.3-0.7,0.7-0.7S91.2,26.4,91.2,26.8z"/>
	<path class="st2" d="M94.2,28.6c0,0.4-0.3,0.7-0.7,0.7s-0.7-0.3-0.7-0.7c0-0.4,0.3-0.7,0.7-0.7C93.9,27.9,94.2,28.2,94.2,28.6z"/>
	<path class="st2" d="M95,27.5c0,0.4-0.3,0.7-0.7,0.7c-0.4,0-0.7-0.3-0.7-0.7c0-0.4,0.3-0.7,0.7-0.7C94.7,26.8,95,27.1,95,27.5z"/>
	<path class="st2" d="M96.1,26.5c0,0.4-0.3,0.7-0.7,0.7c-0.4,0-0.7-0.3-0.7-0.7c0-0.4,0.3-0.7,0.7-0.7   C95.8,25.9,96.1,26.2,96.1,26.5z"/>
	<path class="st2" d="M97.5,26.2c0,0.3-0.3,0.6-0.6,0.6s-0.6-0.3-0.6-0.6c0-0.3,0.3-0.6,0.6-0.6C97.2,25.5,97.5,25.8,97.5,26.2z"/>
	<path class="st2" d="M98.9,26.2c0,0.3-0.3,0.6-0.6,0.6c-0.4,0-0.6-0.3-0.6-0.6c0-0.3,0.3-0.6,0.6-0.6   C98.6,25.5,98.9,25.8,98.9,26.2z"/>
	<path class="st2" d="M92.6,26.6c0,0.3-0.3,0.6-0.6,0.6s-0.6-0.3-0.6-0.6s0.3-0.6,0.6-0.6C92.3,25.9,92.6,26.2,92.6,26.6z"/>
	<path class="st2" d="M109.8,26.2c0,0.3-0.3,0.6-0.6,0.6c-0.4,0-0.7-0.3-0.7-0.6c0-0.3,0.3-0.6,0.7-0.6   C109.5,25.6,109.8,25.8,109.8,26.2z"/>
	<path class="st2" d="M108.5,26.2c0,0.3-0.3,0.6-0.6,0.6c-0.4,0-0.6-0.3-0.6-0.6c0-0.3,0.3-0.6,0.6-0.6   C108.2,25.6,108.5,25.9,108.5,26.2z"/>
	<path class="st2" d="M107,26.4c0,0.3-0.3,0.6-0.7,0.6c-0.4,0-0.6-0.3-0.6-0.6c0-0.3,0.3-0.6,0.6-0.6C106.7,25.7,107,26,107,26.4z"/>
	<path class="st2" d="M115.3,26.8c0,0.3-0.3,0.6-0.6,0.6c-0.4,0-0.6-0.3-0.6-0.6c0-0.3,0.3-0.6,0.6-0.6   C115,26.2,115.3,26.5,115.3,26.8z"/>
	<path class="st2" d="M114,26.8c0,0.3-0.3,0.6-0.6,0.6s-0.6-0.3-0.6-0.6c0-0.3,0.3-0.6,0.6-0.6C113.7,26.2,114,26.5,114,26.8z"/>
	<path class="st2" d="M116.6,27.3c0,0.3-0.3,0.6-0.6,0.6s-0.6-0.3-0.6-0.6c0-0.3,0.3-0.6,0.6-0.6C116.3,26.7,116.6,26.9,116.6,27.3z   "/>
	<path class="st2" d="M103.2,29.2c0,0.3-0.3,0.6-0.6,0.6s-0.6-0.3-0.6-0.6c0-0.3,0.3-0.6,0.6-0.6S103.2,28.9,103.2,29.2z"/>
	<path class="st2" d="M100.2,26.4c0,0.3-0.2,0.5-0.6,0.5s-0.6-0.2-0.6-0.5c0-0.3,0.2-0.5,0.6-0.5C99.9,25.9,100.2,26.1,100.2,26.4z"/>
	<path class="st2" d="M103.1,30.4c0,0.3-0.2,0.5-0.6,0.5c-0.3,0-0.6-0.2-0.6-0.5c0-0.3,0.2-0.5,0.6-0.5   C102.9,29.9,103.1,30.1,103.1,30.4z"/>
	<path class="st2" d="M103.1,28.1c0,0.3-0.2,0.5-0.6,0.5c-0.3,0-0.6-0.2-0.6-0.5c0-0.3,0.2-0.5,0.6-0.5   C102.9,27.5,103.1,27.8,103.1,28.1z"/>
	<path class="st2" d="M105.7,26.6c0,0.3-0.2,0.5-0.6,0.5s-0.6-0.2-0.6-0.5c0-0.3,0.2-0.5,0.6-0.5C105.5,26.1,105.7,26.3,105.7,26.6z   "/>
	<path class="st2" d="M100.7,27c-0.2-0.1-0.3-0.3-0.3-0.5c0-0.3,0.2-0.5,0.6-0.5c0.1,0,0.2,0,0.3,0.1c0.1,0,0,0,0.1,0.1"/>
	<path class="st2" d="M103.1,26.9c0,0.3-0.2,0.5-0.5,0.5c-0.3,0-0.5-0.2-0.5-0.5s0.2-0.5,0.5-0.5C102.9,26.5,103.1,26.7,103.1,26.9z   "/>
	<path class="st2" d="M107.5,36.9c0,0.3-0.2,0.5-0.6,0.5c-0.3,0-0.6-0.2-0.6-0.5c0-0.3,0.2-0.5,0.6-0.5   C107.2,36.4,107.5,36.6,107.5,36.9z"/>
	<path class="st2" d="M99.4,37.1c0,0.3-0.2,0.5-0.6,0.5s-0.6-0.2-0.6-0.5s0.2-0.5,0.6-0.5C99.1,36.5,99.4,36.8,99.4,37.1z"/>
	<ellipse class="st2" cx="106" cy="41.2" rx="0.5" ry="0.5"/>
	<path class="st2" d="M100.4,41.2c0,0.3-0.2,0.5-0.5,0.5c-0.3,0-0.5-0.2-0.5-0.5s0.2-0.5,0.5-0.5C100.2,40.7,100.4,40.9,100.4,41.2z   "/>
	<path class="st2" d="M94.3,42.4c0,0.3-0.2,0.5-0.5,0.5s-0.5-0.2-0.5-0.5c0-0.3,0.2-0.5,0.5-0.5S94.3,42.1,94.3,42.4z"/>
	<path class="st2" d="M112.6,42.5c0,0.3-0.2,0.5-0.5,0.5c-0.3,0-0.5-0.2-0.5-0.5s0.2-0.5,0.5-0.5C112.3,42,112.6,42.2,112.6,42.5z"/>
	<path class="st2" d="M103.3,24.8c0,0.3-0.2,0.5-0.5,0.5c-0.3,0-0.5-0.2-0.5-0.5c0-0.3,0.2-0.5,0.5-0.5   C103,24.4,103.3,24.6,103.3,24.8z"/>
	<path class="st2" d="M104.2,24.8c0,0.3-0.2,0.5-0.5,0.5s-0.5-0.2-0.5-0.5c0-0.3,0.2-0.5,0.5-0.5C104,24.4,104.2,24.6,104.2,24.8z"/>
	<path class="st2" d="M105.4,24.8c0,0.3-0.2,0.5-0.5,0.5c-0.3,0-0.5-0.2-0.5-0.5c0-0.3,0.2-0.5,0.5-0.5S105.4,24.6,105.4,24.8z"/>
	<path class="st2" d="M102.3,24.8c0,0.3-0.2,0.5-0.5,0.5c-0.3,0-0.5-0.2-0.5-0.5c0-0.3,0.2-0.5,0.5-0.5   C102.1,24.4,102.3,24.6,102.3,24.8z"/>
	<ellipse class="st2" cx="100.7" cy="24.8" rx="0.5" ry="0.5"/>
	<path class="st2" d="M103.3,23.8c0,0.3-0.2,0.5-0.5,0.5c-0.3,0-0.5-0.2-0.5-0.5s0.2-0.5,0.5-0.5C103,23.4,103.3,23.6,103.3,23.8z"/>
	<path class="st2" d="M103.3,22.9c0,0.3-0.2,0.5-0.5,0.5c-0.3,0-0.5-0.2-0.5-0.5c0-0.3,0.2-0.5,0.5-0.5   C103,22.4,103.3,22.6,103.3,22.9z"/>
	<path class="st2" d="M100.5,26.1c-0.2-0.3-0.3-0.7-0.3-1.1c0-1.4,1.2-2.5,2.6-2.5c1.4,0,2.6,1.1,2.6,2.5c0,0.4-0.1,0.8-0.3,1.2"/>
	<line class="st2" x1="102.3" y1="21.3" x2="102.3" y2="24.1"/>
	<line class="st2" x1="102.3" y1="19.7" x2="102.3" y2="20.7"/>
	<line class="st2" x1="103.3" y1="21.3" x2="103.3" y2="24.2"/>
	<line class="st2" x1="103.3" y1="19.7" x2="103.3" y2="20.7"/>
	<line class="st2" x1="105.3" y1="24.2" x2="100.3" y2="24.2"/>
	<line class="st2" x1="100.3" y1="25.5" x2="105.3" y2="25.5"/>
	<line class="st2" x1="102.2" y1="19.8" x2="103.4" y2="19.8"/>
	<line class="st2" x1="103.1" y1="20.6" x2="104.2" y2="20.6"/>
	<polyline class="st2" points="101.4,20.6 102.2,20.6 102.3,20.6 102.4,20.6  "/>
	<line class="st2" x1="103.1" y1="21.4" x2="104.2" y2="21.4"/>
	<line class="st2" x1="101.5" y1="21.4" x2="102.4" y2="21.4"/>
	<line class="st2" x1="101.5" y1="20.7" x2="101.5" y2="21.4"/>
	<line class="st2" x1="104.1" y1="20.6" x2="104.1" y2="21.4"/>
	<path class="st2" d="M89,34.4c-0.5-1.1-0.9-6.3,3.9-6.6"/>
	<path class="st2" d="M93.9,36.9c0,0.1-4.9-7.9,0.8-10.5"/>
	<path class="st2" d="M97.3,36.4c-1-2.6-6-10.1,3.2-9"/>
	<path class="st2" d="M100.9,31.4c-0.3-1.2-0.5-3.3-0.2-4.4c0.3-0.8,0.8-1.2,1.8-0.6"/>
	<path class="st2" d="M104.3,31.5c0.6-2.5,1.1-6.5-1.5-5.2c0,0-0.1,0-0.1,0.1"/>
	<path class="st2" d="M108.7,36c1-3.7,4.8-10.1-3.9-8.4"/>
	<path class="st2" d="M111.6,36.8c0.9-1.6,3.5-7.5,1.4-8.7"/>
	<path class="st2" d="M115.5,34.8c3-4.8-1.2-7.3-2.1-6.7"/>
	<path class="st2" d="M112,26.6c0.1,0,0.2-0.1,0.2-0.1c0.3,0,0.6,0.2,0.6,0.5s-0.2,0.5-0.6,0.5c0,0-0.1,0-0.1,0"/>
	<path class="st2" d="M96.5,37.6c0,0.2-0.2,0.4-0.4,0.4c-0.2,0-0.4-0.2-0.4-0.4c0-0.2,0.2-0.4,0.4-0.4   C96.3,37.2,96.5,37.4,96.5,37.6z"/>
	<path class="st2" d="M110.5,37.6c0,0.2-0.2,0.4-0.4,0.4c-0.2,0-0.4-0.2-0.4-0.4c0-0.2,0.2-0.4,0.4-0.4   C110.3,37.1,110.5,37.3,110.5,37.6z"/>
	<path class="st2" d="M93.7,38.4c0,0.2-0.2,0.4-0.4,0.4c-0.2,0-0.4-0.2-0.4-0.4S93,38,93.3,38C93.5,38,93.7,38.1,93.7,38.4z"/>
	<path class="st2" d="M113.3,38.4c0,0.2-0.2,0.4-0.4,0.4s-0.4-0.2-0.4-0.4s0.2-0.4,0.4-0.4C113.2,38,113.3,38.2,113.3,38.4z"/>
	<path class="st2" d="M103.2,35.1c0,0.5-0.2,1-0.6,1c-0.3,0-0.5-0.4-0.5-1c0-0.5,0.2-1,0.5-1C103,34.1,103.2,34.5,103.2,35.1z"/>
	<path class="st2" d="M93.8,26.7c0,0.3-0.2,0.5-0.6,0.5c-0.3,0-0.6-0.2-0.6-0.5c0-0.3,0.2-0.5,0.6-0.5   C93.6,26.1,93.8,26.4,93.8,26.7z"/>
	<path class="st3" d="M108.4,48.2c3.5-0.4,5.7-1.4,5.3-2.2c-0.7-1.3-4.9-2.6-11-2.6s-10.6,1.4-11,2.6c-0.2,0.6,1.1,1.3,3.4,1.7"/>
	<path class="st3" d="M113.5,46.7c0.5-0.2,1-1.3,0.9-1.5c-0.8-1.4-5.2-2.8-11.7-2.8c-5.7,0-10.1,1.1-11.4,2.3   c-0.2,0.2-0.1,1.5,0.6,1.8"/>
	<path class="st3" d="M91.2,44c0,0.5,0.1,0.5,0.1,0.8"/>
	<path class="st3" d="M114.4,45.2c-2.5,2.2-6.8,0.5-11.7,0.5c-4,0-7.3-2-9.5-2.9c-1-0.4-0.1-2.2-2.2-0.6c-0.1,0.1-0.1,0.1-0.1,0.3   c0,0.1,0.3,2.5,0.4,2.7"/>
	<path class="st3" d="M114.1,45.9"/>
	<path class="st3" d="M114.4,45.2c0.1-0.2,0.2-0.5,0.2-1"/>
	<path class="st3" d="M114.8,41.7c-2.2-1.1-6.5-2.4-12-2.4c-6,0-10.5,1.3-12.1,2.4c-0.3,0.2,0.1,0.5,0.2,0.6l1.5-0.7   c0.1-0.1,2.8-0.8,2.9-0.8c0.2-0.1,3.9-1,7.7-0.8l4.2,0.1l6.5,1.8l1.2,0.5C114.8,42.2,115.3,41.9,114.8,41.7z"/>
	<polygon class="st3" points="92.1,43.5 91,44.1 90.9,43.2 92.1,42.7  "/>
	<polygon class="st3" points="113.7,43.8 114.7,44.3 114.9,43.4 113.8,42.9  "/>
	<polygon class="st3" points="98,41.4 96.7,41 95.5,41.9 96.8,42.5  "/>
	<polygon class="st3" points="107.9,41.6 109,42.5 110.3,42 109.5,41.2  "/>
	<rect x="101.7" y="40.7" class="st3" width="2.4" height="1.1"/>
	<path class="st3" d="M114.9,43.3c0.1-0.4,0.2-0.8-0.1-0.9"/>
	<polyline class="st3" points="113.7,43.8 114.6,44.2 114.9,43.4  "/>
	<path class="st2" d="M108.4,48.2c3.5-0.4,5.7-1.4,5.3-2.2c-0.7-1.3-4.9-2.6-11-2.6s-10.6,1.4-11,2.6c-0.2,0.6,1.1,1.3,3.4,1.7"/>
	<path class="st2" d="M113.5,46.7c0.5-0.2,1-1.3,0.9-1.5c-0.8-1.4-5.2-2.8-11.7-2.8c-5.7,0-10.1,1.1-11.4,2.3   c-0.2,0.2-0.1,1.5,0.6,1.8"/>
	<path class="st2" d="M91.2,44c0,0.5,0.1,0.5,0.1,0.8"/>
	<path class="st2" d="M114.9,43.3c0.1-0.4,0.2-0.8-0.1-0.9c-0.2-0.1-0.4-0.2-0.7-0.3c-2.4-1-6.3-2-11.3-2c-5.7,0-10,1.2-11.9,2.2   c-0.2,0.1-0.1,0.4,0.1,0.8"/>
	<path class="st2" d="M114.4,45.2c0.1-0.2,0.2-0.5,0.2-1"/>
	<path class="st2" d="M114.9,42.5c0-0.1,0.4-0.7-0.1-1c-2.2-1.1-6.5-2.3-12-2.3c-6,0-10.5,1.3-12.1,2.4c-0.3,0.2,0.1,0.6,0.2,0.7"/>
	<polygon class="st2" points="92.1,43.5 91,44.1 90.9,43.2 92.1,42.7  "/>
	<polygon class="st2" points="113.7,43.8 114.7,44.3 114.9,43.4 113.8,42.9  "/>
	<polygon class="st2" points="98,41.4 96.7,41 95.5,41.9 96.8,42.5  "/>
	<polygon class="st2" points="107.9,41.6 109,42.5 110.3,42 109.5,41.2  "/>
	<rect x="101.7" y="40.7" class="st2" width="2.4" height="1.1"/>
	<path class="st2" d="M114.9,43.3c0.1-0.4,0.2-0.8-0.1-0.9"/>
	<polyline class="st2" points="113.7,43.8 114.6,44.2 114.9,43.4  "/>
	<path class="st2" d="M97.5,48.6c-0.1,1-1.3,1.5-1.6,0.2c-1.4,0.1-1.4-1.5,0-1.4c0-1.3,1.6-1.1,1.6-0.1"/>
	<line class="st2" x1="102.4" y1="48.7" x2="97.4" y2="48.7"/>
	<line class="st2" x1="106.5" y1="48.7" x2="103.6" y2="48.7"/>
	<line class="st2" x1="102.4" y1="47.2" x2="97.5" y2="47.2"/>
	<line class="st2" x1="108.6" y1="47.2" x2="103.5" y2="47.2"/>
	<polyline class="st2" points="109,44.8 108.9,44.9 104,44.9 103.8,44.9 103.7,44.7  "/>
	<polyline class="st2" points="109.1,46.6 109.1,46.4 103.5,46.4 103.5,47.1  "/>
	<polyline class="st2" points="107.5,52.6 107.2,52.6 103.4,52.6  "/>
	<line class="st2" x1="102.5" y1="54.5" x2="100.3" y2="54.5"/>
	<polyline class="st2" points="107.5,54.5 107.3,54.5 103.4,54.5  "/>
	<polyline class="st2" points="103.5,46.4 103.5,47.2 103.5,48.7 103.5,52.7  "/>
	<line class="st2" x1="103.5" y1="54.3" x2="103.5" y2="64.5"/>
	<line class="st2" x1="101.5" y1="62.4" x2="101.5" y2="64.8"/>
	<polyline class="st2" points="101.5,54.5 101.5,60.3 101.5,60.4  "/>
	<line class="st2" x1="101.5" y1="48.7" x2="101.5" y2="52.8"/>
	<polyline class="st2" points="101.3,46.7 101.5,46.7 101.5,47.2  "/>
	<path class="st2" d="M102.5,60c0,1.1,0,2,0,2.8"/>
	<path class="st2" d="M102.5,51.9c0,0.9,0,1.9,0,3"/>
	<path class="st2" d="M102.5,46.9c0,0.1,0,0.2,0,0.2c0,0.6,0,1.1,0,1.4c0,0,0,0.2,0,0.5"/>
	<path class="st2" d="M102.5,52.4c-0.6,0.3-1.4,0.6-2.3,1c-0.6,0.2-0.4,1,0.1,1"/>
	<path class="st2" d="M106.4,48.7c0.1,0,0.2,0,0.2,0c0,0,0,0,0,0c-0.8,1.4-1.6,2.3-3,3.2"/>
	<path class="st2" d="M108.4,47.2c0.1,0,0.2,0,0.2,0c-0.5,1.8-0.8,2.7-3.6,5.3"/>
	<path class="st2" d="M103.5,62.2c3.6-0.5,6.9-3.4,5.4-7.5"/>
	<path class="st2" d="M102.5,60.4c-2,0-4.1-0.8-4.9-2.6c-0.5-1.2-1.5-0.4-1,0.8c1.1,2.6,3.5,3.7,5.9,3.7"/>
	<path class="st2" d="M106.3,54.5c2.1,3.5-0.1,5.5-2.8,5.9"/>
	<path class="st2" d="M101.6,64.7c-0.8,0-1.6,1.6,0.1,2c0,1.8,2.3,2,2-0.1c1.4-0.1,1.2-2-0.1-2.2"/>
	<path class="st2" d="M103.7,66.4"/>
	<path class="st2" d="M103.2,67.7"/>
	<path class="st2" d="M103.4,64.3"/>
	<path class="st2" d="M103.6,66.4"/>
	<path class="st2" d="M107.3,54.4c0.1,0.9,2,0.7,1.8-0.2c1.4,0,0.9-1.8-0.2-1.5c0-1-1.5-0.9-1.6-0.1"/>
	<path class="st2" d="M108.9,45c0.1-0.8,1.4-1.2,1.7-0.1c1.3,0,1.3,1.5,0.2,1.6c0,0.8-1.4,1-1.7,0"/>
	<path class="st2" d="M101.5,46.7c-1.4-0.1-1.4-1.8-0.1-1.9c0.1-0.7,1.6-1.7,2.4,0.1"/>
	<path class="st2" d="M103.9,44.9"/>
	<path class="st2" d="M101.5,44.8"/>
	<path class="st2" d="M96.4,57.8c0,0.2,0,0.5,0.1,0.8c1.1,2.6,3.5,3.7,5.9,3.7"/>
	<path class="st7" d="M118.1,32.8c0,0,0.1,0,0.1,0c0.4,0.1,0.6,0.4,0.6,0.7c0,0.3-0.3,0.7-0.6,0.7"/>
	<path class="st7" d="M118.5,31.3c0.4,0.1,0.6,0.4,0.6,0.7c0,0.4-0.3,0.8-0.8,0.8"/>
	<path class="st7" d="M118.3,29.7c0,0,0.1,0,0.1,0c0.4,0,0.8,0.3,0.8,0.7c0,0.3-0.3,0.7-0.6,0.7"/>
	<path class="st7" d="M117.7,28.5c0.1-0.1,0.3-0.1,0.5-0.1c0.4,0,0.7,0.3,0.7,0.7c0,0.3-0.1,0.5-0.4,0.6"/>
	<path class="st7" d="M116.6,27.5c0.1-0.2,0.4-0.3,0.6-0.3c0.4,0,0.7,0.3,0.7,0.7c0,0.2-0.1,0.4-0.2,0.5"/>
	<path class="st7" d="M114,26.7c0-0.3,0.4-0.6,0.7-0.6c0.4,0,0.6,0.3,0.6,0.6"/>
	<path class="st7" d="M112.7,26.8c0-0.3,0.4-0.6,0.7-0.6c0.4,0,0.6,0.2,0.6,0.6"/>
	<path class="st7" d="M115.4,26.8c0.1-0.1,0.4-0.2,0.6-0.2c0.4,0,0.6,0.3,0.6,0.6c0,0.1,0,0.3-0.1,0.4"/>
	<path class="st2" d="M93.1,38.8c-0.2,0.9-1.3,2-2.1,1.5c-0.7-0.7-0.1-1,0.3-0.6c0.7,0.6,1.2-0.4,0.9-1.1"/>
	<path class="st2" d="M113.1,38.8c0.5,3.7,3.5,0.4,2.1,0c-0.3-0.1-0.1,0.4-0.3,0.8c-0.8,0.7-1,0.1-1.1-0.3c-0.1-0.8,0.7-0.3,1.6-1.3   c-1.3,0.5-1.8,0-1.2-0.6c-0.8-0.4-0.4-2,0.4-1.6c-0.3-1.4,1.2-1.3,1.4,0.3c0,0,0,0.1,0,0c0,0,0,0,0,0c-0.6-2,1.3-2.6,1.1-0.2   c0,0,0,0,0,0c0,0,0,0,0,0c0.5-1.8,2.6-1.7,2.9-1c0.5,1-0.7,2.7-1.3,1c-0.1-0.3-0.2-0.1-0.2,0c-0.1,0.2-0.1,0.8-0.4,1.1   c-0.3,0.3-1.2,0.3-1.1,0.6c0.6,0,0.3,1.6-0.5,1.1c0.3,2.9-3.4,3.8-4,0.8c-1.5,1.4-2.6,0.8-3-0.7c-1.4,1.5-2.8,1.2-3-0.6   c-1.4,1.8-2.8,1.7-3.8-0.6c-1.1,2.3-2.4,2.5-3.7,0.6c-0.4,1-1.4,2.2-2.9,0.6c-0.3,0.9-1,2.2-2.5,0.7c-0.3,1.8-4.6,3.1-4.5-0.7   c0-0.1,0-0.1,0-0.2c-0.5,0.9-1.8-0.4-0.7-0.8c0,0,0,0,0.1,0c0,0,0.1,0,0,0c-0.8,0.3-1.3-0.6-1.4-1.9"/>
	<path class="st2" d="M98.6,37.6c-0.6,1.4-1.4,1.6-1.9,0.8c-0.2-0.4,0.2-0.5,0.5,0c0.3,0.3,0.8-0.4,0.5-0.6c0.1,0,0.1-0.4,0-0.4   c0.4-0.3,0-1-0.6-0.9c0.2-0.7-0.4-0.8-0.8-0.1c0,0,0,0,0,0c0,0.1,0,0,0,0c0.5-1.4-0.7-0.9-0.7-0.6c-0.3-0.6-0.9-0.4-1,0.3   c-0.6-0.5-0.8,0.5,0,0.9c0,0,0,0,0,0c0,0,0.1,0,0,0c-0.7-0.5-1.1,0.4-0.6,0.7c-0.3,0.3-0.3,1,0.4,0.9c0,0.4,0.3,0.6,0.5,0.2   c0.2-0.5,0.8-0.7,0.5-0.2c-0.4,0.7-0.9,1.1-1.8-0.2"/>
	<path class="st2" d="M103.8,37.2c0-0.8,0.5-0.8,0.7,0.2c0.2,1,1.5,0.2,0.9-0.7c0.2,0,0.8-0.1,0.5-0.5c1.1,0,1.5-1.9,0.1-2.2   c0.9-1.2-0.5-1.4-1.7-0.2c0,0,0,0,0,0.1c-0.1,0.1,0.1-0.1,0.1-0.1c1.3-1.2,1.6-3,0.1-2.3c-0.4,0.2-0.9-0.2-1.2-0.4   c-0.3-0.3-0.8-0.3-1.1,0.1c-0.4,0.6-0.5,0.3-1.1,0.2c-1.1,0-0.5,1.4,0.3,2.5c0,0,0.1,0.1,0.1,0.1c0,0,0-0.1,0,0   c-1.6-1.7-2.4-0.4-1.7,0.2c-1.6,0.1-0.6,2.5,0.2,2.3c-0.2,0.4-0.1,0.8,0.4,0.6c-0.3,0.6,0.4,1.1,0.9,0.1c0.3-0.7,1.3-0.6,0.8,0.3   c-1,1.5-1.7,1.3-2.6-0.1"/>
	<path id="skygge_2_" class="st2" d="M103.8,37.2c0-0.8,0.5-0.8,0.7,0.2c0.2,1,1.5,0.2,0.9-0.7c0.2,0,0.8-0.1,0.5-0.5   c1.1,0,1.5-1.9,0.1-2.2c0.9-1.2-0.5-1.4-1.7-0.2c0,0,0,0,0,0.1c-0.1,0.1,0.1-0.1,0.1-0.1c1.3-1.2,1.6-3,0.1-2.3   c-0.4,0.2-0.9-0.2-1.2-0.4c-0.3-0.3-0.8-0.3-1.1,0.1c-0.4,0.6-0.5,0.3-1.1,0.2c-1.1,0-0.5,1.4,0.3,2.5c0,0,0.1,0.1,0.1,0.1   c0,0,0-0.1,0,0c-1.6-1.7-2.4-0.4-1.7,0.2c-1.6,0.1-0.6,2.5,0.2,2.3c-0.2,0.4-0.1,0.8,0.4,0.6c-0.3,0.6,0.4,1.1,0.9,0.1   c0.3-0.7,1.3-0.6,0.8,0.3"/>
	<path class="st2" d="M106.5,37.3c-1.2,1.9-2.6,1.6-2.7,0"/>
	<path class="st2" d="M111.5,38.5c1.3-0.2,0.7-0.9,0.5-1.1c0.3-1.1-0.7-0.5-0.9-0.6c0.7-0.4,1.3-1,0.3-1c0.1-0.8-0.4-1.2-1.1-0.4   c-0.5-0.6-1.1-0.1-0.8,0.9c-0.6-0.5-1.2-0.5-1.1,0.4c-0.5-0.2-0.9,0.5-0.4,0.9c-0.5,0.4-0.1,0.9,0.6,0.5c0.5-0.3,0.6,0.1,0.2,0.4   c-0.9,0.6-1.8,0.4-1.8-1"/>
	<path class="st2" d="M112.5,38.6c-0.7,0.7-1.8,1.3-2.3,0.4c-0.2-0.7,0.2-0.7,0.4-0.5c0.1,0.4,0.6,0.9,0.8,0.1c0,0,0.2,0,0.2,0"/>
	<path class="st2" d="M90.6,38.6C90.6,38.6,90.6,38.7,90.6,38.6c0-0.2,0.6,0.2,1.5,0c0.6-0.3,0.3-1.2-0.2-1.3c0.7-0.9,0-1.7-1-1.6   c-0.3-1.1-1.3-0.4-1.7,0.8c0,0,0,0.1,0,0.1c0,0,0-0.1,0,0c1.2-2.3-0.7-2.6-1.2-1.4c0,0,0.1,0.4,0.2,0.7c0,0.1,0.1,0.5,0,0.1   c-0.6-1.8-1.8-1.6-2.4-1c-1.3,1.6,1.1,2.7,0.9,1.4c-0.3-0.8,0.3-0.9,0.6-0.8c0.1,0.1,0.1,0.1,0.1,0.1"/>
	<path id="skygge_v_1_" class="st2" d="M90.6,38.6C90.6,38.6,90.6,38.7,90.6,38.6c0-0.2,0.6,0.2,1.5,0c0.6-0.3,0.3-1.2-0.2-1.3   c0.7-0.9,0-1.7-1-1.6c-0.3-1.1-1.3-0.4-1.7,0.8c0,0,0,0.1,0,0.1c0,0,0-0.1,0,0c1.2-2.3-0.7-2.6-1.2-1.4c0,0,0.1,0.4,0.2,0.7   c0,0.1,0.1,0.5,0,0.1c-0.6-1.8-1.8-1.6-2.4-1c-1.3,1.6,1.1,2.7,0.9,1.4c-0.3-0.8,0.3-0.9,0.6-0.8c0.1,0.1,0.1,0.1,0.1,0.1"/>
	<path class="st2" d="M113.1,38.8c0.5,3.7,3.5,0.5,2.1,0.1c-0.3-0.1-0.1,0.4-0.3,0.8c-0.8,0.7-1,0.1-1.1-0.3   c-0.1-0.8,0.6-0.3,1.4-1.3c-1.3,0.4-1.7,0-1.1-0.7c-0.8-0.4-0.3-1.9,0.5-1.5c-0.3-1.4,1.2-1.3,1.4,0.3c0,0,0,0.1,0,0c0,0,0,0,0,0   c-0.6-2,0.9-2.7,1.1-0.6c0,0,0,0.3,0,0.2c0,0,0.1-0.3,0.1-0.3c0.5-1.8,2.6-1.3,2.8-0.6c0.5,1-0.7,2.7-1.3,1c-0.1-0.3-0.2-0.1-0.2,0   c-0.1,0.2-0.1,0.8-0.4,1.1c-0.3,0.3-1.2,0.2-1.2,0.5c0.9,0,0.2,1.6-0.4,1.2c0.3,2.9-3.4,3.7-4.1,0.8"/>
	<g>
		<g>
			<path class="st8" d="M89.9,37.6c0.3-0.1,0.6-0.3,0.9-0.5c0.2-0.2,0.6-0.4,0.7-0.7c0,0-0.1,0-0.1,0c0,0.3-0.4,0.7-0.7,0.6     c-0.1,0-0.1,0.1,0,0.1c0.3,0,0.8-0.4,0.8-0.8c0,0-0.1-0.1-0.1,0c-0.1,0.3-0.4,0.5-0.7,0.7c-0.3,0.2-0.5,0.3-0.8,0.4     C89.8,37.5,89.8,37.6,89.9,37.6L89.9,37.6z"/>
		</g>
	</g>
	<g>
		<path d="M90.4,37.9c0.1-0.1,1.5-0.6,1.2,0c-0.2-0.1-0.5-0.2-0.7-0.2"/>
		<g>
			<path class="st8" d="M90.4,37.9c0.2-0.1,0.4-0.2,0.6-0.2c0.2,0,0.6-0.1,0.5,0.2c0,0,0.1,0,0.1,0c-0.2-0.1-0.5-0.2-0.7-0.2     c-0.1,0-0.1,0.1,0,0.1c0.2,0.1,0.5,0.1,0.7,0.2c0,0,0.1,0,0.1,0C91.9,37.2,90.6,37.7,90.4,37.9C90.3,37.9,90.4,37.9,90.4,37.9     L90.4,37.9z"/>
		</g>
	</g>
	<g>
		<g>
			<path class="st8" d="M90,36.9c0.1-0.3,0.3-0.6,0.6-0.9c0,0-0.1,0-0.1,0c0,0.2-0.2,0.3-0.3,0.4c-0.1,0,0,0.1,0.1,0.1     c0.2-0.1,0.4-0.2,0.4-0.5c0,0-0.1-0.1-0.1,0c-0.3,0.3-0.5,0.6-0.6,0.9C89.8,36.9,90,37,90,36.9L90,36.9z"/>
		</g>
	</g>
	<g>
		<path d="M88.7,36.3c0-0.3-0.1-1,0.2-1.2c0,0.3,0,0.6-0.2,0.9"/>
		<g>
			<path class="st8" d="M88.8,36.3c0-0.3-0.2-0.9,0.2-1.1c0,0,0,0-0.1,0c0,0.3,0,0.6-0.2,0.9c0,0.1,0,0.1,0.1,0.1     c0.2-0.3,0.2-0.6,0.2-1c0,0,0-0.1-0.1,0c-0.4,0.2-0.2,0.9-0.2,1.2C88.7,36.4,88.8,36.4,88.8,36.3L88.8,36.3z"/>
		</g>
	</g>
	<g>
		<g>
			<path class="st8" d="M86.4,35.4c-0.2,0.2-0.3,0.5-0.3,0.8c0,0,0.1,0,0.1,0c-0.1-0.2,0-0.4,0.1-0.5c0.1,0,0-0.1-0.1-0.1     c-0.2,0.2-0.2,0.4-0.1,0.6c0,0,0.1,0.1,0.1,0C86.2,35.9,86.3,35.7,86.4,35.4C86.5,35.4,86.4,35.4,86.4,35.4L86.4,35.4z"/>
		</g>
	</g>
	<g>
		<path d="M101.9,33.5c0-0.2-0.1-0.4-0.2-0.6c0-0.1-0.3-0.6-0.3-0.4c0.1,0,0.2,0,0.2,0.1"/>
		<g>
			<path class="st8" d="M102,33.5c-0.1-0.3-0.2-0.6-0.3-0.9c-0.1-0.1-0.2-0.3-0.3-0.1c0,0,0,0.1,0,0.1c0.1,0,0.1,0,0.1,0.1     c0,0.1,0.1,0,0.1-0.1c0-0.1-0.1-0.1-0.2-0.1c0,0,0,0.1,0,0.1c0-0.1,0.1,0,0.1,0.1c0,0.1,0.1,0.1,0.1,0.2     C101.8,33.1,101.8,33.3,102,33.5C101.9,33.6,102,33.6,102,33.5L102,33.5z"/>
		</g>
	</g>
	<g>
		<g>
			<path class="st8" d="M104.4,34.7c0.1-0.2,0.3-0.3,0.4-0.5c0.2-0.1,0.4-0.1,0.6-0.2c0.1,0,0.1-0.1,0-0.1c-0.3,0.1-0.5,0-0.7,0.2     c-0.2,0.1-0.3,0.3-0.5,0.5C104.2,34.7,104.3,34.7,104.4,34.7L104.4,34.7z"/>
		</g>
	</g>
	<g>
		<path d="M104.1,35.2c0.3-0.1,0.7,0,1,0c0.1,0,0.3-0.1,0.4,0c0,0,0.3,0.1,0.1,0.2c0,0-0.3-0.1-0.3-0.2"/>
		<g>
			<path class="st8" d="M104.2,35.3c0.3-0.1,0.7,0,1,0c0.1,0,0.5-0.1,0.5,0c0,0,0,0-0.1,0c0,0,0,0-0.1,0c0,0-0.1,0-0.1-0.1     c-0.1,0-0.1,0-0.1,0.1c0.1,0,0.3,0.2,0.4,0.2c0.1-0.1,0-0.2-0.1-0.2c-0.2-0.1-0.5,0-0.7,0C104.7,35.1,104.4,35.1,104.2,35.3     C104,35.2,104.1,35.3,104.2,35.3L104.2,35.3z"/>
		</g>
	</g>
	<g>
		<g>
			<path class="st8" d="M101,34.7c-0.2,0-0.6-0.3-0.6-0.5c0-0.1-0.1-0.1-0.1,0c0,0.2,0.2,0.3,0.3,0.4     C100.7,34.7,100.9,34.8,101,34.7C101.1,34.8,101.1,34.7,101,34.7L101,34.7z"/>
		</g>
	</g>
	<g>
		<path d="M101.3,35.4c-0.3,0-1.2-0.3-1.4,0c0.3,0.1,0.6-0.1,0.9-0.1"/>
		<g>
			<path class="st8" d="M101.3,35.3c-0.4,0-1.1-0.3-1.4,0.1c0,0,0,0.1,0,0.1c0.3,0.1,0.6-0.1,1-0.1c0.1,0,0.1-0.1,0-0.1     c-0.2,0-0.4,0.1-0.6,0.1c-0.1,0-0.1,0-0.2,0c0.1,0,0.1-0.1,0.2-0.1c0.1,0,0.2,0,0.2,0C100.7,35.3,101,35.4,101.3,35.3     C101.4,35.4,101.4,35.3,101.3,35.3L101.3,35.3z"/>
		</g>
	</g>
	<g>
		<g>
			<path class="st8" d="M101.2,35.8c-0.3,0.2-0.7,0.4-0.8,0.8c0,0,0,0.1,0,0.1c0.2,0,0.2-0.4,0.4-0.5c0-0.1,0-0.1-0.1-0.1     c-0.1,0.1-0.2,0.4-0.3,0.4c0,0,0,0,0,0.1c0.1-0.3,0.4-0.5,0.7-0.7C101.3,35.8,101.3,35.7,101.2,35.8L101.2,35.8z"/>
		</g>
	</g>
	<g>
		<g>
			<path class="st8" d="M104.2,35.8c0.2,0,0.6,0.3,0.6,0.5c0,0,0.1,0,0.1-0.1c-0.2-0.1-0.3-0.3-0.4-0.5c0-0.1-0.1,0-0.1,0.1     c0.1,0.2,0.3,0.4,0.4,0.5c0,0,0.1,0,0.1-0.1c0-0.3-0.4-0.6-0.7-0.6C104.2,35.7,104.1,35.8,104.2,35.8L104.2,35.8z"/>
		</g>
	</g>
	<g>
		<path d="M103.6,33.3c0-0.3,0.5-0.8,0.8-0.9c0.1,0.2-0.2,0.3-0.3,0.4c-0.2,0.1-0.2,0-0.3,0.3"/>
		<g>
			<path class="st8" d="M103.6,33.3c0-0.3,0.4-0.8,0.7-0.8c0,0,0,0-0.1,0c0,0.2-0.3,0.3-0.4,0.3c-0.1,0-0.2,0.1-0.2,0.2     c0,0.1,0.1,0.1,0.1,0c0.1-0.1,0.1-0.1,0.2-0.2c0.1,0,0.1-0.1,0.2-0.1c0.1-0.1,0.3-0.2,0.2-0.4c0,0,0,0-0.1,0     c-0.4,0.1-0.8,0.6-0.8,1C103.5,33.4,103.6,33.4,103.6,33.3L103.6,33.3z"/>
		</g>
	</g>
	<g>
		<path d="M102.6,33.2c0-0.3,0-0.5,0-0.8c0-0.1-0.1-0.6,0.2-0.5c0,0.3-0.2,0.6-0.1,0.9"/>
		<g>
			<path class="st8" d="M102.7,33.2c0-0.3,0-0.5,0-0.8c0-0.1,0-0.5,0.1-0.5c0,0,0,0,0-0.1c0,0.3-0.1,0.6-0.1,0.9     c0,0.1,0.1,0.1,0.1,0c0-0.3,0.1-0.6,0.1-0.9c0,0,0-0.1,0-0.1c-0.2,0-0.2,0.2-0.2,0.3C102.5,32.5,102.6,32.9,102.7,33.2     C102.6,33.3,102.7,33.3,102.7,33.2L102.7,33.2z"/>
		</g>
	</g>
	<g>
		<g>
			<path class="st8" d="M110.2,36.3c0-0.2,0-0.4-0.2-0.5c0,0-0.1,0-0.1,0.1c0,0.1,0,0.1,0.1,0.2c0,0.1,0.1-0.1,0.1-0.1c0,0,0,0,0,0     c0,0,0,0-0.1,0.1C110.1,35.9,110.1,36.2,110.2,36.3C110.1,36.4,110.2,36.3,110.2,36.3L110.2,36.3z"/>
		</g>
	</g>
	<g>
		<g>
			<path class="st8" d="M110.7,36.2c0.1-0.2,0.3-0.4,0.2-0.6c0,0,0-0.1-0.1,0c0,0,0,0.1,0,0.2c0,0.1,0.1,0.1,0.1,0c0,0,0-0.1,0-0.1     c0,0,0,0-0.1,0c0,0.1-0.1,0.2-0.1,0.3C110.6,36,110.6,36.1,110.7,36.2C110.6,36.2,110.6,36.3,110.7,36.2L110.7,36.2z"/>
		</g>
	</g>
	<g>
		<g>
			<path class="st8" d="M111.1,36.5c0.1-0.1,0.2-0.1,0.3-0.2c0.1,0,0-0.1-0.1-0.1C111.2,36.3,111.1,36.3,111.1,36.5     C111,36.4,111.1,36.5,111.1,36.5L111.1,36.5z"/>
		</g>
	</g>
	<g>
		<g>
			<path class="st8" d="M111,37.3c0.1,0,0.3-0.1,0.4-0.1c0,0,0,0,0,0c0,0,0,0,0,0c0,0,0,0,0,0c0,0-0.1,0-0.1,0c0,0,0.1,0.1,0.2,0.1     c0,0,0.1-0.1,0-0.1c0-0.1-0.1-0.1-0.2-0.1C111.2,37.1,111.1,37.2,111,37.3C110.9,37.3,110.9,37.3,111,37.3L111,37.3z"/>
		</g>
	</g>
	<g>
		<g>
			<path class="st8" d="M111.1,37.8c0.1,0,0.3,0,0.4,0.2c0,0,0-0.1,0-0.1c0,0,0,0,0,0c-0.1,0-0.1,0.1-0.1,0.1c0,0,0.1,0.1,0.1,0     c0,0,0-0.1,0-0.1c-0.1-0.2-0.3-0.2-0.5-0.2C111.1,37.6,111.1,37.8,111.1,37.8L111.1,37.8z"/>
		</g>
	</g>
	<g>
		<g>
			<path class="st8" d="M111.1,38.4c0,0,0.1,0.1,0.1,0.2c0,0,0,0,0.1,0c0,0,0,0,0-0.1C111.2,38.4,111.1,38.3,111.1,38.4     c0,0.1,0.1,0.2,0.1,0.3c0,0,0.1,0,0.1,0C111.3,38.5,111.2,38.4,111.1,38.4C111.1,38.2,111.1,38.2,111.1,38.4     C111,38.3,111.1,38.3,111.1,38.4L111.1,38.4z"/>
		</g>
	</g>
	<g>
		<g>
			<path class="st8" d="M108.7,37.7c-0.2,0-0.4,0-0.5,0.2c0,0.1,0.1,0.1,0.1,0c0,0,0.1-0.1,0.1-0.1c0-0.1-0.1-0.1-0.1,0     c0,0-0.1,0.1-0.1,0.1c0,0,0.1,0,0.1,0C108.4,37.8,108.6,37.8,108.7,37.7C108.8,37.8,108.8,37.7,108.7,37.7L108.7,37.7z"/>
		</g>
	</g>
	<g>
		<g>
			<path class="st8" d="M109,37.2c-0.2-0.1-0.5-0.3-0.6-0.1c0,0,0,0.1,0.1,0.1c0.1,0,0.1,0,0.2-0.1s0-0.1-0.1-0.1c0,0-0.1,0-0.1,0     c0,0,0,0.1,0.1,0.1C108.5,37,108.8,37.2,109,37.2C108.9,37.3,109,37.3,109,37.2L109,37.2z"/>
		</g>
	</g>
	<g>
		<g>
			<path class="st8" d="M109.2,36.7c0-0.1,0-0.4-0.2-0.3c0,0-0.1,0.1,0,0.1c0,0,0,0,0,0.1c0,0.1,0.1,0,0.1-0.1c0,0,0,0,0-0.1     c0,0,0,0.1,0,0.1C109.2,36.5,109.1,36.7,109.2,36.7C109.1,36.8,109.2,36.8,109.2,36.7L109.2,36.7z"/>
		</g>
	</g>
	<g>
		<g>
			<path class="st8" d="M119,35.2c0.2-0.1,0.2,0.4,0.1,0.5c0,0.1,0.1,0.1,0.2,0.1c0.1-0.3,0-0.8-0.4-0.6c0,0,0,0.1,0,0.1     C118.9,35.2,119,35.2,119,35.2L119,35.2z"/>
		</g>
	</g>
	<g>
		<g>
			<path class="st8" d="M116.5,37.8c-0.1,0.1-0.1,0.3,0,0.5c0,0.1,0.1,0,0.1-0.1C116.5,38.1,116.6,37.9,116.5,37.8     C116.7,37.8,116.6,37.7,116.5,37.8L116.5,37.8z"/>
		</g>
	</g>
	<g>
		<path d="M115.2,37.5c-0.2,0-0.8-0.1-0.7,0.3c0.1,0,0.1-0.2,0.2-0.3"/>
		<g>
			<path class="st8" d="M115.2,37.5c-0.3,0-0.9-0.1-0.8,0.4c0,0,0.1,0,0.1,0c0.1-0.1,0.1-0.2,0.2-0.3c0.1,0,0-0.1-0.1-0.1     c-0.1,0.1-0.1,0.2-0.2,0.3c0,0,0.1,0,0.1,0c-0.1-0.3,0.5-0.3,0.7-0.3C115.3,37.6,115.3,37.5,115.2,37.5L115.2,37.5z"/>
		</g>
	</g>
	<g>
		<path d="M115.8,37.4c-0.2-0.1-0.4-0.4-0.6-0.5c-0.2-0.2-0.4-0.3-0.6-0.5c-0.2,0.2,0.1,0.3,0.2,0.4c0.2,0.1,0.3,0.1,0.5,0.2"/>
		<g>
			<path class="st8" d="M115.9,37.3c-0.2-0.1-0.4-0.3-0.6-0.5c-0.2-0.2-0.4-0.3-0.6-0.5c0,0-0.1,0-0.1,0c-0.2,0.3,0.5,0.5,0.7,0.6     c0,0,0.1,0,0.1-0.1c-0.1-0.1-0.9-0.3-0.7-0.5c0,0-0.1,0-0.1,0c0.2,0.2,0.4,0.4,0.7,0.6C115.4,37.1,115.6,37.3,115.9,37.3     C115.9,37.4,115.9,37.4,115.9,37.3L115.9,37.3z"/>
		</g>
	</g>
	<g>
		<path d="M116.6,36.4c0-0.2,0.1-1.3-0.2-1.2c0,0.1,0.1,0.2,0.2,0.3"/>
		<g>
			<path class="st8" d="M116.6,36.4c0-0.2,0.2-1.3-0.2-1.3c0,0-0.1,0-0.1,0c0,0.2,0.1,0.2,0.2,0.3c0,0.1,0.1,0,0.1,0     c0-0.1-0.2-0.2-0.2-0.3c0,0,0,0-0.1,0c0.2,0,0.1,1,0.1,1.2C116.5,36.4,116.6,36.4,116.6,36.4L116.6,36.4z"/>
		</g>
	</g>
	<g>
		<g>
			<path class="st8" d="M115.6,36.5c-0.3-0.3-0.5-0.8-0.4-1.2c0,0-0.1,0-0.1,0c0.1,0.1,0.1,0.3,0,0.5c0,0.1,0.1,0.1,0.1,0     c0-0.2,0.1-0.4-0.1-0.6c0,0-0.1,0-0.1,0C115,35.8,115.2,36.3,115.6,36.5C115.6,36.6,115.7,36.6,115.6,36.5L115.6,36.5z"/>
		</g>
	</g>
	<g>
		<path d="M114.5,38.9c-0.1,0.1-0.1,0.3-0.2,0.3c-0.1-0.1,0.1-0.2,0.2-0.2"/>
		<g>
			<path class="st8" d="M114.4,38.9c0,0.1-0.1,0.2-0.2,0.3c0,0,0,0,0.1,0c0-0.1,0.1-0.1,0.1-0.1C114.5,39,114.5,39,114.4,38.9     c-0.1,0.1-0.3,0.2-0.2,0.3c0,0,0,0,0.1,0c0.1-0.1,0.2-0.2,0.3-0.3C114.6,38.9,114.5,38.9,114.4,38.9L114.4,38.9z"/>
		</g>
	</g>
	<g>
		<g>
			<path class="st8" d="M95.1,36c0,0.2,0,0.3,0.1,0.5c0,0.1,0.1,0,0.1-0.1c-0.1-0.1-0.1-0.3-0.1-0.4C95.3,35.9,95.1,35.9,95.1,36     L95.1,36z"/>
		</g>
	</g>
	<g>
		<g>
			<path class="st8" d="M94.6,36.4C94.6,36.4,94.6,36.4,94.6,36.4S94.6,36.4,94.6,36.4C94.6,36.4,94.6,36.4,94.6,36.4     C94.6,36.4,94.6,36.4,94.6,36.4c-0.1,0-0.1,0.1-0.1,0.1s0,0.1,0.1,0.1c0,0,0,0,0,0c0,0,0,0,0,0c0,0,0,0,0,0c0,0,0,0,0,0     C94.7,36.6,94.7,36.4,94.6,36.4C94.7,36.4,94.6,36.4,94.6,36.4L94.6,36.4C94.6,36.5,94.6,36.5,94.6,36.4     C94.6,36.5,94.6,36.5,94.6,36.4C94.6,36.5,94.6,36.5,94.6,36.4L94.6,36.4c0,0.1,0,0.1,0,0.1c0,0,0,0,0,0c0,0,0,0,0,0c0,0,0,0,0,0     c0,0,0,0,0,0C94.7,36.5,94.7,36.5,94.6,36.4C94.7,36.4,94.7,36.4,94.6,36.4L94.6,36.4z"/>
		</g>
	</g>
	<g>
		<g>
			<path class="st8" d="M94.3,37.5c0.1,0.1,0.2,0.1,0.3,0.1c0.1,0,0.1-0.1,0-0.1C94.6,37.5,94.5,37.5,94.3,37.5     C94.4,37.4,94.3,37.5,94.3,37.5L94.3,37.5z"/>
		</g>
	</g>
	<g>
		<g>
			<path class="st8" d="M94.4,38.2c0-0.1,0.2-0.1,0.2-0.2c0.1,0,0.2-0.1,0.3-0.1c0.1,0,0.1-0.1,0-0.1C94.8,37.8,94.5,37.9,94.4,38.2     C94.3,38.2,94.4,38.2,94.4,38.2L94.4,38.2z"/>
		</g>
	</g>
	<g>
		<g>
			<path class="st8" d="M94.7,38.6c0.1,0,0-0.1,0-0.1C94.6,38.4,94.7,38.6,94.7,38.6L94.7,38.6z"/>
		</g>
	</g>
	<g>
		<g>
			<path class="st8" d="M94.7,38.5C94.7,38.5,94.6,38.5,94.7,38.5c0,0.1,0,0.1,0.1,0.1s0,0,0.1,0c0,0,0,0,0,0s0,0,0,0     C94.8,38.5,94.7,38.5,94.7,38.5C94.7,38.5,94.7,38.5,94.7,38.5C94.7,38.5,94.7,38.5,94.7,38.5C94.7,38.5,94.7,38.5,94.7,38.5     C94.7,38.5,94.7,38.5,94.7,38.5L94.7,38.5C94.7,38.5,94.7,38.5,94.7,38.5C94.7,38.5,94.7,38.5,94.7,38.5     C94.7,38.5,94.7,38.5,94.7,38.5L94.7,38.5C94.7,38.5,94.8,38.5,94.7,38.5L94.7,38.5c0.1,0,0.1,0,0.1,0l0,0c0,0,0,0,0,0l0,0     c0,0,0,0,0,0c0,0,0,0,0,0c0,0,0,0,0,0c0,0,0,0,0,0c0,0,0,0,0,0c0,0,0,0,0,0C94.8,38.5,94.8,38.4,94.7,38.5     C94.7,38.4,94.7,38.4,94.7,38.5L94.7,38.5z"/>
		</g>
	</g>
	<g>
		<g>
			<path class="st8" d="M97.2,37.7C97.2,37.7,97.2,37.7,97.2,37.7c-0.1,0-0.1,0.1-0.1,0.1c0,0,0,0,0,0s0,0,0,0     C97.2,37.8,97.2,37.7,97.2,37.7C97.2,37.7,97.2,37.7,97.2,37.7C97.2,37.7,97.2,37.7,97.2,37.7L97.2,37.7     C97.2,37.7,97.2,37.7,97.2,37.7L97.2,37.7C97.2,37.7,97.2,37.7,97.2,37.7L97.2,37.7C97.2,37.7,97.2,37.7,97.2,37.7L97.2,37.7     C97.2,37.7,97.2,37.7,97.2,37.7L97.2,37.7C97.2,37.7,97.2,37.7,97.2,37.7L97.2,37.7C97.2,37.7,97.2,37.7,97.2,37.7L97.2,37.7     c0,0.1,0,0.1,0,0.1l0,0c0,0,0,0,0,0c0,0,0,0,0,0c0,0,0,0,0,0c0,0,0,0,0,0C97.2,37.8,97.2,37.7,97.2,37.7     C97.3,37.7,97.3,37.7,97.2,37.7C97.3,37.7,97.3,37.7,97.2,37.7C97.2,37.6,97.2,37.6,97.2,37.7L97.2,37.7z"/>
		</g>
	</g>
	<g>
		<g>
			<path class="st8" d="M96.6,36.7c0,0,0,0.1,0,0.1c0,0,0.1,0,0.1,0C96.7,36.8,96.7,36.8,96.6,36.7C96.7,36.7,96.6,36.7,96.6,36.7     c0,0.1,0,0.1-0.1,0.1c0,0.1,0.1,0.1,0.1,0c0-0.1,0-0.1,0.1-0.2C96.7,36.6,96.6,36.6,96.6,36.7L96.6,36.7z"/>
		</g>
	</g>
	<g>
		<path d="M96.8,37.2c0.1,0,0.3,0,0.4,0c0,0,0.1-0.1,0.1-0.1c0,0-0.2,0.1-0.3,0.2"/>
		<g>
			<path class="st8" d="M96.8,37.3c0.1,0,0.2,0,0.4,0c0.1,0,0.2-0.1,0.2-0.2c0-0.1-0.1-0.1-0.1-0.1c-0.1,0-0.1,0.1-0.2,0.2     c-0.1,0,0,0.1,0,0.1c0,0,0.1-0.1,0.1-0.1c0,0,0,0,0.1-0.1c0,0,0,0,0,0c0,0,0,0,0,0c0,0,0,0,0,0c0,0,0,0-0.1,0c0,0-0.1,0-0.1,0     c-0.1,0-0.2,0-0.2,0C96.7,37.2,96.7,37.3,96.8,37.3L96.8,37.3z"/>
		</g>
	</g>
	<g>
		<g>
			<path class="st8" d="M95.8,36.3c0,0,0-0.1,0-0.1c0,0,0-0.1,0-0.1c0,0,0,0-0.1,0c0,0,0,0.1,0,0.1c0,0.1,0.1,0.1,0.1,0     c0-0.1,0-0.1,0-0.2c0,0,0,0-0.1,0c-0.1,0.1-0.1,0.2-0.1,0.4C95.7,36.4,95.8,36.4,95.8,36.3L95.8,36.3z"/>
		</g>
	</g>
</g>
</svg>